G04 #@! TF.GenerationSoftware,KiCad,Pcbnew,(5.1.6)-1*
G04 #@! TF.CreationDate,2022-05-04T19:11:15-05:00*
G04 #@! TF.ProjectId,stripline_anode,73747269-706c-4696-9e65-5f616e6f6465,1a*
G04 #@! TF.SameCoordinates,Original*
G04 #@! TF.FileFunction,Copper,L2,Inr*
G04 #@! TF.FilePolarity,Positive*
%FSLAX46Y46*%
G04 Gerber Fmt 4.6, Leading zero omitted, Abs format (unit mm)*
G04 Created by KiCad (PCBNEW (5.1.6)-1) date 2022-05-04 19:11:15*
%MOMM*%
%LPD*%
G01*
G04 APERTURE LIST*
G04 #@! TA.AperFunction,ViaPad*
%ADD10C,0.800000*%
G04 #@! TD*
G04 #@! TA.AperFunction,Conductor*
%ADD11C,0.508000*%
G04 #@! TD*
G04 APERTURE END LIST*
D10*
X-103958000Y-121031000D03*
X-101926000Y-121031000D03*
X-99894000Y-121031000D03*
X-97862000Y-121031000D03*
X-95830000Y-121031000D03*
X-93798000Y-121031000D03*
X-91766000Y-121031000D03*
X-89734000Y-121031000D03*
X-87702000Y-121031000D03*
X-85670000Y-121031000D03*
X-83638000Y-121031000D03*
X-81606000Y-121031000D03*
X-79574000Y-121031000D03*
X-77542000Y-121031000D03*
X-75510000Y-121031000D03*
X-73478000Y-121031000D03*
X-71446000Y-121031000D03*
X-69414000Y-121031000D03*
X-67382000Y-121031000D03*
X-65350000Y-121031000D03*
X-63318000Y-121031000D03*
X-61286000Y-121031000D03*
X-59254000Y-121031000D03*
X-57222000Y-121031000D03*
X-55190000Y-121031000D03*
X-24710000Y-121031000D03*
X-20646000Y-121031000D03*
X-10486000Y-121031000D03*
X-6422000Y-121031000D03*
X-42998000Y-121031000D03*
X-34870000Y-121031000D03*
X-18614000Y-121031000D03*
X-8454000Y-121031000D03*
X-28774000Y-121031000D03*
X-14550000Y-121031000D03*
X-32838000Y-121031000D03*
X-22678000Y-121031000D03*
X-40966000Y-121031000D03*
X-47062000Y-121031000D03*
X-4390000Y-121031000D03*
X-51126000Y-121031000D03*
X-45030000Y-121031000D03*
X-12518000Y-121031000D03*
X-16582000Y-121031000D03*
X-36902000Y-121031000D03*
X-30806000Y-121031000D03*
X-26742000Y-121031000D03*
X-38934000Y-121031000D03*
X-49094000Y-121031000D03*
X-53158000Y-121031000D03*
X26090000Y-121031000D03*
X30154000Y-121031000D03*
X40314000Y-121031000D03*
X44378000Y-121031000D03*
X7802000Y-121031000D03*
X15930000Y-121031000D03*
X32186000Y-121031000D03*
X42346000Y-121031000D03*
X22026000Y-121031000D03*
X36250000Y-121031000D03*
X17962000Y-121031000D03*
X28122000Y-121031000D03*
X9834000Y-121031000D03*
X3738000Y-121031000D03*
X46410000Y-121031000D03*
X-326000Y-121031000D03*
X5770000Y-121031000D03*
X38282000Y-121031000D03*
X34218000Y-121031000D03*
X13898000Y-121031000D03*
X19994000Y-121031000D03*
X24058000Y-121031000D03*
X11866000Y-121031000D03*
X1706000Y-121031000D03*
X-2358000Y-121031000D03*
X76890000Y-121031000D03*
X80954000Y-121031000D03*
X91114000Y-121031000D03*
X95178000Y-121031000D03*
X58602000Y-121031000D03*
X66730000Y-121031000D03*
X82986000Y-121031000D03*
X93146000Y-121031000D03*
X72826000Y-121031000D03*
X87050000Y-121031000D03*
X68762000Y-121031000D03*
X78922000Y-121031000D03*
X60634000Y-121031000D03*
X54538000Y-121031000D03*
X97210000Y-121031000D03*
X50474000Y-121031000D03*
X56570000Y-121031000D03*
X89082000Y-121031000D03*
X85018000Y-121031000D03*
X64698000Y-121031000D03*
X70794000Y-121031000D03*
X74858000Y-121031000D03*
X62666000Y-121031000D03*
X52506000Y-121031000D03*
X48442000Y-121031000D03*
X99242000Y-121031000D03*
X101274000Y-121031000D03*
X103306000Y-121031000D03*
X-14042000Y109093000D03*
X-20646000Y109093000D03*
X-27758000Y109093000D03*
X-34362000Y109093000D03*
X-41474000Y109093000D03*
X-48078000Y109093000D03*
X-55698000Y109093000D03*
X-62302000Y109093000D03*
X-69414000Y109093000D03*
X-76018000Y109093000D03*
X-96846000Y109093000D03*
X-326000Y109093000D03*
X6786000Y109093000D03*
X13390000Y109093000D03*
X21010000Y109093000D03*
X27614000Y109093000D03*
X34726000Y109093000D03*
X41330000Y109093000D03*
X48442000Y109093000D03*
X55046000Y109093000D03*
X62158000Y109093000D03*
X76382000Y109093000D03*
X82986000Y109093000D03*
X90098000Y109093000D03*
X96702000Y109093000D03*
X104322000Y109093000D03*
X-6930000Y109093000D03*
X-89734000Y109093000D03*
X-83130000Y109093000D03*
X19994000Y161213800D03*
X-103958000Y161213800D03*
X80954000Y161213800D03*
X78922000Y161213800D03*
X72826000Y161213800D03*
X95178000Y161213800D03*
X87050000Y161213800D03*
X1706000Y161213800D03*
X68762000Y161213800D03*
X-53158000Y161213800D03*
X-99894000Y161213800D03*
X60634000Y161213800D03*
X76890000Y161213800D03*
X58602000Y161213800D03*
X93146000Y161213800D03*
X54538000Y161213800D03*
X82986000Y161213800D03*
X-2358000Y161213800D03*
X91114000Y161213800D03*
X66730000Y161213800D03*
X-12518000Y161213800D03*
X-26742000Y161213800D03*
X24058000Y161213800D03*
X38282000Y161213800D03*
X34218000Y161213800D03*
X17962000Y161213800D03*
X11866000Y161213800D03*
X9834000Y161213800D03*
X32186000Y161213800D03*
X-51126000Y161213800D03*
X46410000Y161213800D03*
X28122000Y161213800D03*
X-326000Y161213800D03*
X3738000Y161213800D03*
X-49094000Y161213800D03*
X7802000Y161213800D03*
X30154000Y161213800D03*
X-36902000Y161213800D03*
X-30806000Y161213800D03*
X70794000Y161213800D03*
X-81606000Y161213800D03*
X-22678000Y161213800D03*
X-32838000Y161213800D03*
X-101926000Y161213800D03*
X-83638000Y161213800D03*
X50474000Y161213800D03*
X-71446000Y161213800D03*
X-8454000Y161213800D03*
X-20646000Y161213800D03*
X97210000Y161213800D03*
X-24710000Y161213800D03*
X-65350000Y161213800D03*
X-18614000Y161213800D03*
X-69414000Y161213800D03*
X48442000Y161213800D03*
X-42998000Y161213800D03*
X-10486000Y161213800D03*
X-97862000Y161213800D03*
X-61286000Y161213800D03*
X-75510000Y161213800D03*
X-95830000Y161213800D03*
X-77542000Y161213800D03*
X-67382000Y161213800D03*
X64698000Y161213800D03*
X89082000Y161213800D03*
X-87702000Y161213800D03*
X40314000Y161213800D03*
X-34870000Y161213800D03*
X36250000Y161213800D03*
X44378000Y161213800D03*
X-38934000Y161213800D03*
X-85670000Y161213800D03*
X-14550000Y161213800D03*
X13898000Y161213800D03*
X5770000Y161213800D03*
X-16582000Y161213800D03*
X-28774000Y161213800D03*
X52506000Y161213800D03*
X-73478000Y161213800D03*
X-93798000Y161213800D03*
X42346000Y161213800D03*
X103306000Y161213800D03*
X-79574000Y161213800D03*
X62666000Y161213800D03*
X-45030000Y161213800D03*
X74858000Y161213800D03*
X15930000Y161213800D03*
X-59254000Y161213800D03*
X-57222000Y161213800D03*
X-4390000Y161213800D03*
X99242000Y161213800D03*
X26090000Y161213800D03*
X22026000Y161213800D03*
X-6422000Y161213800D03*
X85018000Y161213800D03*
X56570000Y161213800D03*
X-55190000Y161213800D03*
X-91766000Y161213800D03*
X101274000Y161213800D03*
X-63318000Y161213800D03*
X-47062000Y161213800D03*
X-40966000Y161213800D03*
X-89734000Y161213800D03*
X-104466000Y109093000D03*
X68762000Y109093000D03*
X-101850000Y-117000000D03*
X-98850000Y-116990000D03*
X-91930000Y-116990000D03*
X-94930000Y-117000000D03*
X-85010000Y-116990000D03*
X-88010000Y-117000000D03*
X-81090000Y-117000000D03*
X-78090000Y-116990000D03*
X-71150000Y-117000000D03*
X-74150000Y-116990000D03*
X-67230000Y-116990000D03*
X-64230000Y-117000000D03*
X-57310000Y-117000000D03*
X-60310000Y-116990000D03*
X-50390000Y-117000000D03*
X-53390000Y-116990000D03*
X-43470000Y-117000000D03*
X-46470000Y-116990000D03*
X-39570000Y-117000000D03*
X-36550000Y-117000000D03*
X-32630000Y-116990000D03*
X-29630000Y-117000000D03*
X-25710000Y-116990000D03*
X-22710000Y-117000000D03*
X-18790000Y-116990000D03*
X-15790000Y-117000000D03*
X-8870000Y-117000000D03*
X-11870000Y-116990000D03*
X-1950000Y-117000000D03*
X-4950000Y-116990000D03*
X4950000Y-116990000D03*
X1970000Y-116990000D03*
X11890000Y-117000000D03*
X8890000Y-116990000D03*
X18810000Y-117000000D03*
X15810000Y-116990000D03*
X22710000Y-117000000D03*
X25730000Y-117000000D03*
X32650000Y-117000000D03*
X29650000Y-116990000D03*
X36570000Y-116990000D03*
X39570000Y-117000000D03*
X43490000Y-116990000D03*
X46490000Y-117000000D03*
X50410000Y-116990000D03*
X53410000Y-117000000D03*
X60330000Y-117000000D03*
X57330000Y-116990000D03*
X67250000Y-117000000D03*
X64250000Y-116990000D03*
X71170000Y-116990000D03*
X74170000Y-117000000D03*
X78090000Y-116990000D03*
X81090000Y-117000000D03*
X88010000Y-117000000D03*
X85010000Y-116990000D03*
X94930000Y-117000000D03*
X91930000Y-116990000D03*
X101830000Y-116990000D03*
X98830000Y-117000000D03*
D11*
G36*
X110680500Y106108500D02*
G01*
X-110299500Y106108500D01*
X-110299500Y148000945D01*
X-38592950Y148000945D01*
X-38592950Y147539415D01*
X-38502910Y147086752D01*
X-38326290Y146660353D01*
X-38069877Y146276604D01*
X-37743526Y145950253D01*
X-37359777Y145693840D01*
X-36933378Y145517220D01*
X-36480715Y145427180D01*
X-36019185Y145427180D01*
X-35566522Y145517220D01*
X-35140123Y145693840D01*
X-34756374Y145950253D01*
X-34430023Y146276604D01*
X-34173610Y146660353D01*
X-33996990Y147086752D01*
X-33906950Y147539415D01*
X-33906950Y148000945D01*
X34707050Y148000945D01*
X34707050Y147539415D01*
X34797090Y147086752D01*
X34973710Y146660353D01*
X35230123Y146276604D01*
X35556474Y145950253D01*
X35940223Y145693840D01*
X36366622Y145517220D01*
X36819285Y145427180D01*
X37280815Y145427180D01*
X37733478Y145517220D01*
X38159877Y145693840D01*
X38543626Y145950253D01*
X38869977Y146276604D01*
X39126390Y146660353D01*
X39303010Y147086752D01*
X39393050Y147539415D01*
X39393050Y148000945D01*
X39303010Y148453608D01*
X39126390Y148880007D01*
X38869977Y149263756D01*
X38543626Y149590107D01*
X38159877Y149846520D01*
X37733478Y150023140D01*
X37280815Y150113180D01*
X36819285Y150113180D01*
X36366622Y150023140D01*
X35940223Y149846520D01*
X35556474Y149590107D01*
X35230123Y149263756D01*
X34973710Y148880007D01*
X34797090Y148453608D01*
X34707050Y148000945D01*
X-33906950Y148000945D01*
X-33996990Y148453608D01*
X-34173610Y148880007D01*
X-34430023Y149263756D01*
X-34756374Y149590107D01*
X-35140123Y149846520D01*
X-35566522Y150023140D01*
X-36019185Y150113180D01*
X-36480715Y150113180D01*
X-36933378Y150023140D01*
X-37359777Y149846520D01*
X-37743526Y149590107D01*
X-38069877Y149263756D01*
X-38326290Y148880007D01*
X-38502910Y148453608D01*
X-38592950Y148000945D01*
X-110299500Y148000945D01*
X-110299500Y164528500D01*
X110680500Y164528500D01*
X110680500Y106108500D01*
G37*
X110680500Y106108500D02*
X-110299500Y106108500D01*
X-110299500Y148000945D01*
X-38592950Y148000945D01*
X-38592950Y147539415D01*
X-38502910Y147086752D01*
X-38326290Y146660353D01*
X-38069877Y146276604D01*
X-37743526Y145950253D01*
X-37359777Y145693840D01*
X-36933378Y145517220D01*
X-36480715Y145427180D01*
X-36019185Y145427180D01*
X-35566522Y145517220D01*
X-35140123Y145693840D01*
X-34756374Y145950253D01*
X-34430023Y146276604D01*
X-34173610Y146660353D01*
X-33996990Y147086752D01*
X-33906950Y147539415D01*
X-33906950Y148000945D01*
X34707050Y148000945D01*
X34707050Y147539415D01*
X34797090Y147086752D01*
X34973710Y146660353D01*
X35230123Y146276604D01*
X35556474Y145950253D01*
X35940223Y145693840D01*
X36366622Y145517220D01*
X36819285Y145427180D01*
X37280815Y145427180D01*
X37733478Y145517220D01*
X38159877Y145693840D01*
X38543626Y145950253D01*
X38869977Y146276604D01*
X39126390Y146660353D01*
X39303010Y147086752D01*
X39393050Y147539415D01*
X39393050Y148000945D01*
X39303010Y148453608D01*
X39126390Y148880007D01*
X38869977Y149263756D01*
X38543626Y149590107D01*
X38159877Y149846520D01*
X37733478Y150023140D01*
X37280815Y150113180D01*
X36819285Y150113180D01*
X36366622Y150023140D01*
X35940223Y149846520D01*
X35556474Y149590107D01*
X35230123Y149263756D01*
X34973710Y148880007D01*
X34797090Y148453608D01*
X34707050Y148000945D01*
X-33906950Y148000945D01*
X-33996990Y148453608D01*
X-34173610Y148880007D01*
X-34430023Y149263756D01*
X-34756374Y149590107D01*
X-35140123Y149846520D01*
X-35566522Y150023140D01*
X-36019185Y150113180D01*
X-36480715Y150113180D01*
X-36933378Y150023140D01*
X-37359777Y149846520D01*
X-37743526Y149590107D01*
X-38069877Y149263756D01*
X-38326290Y148880007D01*
X-38502910Y148453608D01*
X-38592950Y148000945D01*
X-110299500Y148000945D01*
X-110299500Y164528500D01*
X110680500Y164528500D01*
X110680500Y106108500D01*
M02*
