M48
; DRILL file {KiCad (5.1.6)-1} date 05/04/22 19:11:17
; FORMAT={-:-/ absolute / inch / decimal}
; #@! TF.CreationDate,2022-05-04T19:11:17-05:00
; #@! TF.GenerationSoftware,Kicad,Pcbnew,(5.1.6)-1
; #@! TF.FileFunction,Plated,1,6,PTH
FMAT,2
INCH
T1C0.0280
%
G90
G05
T1
X-4.1128Y4.295
X-4.0928Y6.347
X-4.0928Y-4.765
X-4.0128Y6.347
X-4.0128Y-4.765
X-4.0098Y-4.6063
X-3.9328Y6.347
X-3.9328Y-4.765
X-3.8917Y-4.6059
X-3.8528Y6.347
X-3.8528Y-4.765
X-3.8128Y4.295
X-3.7728Y6.347
X-3.7728Y-4.765
X-3.7374Y-4.6063
X-3.6928Y6.347
X-3.6928Y-4.765
X-3.6193Y-4.6059
X-3.6128Y6.347
X-3.6128Y-4.765
X-3.5328Y6.347
X-3.5328Y4.295
X-3.5328Y-4.765
X-3.465Y-4.6063
X-3.4528Y6.347
X-3.4528Y-4.765
X-3.3728Y6.347
X-3.3728Y-4.765
X-3.3469Y-4.6059
X-3.2928Y6.347
X-3.2928Y-4.765
X-3.2728Y4.295
X-3.2128Y6.347
X-3.2128Y-4.765
X-3.1925Y-4.6063
X-3.1328Y6.347
X-3.1328Y-4.765
X-3.0744Y-4.6059
X-3.0528Y6.347
X-3.0528Y-4.765
X-2.9928Y4.295
X-2.9728Y6.347
X-2.9728Y-4.765
X-2.9193Y-4.6059
X-2.8928Y6.347
X-2.8928Y-4.765
X-2.8128Y6.347
X-2.8128Y-4.765
X-2.8012Y-4.6063
X-2.7328Y6.347
X-2.7328Y4.295
X-2.7328Y-4.765
X-2.6528Y6.347
X-2.6528Y-4.765
X-2.6469Y-4.6059
X-2.5728Y6.347
X-2.5728Y-4.765
X-2.5287Y-4.6063
X-2.4928Y6.347
X-2.4928Y-4.765
X-2.4528Y4.295
X-2.4128Y6.347
X-2.4128Y-4.765
X-2.3744Y-4.6059
X-2.3328Y6.347
X-2.3328Y-4.765
X-2.2563Y-4.6063
X-2.2528Y6.347
X-2.2528Y-4.765
X-2.1928Y4.295
X-2.1728Y6.347
X-2.1728Y-4.765
X-2.102Y-4.6059
X-2.0928Y6.347
X-2.0928Y-4.765
X-2.0128Y6.347
X-2.0128Y-4.765
X-1.9839Y-4.6063
X-1.9328Y6.347
X-1.9328Y-4.765
X-1.8928Y4.295
X-1.8528Y6.347
X-1.8528Y-4.765
X-1.8295Y-4.6059
X-1.7728Y6.347
X-1.7728Y-4.765
X-1.7114Y-4.6063
X-1.6928Y6.347
X-1.6928Y-4.765
X-1.6328Y4.295
X-1.6128Y6.347
X-1.6128Y-4.765
X-1.5579Y-4.6063
X-1.5328Y6.347
X-1.5328Y-4.765
X-1.4528Y6.347
X-1.4528Y-4.765
X-1.439Y-4.6063
X-1.3728Y6.347
X-1.3728Y-4.765
X-1.3528Y4.295
X-1.2928Y6.347
X-1.2928Y-4.765
X-1.2846Y-4.6059
X-1.2128Y6.347
X-1.2128Y-4.765
X-1.1665Y-4.6063
X-1.1328Y6.347
X-1.1328Y-4.765
X-1.0928Y4.295
X-1.0528Y6.347
X-1.0528Y-4.765
X-1.0122Y-4.6059
X-0.9728Y6.347
X-0.9728Y-4.765
X-0.8941Y-4.6063
X-0.8928Y6.347
X-0.8928Y-4.765
X-0.8128Y6.347
X-0.8128Y4.295
X-0.8128Y-4.765
X-0.7398Y-4.6059
X-0.7328Y6.347
X-0.7328Y-4.765
X-0.6528Y6.347
X-0.6528Y-4.765
X-0.6217Y-4.6063
X-0.5728Y6.347
X-0.5728Y-4.765
X-0.5528Y4.295
X-0.4928Y6.347
X-0.4928Y-4.765
X-0.4673Y-4.6059
X-0.4128Y6.347
X-0.4128Y-4.765
X-0.3492Y-4.6063
X-0.3328Y6.347
X-0.3328Y-4.765
X-0.2728Y4.295
X-0.2528Y6.347
X-0.2528Y-4.765
X-0.1949Y-4.6059
X-0.1728Y6.347
X-0.1728Y-4.765
X-0.0928Y6.347
X-0.0928Y-4.765
X-0.0768Y-4.6063
X-0.0128Y6.347
X-0.0128Y4.295
X-0.0128Y-4.765
X0.0672Y6.347
X0.0672Y-4.765
X0.0776Y-4.6059
X0.1472Y6.347
X0.1472Y-4.765
X0.1949Y-4.6059
X0.2272Y6.347
X0.2272Y-4.765
X0.2672Y4.295
X0.3072Y6.347
X0.3072Y-4.765
X0.35Y-4.6059
X0.3872Y6.347
X0.3872Y-4.765
X0.4672Y6.347
X0.4672Y-4.765
X0.4681Y-4.6063
X0.5272Y4.295
X0.5472Y6.347
X0.5472Y-4.765
X0.6224Y-4.6059
X0.6272Y6.347
X0.6272Y-4.765
X0.7072Y6.347
X0.7072Y-4.765
X0.7406Y-4.6063
X0.7872Y6.347
X0.7872Y-4.765
X0.8272Y4.295
X0.8672Y6.347
X0.8672Y-4.765
X0.8941Y-4.6063
X0.9472Y6.347
X0.9472Y-4.765
X1.013Y-4.6063
X1.0272Y6.347
X1.0272Y-4.765
X1.0872Y4.295
X1.1072Y6.347
X1.1072Y-4.765
X1.1673Y-4.6059
X1.1872Y6.347
X1.1872Y-4.765
X1.2672Y6.347
X1.2672Y-4.765
X1.2854Y-4.6063
X1.3472Y6.347
X1.3472Y-4.765
X1.3672Y4.295
X1.4272Y6.347
X1.4272Y-4.765
X1.4398Y-4.6059
X1.5072Y6.347
X1.5072Y-4.765
X1.5579Y-4.6063
X1.5872Y6.347
X1.5872Y-4.765
X1.6272Y4.295
X1.6672Y6.347
X1.6672Y-4.765
X1.7122Y-4.6059
X1.7472Y6.347
X1.7472Y-4.765
X1.8272Y6.347
X1.8272Y-4.765
X1.8303Y-4.6063
X1.9072Y6.347
X1.9072Y4.295
X1.9072Y-4.765
X1.9846Y-4.6059
X1.9872Y6.347
X1.9872Y-4.765
X2.0672Y6.347
X2.0672Y-4.765
X2.1028Y-4.6063
X2.1472Y6.347
X2.1472Y-4.765
X2.1672Y4.295
X2.2272Y6.347
X2.2272Y-4.765
X2.2571Y-4.6059
X2.3072Y6.347
X2.3072Y-4.765
X2.3752Y-4.6063
X2.3872Y6.347
X2.3872Y-4.765
X2.4472Y4.295
X2.4672Y6.347
X2.4672Y-4.765
X2.5295Y-4.6059
X2.5472Y6.347
X2.5472Y-4.765
X2.6272Y6.347
X2.6272Y-4.765
X2.6476Y-4.6063
X2.7072Y6.347
X2.7072Y4.295
X2.7072Y-4.765
X2.7872Y6.347
X2.7872Y-4.765
X2.802Y-4.6059
X2.8672Y6.347
X2.8672Y-4.765
X2.9201Y-4.6063
X2.9472Y6.347
X2.9472Y-4.765
X3.0072Y4.295
X3.0272Y6.347
X3.0272Y-4.765
X3.0744Y-4.6059
X3.1072Y6.347
X3.1072Y-4.765
X3.1872Y6.347
X3.1872Y-4.765
X3.1925Y-4.6063
X3.2672Y6.347
X3.2672Y4.295
X3.2672Y-4.765
X3.3469Y-4.6059
X3.3472Y6.347
X3.3472Y-4.765
X3.4272Y6.347
X3.4272Y-4.765
X3.465Y-4.6063
X3.5072Y6.347
X3.5072Y-4.765
X3.5472Y4.295
X3.5872Y6.347
X3.5872Y-4.765
X3.6193Y-4.6059
X3.6672Y6.347
X3.6672Y-4.765
X3.7374Y-4.6063
X3.7472Y6.347
X3.7472Y-4.765
X3.8072Y4.295
X3.8272Y6.347
X3.8272Y-4.765
X3.8909Y-4.6063
X3.9072Y6.347
X3.9072Y-4.765
X3.9872Y6.347
X3.9872Y-4.765
X4.0091Y-4.6059
X4.0672Y6.347
X4.0672Y-4.765
X4.1072Y4.295
T0
M30
