G04 #@! TF.GenerationSoftware,KiCad,Pcbnew,(5.1.6)-1*
G04 #@! TF.CreationDate,2022-05-04T19:11:15-05:00*
G04 #@! TF.ProjectId,stripline_anode,73747269-706c-4696-9e65-5f616e6f6465,1a*
G04 #@! TF.SameCoordinates,Original*
G04 #@! TF.FileFunction,Soldermask,Bot*
G04 #@! TF.FilePolarity,Negative*
%FSLAX46Y46*%
G04 Gerber Fmt 4.6, Leading zero omitted, Abs format (unit mm)*
G04 Created by KiCad (PCBNEW (5.1.6)-1) date 2022-05-04 19:11:15*
%MOMM*%
%LPD*%
G01*
G04 APERTURE LIST*
%ADD10C,0.100000*%
G04 APERTURE END LIST*
D10*
G36*
X-114259609Y-107529033D02*
G01*
X-113795357Y-107721332D01*
X-113795355Y-107721333D01*
X-113377539Y-108000509D01*
X-113022216Y-108355832D01*
X-112743040Y-108773648D01*
X-112743039Y-108773650D01*
X-112550740Y-109237902D01*
X-112452707Y-109730747D01*
X-112452707Y-110233253D01*
X-112550740Y-110726098D01*
X-112743039Y-111190350D01*
X-112743040Y-111190352D01*
X-113022216Y-111608168D01*
X-113377539Y-111963491D01*
X-113795355Y-112242667D01*
X-113795356Y-112242668D01*
X-113795357Y-112242668D01*
X-114259609Y-112434967D01*
X-114752454Y-112533000D01*
X-115254960Y-112533000D01*
X-115747805Y-112434967D01*
X-116212057Y-112242668D01*
X-116212058Y-112242668D01*
X-116212059Y-112242667D01*
X-116629875Y-111963491D01*
X-116985198Y-111608168D01*
X-117264374Y-111190352D01*
X-117264375Y-111190350D01*
X-117456674Y-110726098D01*
X-117554707Y-110233253D01*
X-117554707Y-109730747D01*
X-117456674Y-109237902D01*
X-117264375Y-108773650D01*
X-117264374Y-108773648D01*
X-116985198Y-108355832D01*
X-116629875Y-108000509D01*
X-116212059Y-107721333D01*
X-116212057Y-107721332D01*
X-115747805Y-107529033D01*
X-115254960Y-107431000D01*
X-114752454Y-107431000D01*
X-114259609Y-107529033D01*
G37*
G36*
X115740391Y-107529033D02*
G01*
X116204643Y-107721332D01*
X116204645Y-107721333D01*
X116622461Y-108000509D01*
X116977784Y-108355832D01*
X117256960Y-108773648D01*
X117256961Y-108773650D01*
X117449260Y-109237902D01*
X117547293Y-109730747D01*
X117547293Y-110233253D01*
X117449260Y-110726098D01*
X117256961Y-111190350D01*
X117256960Y-111190352D01*
X116977784Y-111608168D01*
X116622461Y-111963491D01*
X116204645Y-112242667D01*
X116204644Y-112242668D01*
X116204643Y-112242668D01*
X115740391Y-112434967D01*
X115247546Y-112533000D01*
X114745040Y-112533000D01*
X114252195Y-112434967D01*
X113787943Y-112242668D01*
X113787942Y-112242668D01*
X113787941Y-112242667D01*
X113370125Y-111963491D01*
X113014802Y-111608168D01*
X112735626Y-111190352D01*
X112735625Y-111190350D01*
X112543326Y-110726098D01*
X112445293Y-110233253D01*
X112445293Y-109730747D01*
X112543326Y-109237902D01*
X112735625Y-108773650D01*
X112735626Y-108773648D01*
X113014802Y-108355832D01*
X113370125Y-108000509D01*
X113787941Y-107721333D01*
X113787943Y-107721332D01*
X114252195Y-107529033D01*
X114745040Y-107431000D01*
X115247546Y-107431000D01*
X115740391Y-107529033D01*
G37*
G36*
X-114259609Y-52529033D02*
G01*
X-113795357Y-52721332D01*
X-113795355Y-52721333D01*
X-113377539Y-53000509D01*
X-113022216Y-53355832D01*
X-112743040Y-53773648D01*
X-112743039Y-53773650D01*
X-112550740Y-54237902D01*
X-112452707Y-54730747D01*
X-112452707Y-55233253D01*
X-112550740Y-55726098D01*
X-112743039Y-56190350D01*
X-112743040Y-56190352D01*
X-113022216Y-56608168D01*
X-113377539Y-56963491D01*
X-113795355Y-57242667D01*
X-113795356Y-57242668D01*
X-113795357Y-57242668D01*
X-114259609Y-57434967D01*
X-114752454Y-57533000D01*
X-115254960Y-57533000D01*
X-115747805Y-57434967D01*
X-116212057Y-57242668D01*
X-116212058Y-57242668D01*
X-116212059Y-57242667D01*
X-116629875Y-56963491D01*
X-116985198Y-56608168D01*
X-117264374Y-56190352D01*
X-117264375Y-56190350D01*
X-117456674Y-55726098D01*
X-117554707Y-55233253D01*
X-117554707Y-54730747D01*
X-117456674Y-54237902D01*
X-117264375Y-53773650D01*
X-117264374Y-53773648D01*
X-116985198Y-53355832D01*
X-116629875Y-53000509D01*
X-116212059Y-52721333D01*
X-116212057Y-52721332D01*
X-115747805Y-52529033D01*
X-115254960Y-52431000D01*
X-114752454Y-52431000D01*
X-114259609Y-52529033D01*
G37*
G36*
X115740391Y-52529033D02*
G01*
X116204643Y-52721332D01*
X116204645Y-52721333D01*
X116622461Y-53000509D01*
X116977784Y-53355832D01*
X117256960Y-53773648D01*
X117256961Y-53773650D01*
X117449260Y-54237902D01*
X117547293Y-54730747D01*
X117547293Y-55233253D01*
X117449260Y-55726098D01*
X117256961Y-56190350D01*
X117256960Y-56190352D01*
X116977784Y-56608168D01*
X116622461Y-56963491D01*
X116204645Y-57242667D01*
X116204644Y-57242668D01*
X116204643Y-57242668D01*
X115740391Y-57434967D01*
X115247546Y-57533000D01*
X114745040Y-57533000D01*
X114252195Y-57434967D01*
X113787943Y-57242668D01*
X113787942Y-57242668D01*
X113787941Y-57242667D01*
X113370125Y-56963491D01*
X113014802Y-56608168D01*
X112735626Y-56190352D01*
X112735625Y-56190350D01*
X112543326Y-55726098D01*
X112445293Y-55233253D01*
X112445293Y-54730747D01*
X112543326Y-54237902D01*
X112735625Y-53773650D01*
X112735626Y-53773648D01*
X113014802Y-53355832D01*
X113370125Y-53000509D01*
X113787941Y-52721333D01*
X113787943Y-52721332D01*
X114252195Y-52529033D01*
X114745040Y-52431000D01*
X115247546Y-52431000D01*
X115740391Y-52529033D01*
G37*
G36*
X115740391Y57470967D02*
G01*
X116204643Y57278668D01*
X116204645Y57278667D01*
X116622461Y56999491D01*
X116977784Y56644168D01*
X117256960Y56226352D01*
X117256961Y56226350D01*
X117449260Y55762098D01*
X117547293Y55269253D01*
X117547293Y54766747D01*
X117449260Y54273902D01*
X117256961Y53809650D01*
X117256960Y53809648D01*
X116977784Y53391832D01*
X116622461Y53036509D01*
X116204645Y52757333D01*
X116204644Y52757332D01*
X116204643Y52757332D01*
X115740391Y52565033D01*
X115247546Y52467000D01*
X114745040Y52467000D01*
X114252195Y52565033D01*
X113787943Y52757332D01*
X113787942Y52757332D01*
X113787941Y52757333D01*
X113370125Y53036509D01*
X113014802Y53391832D01*
X112735626Y53809648D01*
X112735625Y53809650D01*
X112543326Y54273902D01*
X112445293Y54766747D01*
X112445293Y55269253D01*
X112543326Y55762098D01*
X112735625Y56226350D01*
X112735626Y56226352D01*
X113014802Y56644168D01*
X113370125Y56999491D01*
X113787941Y57278667D01*
X113787943Y57278668D01*
X114252195Y57470967D01*
X114745040Y57569000D01*
X115247546Y57569000D01*
X115740391Y57470967D01*
G37*
G36*
X-114259609Y57470967D02*
G01*
X-113795357Y57278668D01*
X-113795355Y57278667D01*
X-113377539Y56999491D01*
X-113022216Y56644168D01*
X-112743040Y56226352D01*
X-112743039Y56226350D01*
X-112550740Y55762098D01*
X-112452707Y55269253D01*
X-112452707Y54766747D01*
X-112550740Y54273902D01*
X-112743039Y53809650D01*
X-112743040Y53809648D01*
X-113022216Y53391832D01*
X-113377539Y53036509D01*
X-113795355Y52757333D01*
X-113795356Y52757332D01*
X-113795357Y52757332D01*
X-114259609Y52565033D01*
X-114752454Y52467000D01*
X-115254960Y52467000D01*
X-115747805Y52565033D01*
X-116212057Y52757332D01*
X-116212058Y52757332D01*
X-116212059Y52757333D01*
X-116629875Y53036509D01*
X-116985198Y53391832D01*
X-117264374Y53809648D01*
X-117264375Y53809650D01*
X-117456674Y54273902D01*
X-117554707Y54766747D01*
X-117554707Y55269253D01*
X-117456674Y55762098D01*
X-117264375Y56226350D01*
X-117264374Y56226352D01*
X-116985198Y56644168D01*
X-116629875Y56999491D01*
X-116212059Y57278667D01*
X-116212057Y57278668D01*
X-115747805Y57470967D01*
X-115254960Y57569000D01*
X-114752454Y57569000D01*
X-114259609Y57470967D01*
G37*
G36*
X-114259609Y112470967D02*
G01*
X-113795357Y112278668D01*
X-113795355Y112278667D01*
X-113377539Y111999491D01*
X-113022216Y111644168D01*
X-112743040Y111226352D01*
X-112743039Y111226350D01*
X-112550740Y110762098D01*
X-112452707Y110269253D01*
X-112452707Y109766747D01*
X-112550740Y109273902D01*
X-112743039Y108809650D01*
X-112743040Y108809648D01*
X-113022216Y108391832D01*
X-113377539Y108036509D01*
X-113795355Y107757333D01*
X-113795356Y107757332D01*
X-113795357Y107757332D01*
X-114259609Y107565033D01*
X-114752454Y107467000D01*
X-115254960Y107467000D01*
X-115747805Y107565033D01*
X-116212057Y107757332D01*
X-116212058Y107757332D01*
X-116212059Y107757333D01*
X-116629875Y108036509D01*
X-116985198Y108391832D01*
X-117264374Y108809648D01*
X-117264375Y108809650D01*
X-117456674Y109273902D01*
X-117554707Y109766747D01*
X-117554707Y110269253D01*
X-117456674Y110762098D01*
X-117264375Y111226350D01*
X-117264374Y111226352D01*
X-116985198Y111644168D01*
X-116629875Y111999491D01*
X-116212059Y112278667D01*
X-116212057Y112278668D01*
X-115747805Y112470967D01*
X-115254960Y112569000D01*
X-114752454Y112569000D01*
X-114259609Y112470967D01*
G37*
G36*
X115740391Y112470967D02*
G01*
X116204643Y112278668D01*
X116204645Y112278667D01*
X116622461Y111999491D01*
X116977784Y111644168D01*
X117256960Y111226352D01*
X117256961Y111226350D01*
X117449260Y110762098D01*
X117547293Y110269253D01*
X117547293Y109766747D01*
X117449260Y109273902D01*
X117256961Y108809650D01*
X117256960Y108809648D01*
X116977784Y108391832D01*
X116622461Y108036509D01*
X116204645Y107757333D01*
X116204644Y107757332D01*
X116204643Y107757332D01*
X115740391Y107565033D01*
X115247546Y107467000D01*
X114745040Y107467000D01*
X114252195Y107565033D01*
X113787943Y107757332D01*
X113787942Y107757332D01*
X113787941Y107757333D01*
X113370125Y108036509D01*
X113014802Y108391832D01*
X112735626Y108809648D01*
X112735625Y108809650D01*
X112543326Y109273902D01*
X112445293Y109766747D01*
X112445293Y110269253D01*
X112543326Y110762098D01*
X112735625Y111226350D01*
X112735626Y111226352D01*
X113014802Y111644168D01*
X113370125Y111999491D01*
X113787941Y112278667D01*
X113787943Y112278668D01*
X114252195Y112470967D01*
X114745040Y112569000D01*
X115247546Y112569000D01*
X115740391Y112470967D01*
G37*
G36*
X37229731Y148362508D02*
G01*
X37341836Y148316073D01*
X37442727Y148248659D01*
X37528529Y148162857D01*
X37595943Y148061966D01*
X37642378Y147949861D01*
X37666050Y147830851D01*
X37666050Y147709509D01*
X37642378Y147590499D01*
X37595943Y147478394D01*
X37528529Y147377503D01*
X37442727Y147291701D01*
X37341836Y147224287D01*
X37229731Y147177852D01*
X37110721Y147154180D01*
X36989379Y147154180D01*
X36870369Y147177852D01*
X36758264Y147224287D01*
X36657373Y147291701D01*
X36571571Y147377503D01*
X36504157Y147478394D01*
X36457722Y147590499D01*
X36434050Y147709509D01*
X36434050Y147830851D01*
X36457722Y147949861D01*
X36504157Y148061966D01*
X36571571Y148162857D01*
X36657373Y148248659D01*
X36758264Y148316073D01*
X36870369Y148362508D01*
X36989379Y148386180D01*
X37110721Y148386180D01*
X37229731Y148362508D01*
G37*
G36*
X-36070269Y148362508D02*
G01*
X-35958164Y148316073D01*
X-35857273Y148248659D01*
X-35771471Y148162857D01*
X-35704057Y148061966D01*
X-35657622Y147949861D01*
X-35633950Y147830851D01*
X-35633950Y147709509D01*
X-35657622Y147590499D01*
X-35704057Y147478394D01*
X-35771471Y147377503D01*
X-35857273Y147291701D01*
X-35958164Y147224287D01*
X-36070269Y147177852D01*
X-36189279Y147154180D01*
X-36310621Y147154180D01*
X-36429631Y147177852D01*
X-36541736Y147224287D01*
X-36642627Y147291701D01*
X-36728429Y147377503D01*
X-36795843Y147478394D01*
X-36842278Y147590499D01*
X-36865950Y147709509D01*
X-36865950Y147830851D01*
X-36842278Y147949861D01*
X-36795843Y148061966D01*
X-36728429Y148162857D01*
X-36642627Y148248659D01*
X-36541736Y148316073D01*
X-36429631Y148362508D01*
X-36310621Y148386180D01*
X-36189279Y148386180D01*
X-36070269Y148362508D01*
G37*
M02*
