G04 #@! TF.GenerationSoftware,KiCad,Pcbnew,(5.1.6)-1*
G04 #@! TF.CreationDate,2022-05-04T19:11:15-05:00*
G04 #@! TF.ProjectId,stripline_anode,73747269-706c-4696-9e65-5f616e6f6465,1a*
G04 #@! TF.SameCoordinates,Original*
G04 #@! TF.FileFunction,Legend,Bot*
G04 #@! TF.FilePolarity,Positive*
%FSLAX46Y46*%
G04 Gerber Fmt 4.6, Leading zero omitted, Abs format (unit mm)*
G04 Created by KiCad (PCBNEW (5.1.6)-1) date 2022-05-04 19:11:15*
%MOMM*%
%LPD*%
G01*
G04 APERTURE LIST*
%ADD10C,0.150000*%
G04 APERTURE END LIST*
D10*
X7476261Y149819309D02*
X7523880Y149866928D01*
X7619119Y149914547D01*
X7714357Y149914547D01*
X7809595Y149866928D01*
X7857214Y149819309D01*
X7904833Y149724071D01*
X7904833Y149628833D01*
X7857214Y149533595D01*
X7809595Y149485976D01*
X7714357Y149438357D01*
X7619119Y149438357D01*
X7523880Y149485976D01*
X7476261Y149533595D01*
X7476261Y149914547D02*
X7476261Y149533595D01*
X7428642Y149485976D01*
X7381023Y149485976D01*
X7285785Y149533595D01*
X7238166Y149628833D01*
X7238166Y149866928D01*
X7333404Y150009785D01*
X7476261Y150105023D01*
X7666738Y150152642D01*
X7857214Y150105023D01*
X8000071Y150009785D01*
X8095309Y149866928D01*
X8142928Y149676452D01*
X8095309Y149485976D01*
X8000071Y149343119D01*
X7857214Y149247880D01*
X7666738Y149200261D01*
X7476261Y149247880D01*
X7333404Y149343119D01*
X6523880Y150343119D02*
X6523880Y149628833D01*
X6571500Y149485976D01*
X6666738Y149390738D01*
X6809595Y149343119D01*
X6904833Y149343119D01*
X5619119Y149343119D02*
X5619119Y149866928D01*
X5666738Y149962166D01*
X5761976Y150009785D01*
X5952452Y150009785D01*
X6047690Y149962166D01*
X5619119Y149390738D02*
X5714357Y149343119D01*
X5952452Y149343119D01*
X6047690Y149390738D01*
X6095309Y149485976D01*
X6095309Y149581214D01*
X6047690Y149676452D01*
X5952452Y149724071D01*
X5714357Y149724071D01*
X5619119Y149771690D01*
X4714357Y149390738D02*
X4809595Y149343119D01*
X5000071Y149343119D01*
X5095309Y149390738D01*
X5142928Y149438357D01*
X5190547Y149533595D01*
X5190547Y149819309D01*
X5142928Y149914547D01*
X5095309Y149962166D01*
X5000071Y150009785D01*
X4809595Y150009785D01*
X4714357Y149962166D01*
X4285785Y149343119D02*
X4285785Y150343119D01*
X4190547Y149724071D02*
X3904833Y149343119D01*
X3904833Y150009785D02*
X4285785Y149628833D01*
X3571500Y150009785D02*
X3333404Y149343119D01*
X3095309Y150009785D02*
X3333404Y149343119D01*
X3428642Y149105023D01*
X3476261Y149057404D01*
X3571500Y149009785D01*
X2666738Y149390738D02*
X2666738Y149343119D01*
X2714357Y149247880D01*
X2761976Y149200261D01*
X1476261Y149866928D02*
X1142928Y149866928D01*
X1000071Y149343119D02*
X1476261Y149343119D01*
X1476261Y150343119D01*
X1000071Y150343119D01*
X666738Y150009785D02*
X428642Y149343119D01*
X190547Y150009785D01*
X-618976Y149343119D02*
X-618976Y149866928D01*
X-571357Y149962166D01*
X-476119Y150009785D01*
X-285642Y150009785D01*
X-190404Y149962166D01*
X-618976Y149390738D02*
X-523738Y149343119D01*
X-285642Y149343119D01*
X-190404Y149390738D01*
X-142785Y149485976D01*
X-142785Y149581214D01*
X-190404Y149676452D01*
X-285642Y149724071D01*
X-523738Y149724071D01*
X-618976Y149771690D01*
X-1095166Y150009785D02*
X-1095166Y149343119D01*
X-1095166Y149914547D02*
X-1142785Y149962166D01*
X-1238023Y150009785D01*
X-1380880Y150009785D01*
X-1476119Y149962166D01*
X-1523738Y149866928D01*
X-1523738Y149343119D01*
X-2047547Y149390738D02*
X-2047547Y149343119D01*
X-1999928Y149247880D01*
X-1952309Y149200261D01*
X-3238023Y149343119D02*
X-3238023Y150343119D01*
X-3238023Y149866928D02*
X-3809452Y149866928D01*
X-3809452Y149343119D02*
X-3809452Y150343119D01*
X-4666595Y149390738D02*
X-4571357Y149343119D01*
X-4380880Y149343119D01*
X-4285642Y149390738D01*
X-4238023Y149485976D01*
X-4238023Y149866928D01*
X-4285642Y149962166D01*
X-4380880Y150009785D01*
X-4571357Y150009785D01*
X-4666595Y149962166D01*
X-4714214Y149866928D01*
X-4714214Y149771690D01*
X-4238023Y149676452D01*
X-5142785Y150009785D02*
X-5142785Y149343119D01*
X-5142785Y149914547D02*
X-5190404Y149962166D01*
X-5285642Y150009785D01*
X-5428499Y150009785D01*
X-5523738Y149962166D01*
X-5571357Y149866928D01*
X-5571357Y149343119D01*
X-6047547Y149343119D02*
X-6047547Y150009785D01*
X-6047547Y149819309D02*
X-6095166Y149914547D01*
X-6142785Y149962166D01*
X-6238023Y150009785D01*
X-6333261Y150009785D01*
X-6571357Y150009785D02*
X-6809452Y149343119D01*
X-7047547Y150009785D02*
X-6809452Y149343119D01*
X-6714214Y149105023D01*
X-6666595Y149057404D01*
X-6571357Y149009785D01*
X19809595Y148693119D02*
X19476261Y147693119D01*
X19142928Y148693119D01*
X18428642Y147740738D02*
X18523880Y147693119D01*
X18714357Y147693119D01*
X18809595Y147740738D01*
X18857214Y147835976D01*
X18857214Y148216928D01*
X18809595Y148312166D01*
X18714357Y148359785D01*
X18523880Y148359785D01*
X18428642Y148312166D01*
X18381023Y148216928D01*
X18381023Y148121690D01*
X18857214Y148026452D01*
X17952452Y147693119D02*
X17952452Y148359785D01*
X17952452Y148169309D02*
X17904833Y148264547D01*
X17857214Y148312166D01*
X17761976Y148359785D01*
X17666738Y148359785D01*
X17381023Y147740738D02*
X17285785Y147693119D01*
X17095309Y147693119D01*
X17000071Y147740738D01*
X16952452Y147835976D01*
X16952452Y147883595D01*
X17000071Y147978833D01*
X17095309Y148026452D01*
X17238166Y148026452D01*
X17333404Y148074071D01*
X17381023Y148169309D01*
X17381023Y148216928D01*
X17333404Y148312166D01*
X17238166Y148359785D01*
X17095309Y148359785D01*
X17000071Y148312166D01*
X16523880Y147693119D02*
X16523880Y148359785D01*
X16523880Y148693119D02*
X16571499Y148645500D01*
X16523880Y148597880D01*
X16476261Y148645500D01*
X16523880Y148693119D01*
X16523880Y148597880D01*
X15904833Y147693119D02*
X16000071Y147740738D01*
X16047690Y147788357D01*
X16095309Y147883595D01*
X16095309Y148169309D01*
X16047690Y148264547D01*
X16000071Y148312166D01*
X15904833Y148359785D01*
X15761976Y148359785D01*
X15666738Y148312166D01*
X15619119Y148264547D01*
X15571499Y148169309D01*
X15571499Y147883595D01*
X15619119Y147788357D01*
X15666738Y147740738D01*
X15761976Y147693119D01*
X15904833Y147693119D01*
X15142928Y148359785D02*
X15142928Y147693119D01*
X15142928Y148264547D02*
X15095309Y148312166D01*
X15000071Y148359785D01*
X14857214Y148359785D01*
X14761976Y148312166D01*
X14714357Y148216928D01*
X14714357Y147693119D01*
X13523880Y148597880D02*
X13476261Y148645500D01*
X13381023Y148693119D01*
X13142928Y148693119D01*
X13047690Y148645500D01*
X13000071Y148597880D01*
X12952452Y148502642D01*
X12952452Y148407404D01*
X13000071Y148264547D01*
X13571500Y147693119D01*
X12952452Y147693119D01*
X11857214Y148359785D02*
X11666738Y147693119D01*
X11476261Y148169309D01*
X11285785Y147693119D01*
X11095309Y148359785D01*
X10714357Y147693119D02*
X10714357Y148359785D01*
X10714357Y148693119D02*
X10761976Y148645500D01*
X10714357Y148597880D01*
X10666738Y148645500D01*
X10714357Y148693119D01*
X10714357Y148597880D01*
X10381023Y148359785D02*
X10000071Y148359785D01*
X10238166Y148693119D02*
X10238166Y147835976D01*
X10190547Y147740738D01*
X10095309Y147693119D01*
X10000071Y147693119D01*
X9666738Y147693119D02*
X9666738Y148693119D01*
X9238166Y147693119D02*
X9238166Y148216928D01*
X9285785Y148312166D01*
X9381023Y148359785D01*
X9523880Y148359785D01*
X9619119Y148312166D01*
X9666738Y148264547D01*
X8000071Y147693119D02*
X8000071Y148693119D01*
X7619119Y148693119D01*
X7523880Y148645500D01*
X7476261Y148597880D01*
X7428642Y148502642D01*
X7428642Y148359785D01*
X7476261Y148264547D01*
X7523880Y148216928D01*
X7619119Y148169309D01*
X8000071Y148169309D01*
X6571500Y147693119D02*
X6571500Y148216928D01*
X6619119Y148312166D01*
X6714357Y148359785D01*
X6904833Y148359785D01*
X7000071Y148312166D01*
X6571500Y147740738D02*
X6666738Y147693119D01*
X6904833Y147693119D01*
X7000071Y147740738D01*
X7047690Y147835976D01*
X7047690Y147931214D01*
X7000071Y148026452D01*
X6904833Y148074071D01*
X6666738Y148074071D01*
X6571500Y148121690D01*
X5666738Y147693119D02*
X5666738Y148693119D01*
X5666738Y147740738D02*
X5761976Y147693119D01*
X5952452Y147693119D01*
X6047690Y147740738D01*
X6095309Y147788357D01*
X6142928Y147883595D01*
X6142928Y148169309D01*
X6095309Y148264547D01*
X6047690Y148312166D01*
X5952452Y148359785D01*
X5761976Y148359785D01*
X5666738Y148312166D01*
X4428642Y148074071D02*
X3666738Y148074071D01*
X1904833Y148645500D02*
X2000071Y148693119D01*
X2142928Y148693119D01*
X2285785Y148645500D01*
X2381023Y148550261D01*
X2428642Y148455023D01*
X2476261Y148264547D01*
X2476261Y148121690D01*
X2428642Y147931214D01*
X2381023Y147835976D01*
X2285785Y147740738D01*
X2142928Y147693119D01*
X2047690Y147693119D01*
X1904833Y147740738D01*
X1857214Y147788357D01*
X1857214Y148121690D01*
X2047690Y148121690D01*
X1428642Y147693119D02*
X1428642Y148693119D01*
X857214Y147693119D01*
X857214Y148693119D01*
X381023Y147693119D02*
X381023Y148693119D01*
X142928Y148693119D01*
X71Y148645500D01*
X-95166Y148550261D01*
X-142785Y148455023D01*
X-190404Y148264547D01*
X-190404Y148121690D01*
X-142785Y147931214D01*
X-95166Y147835976D01*
X71Y147740738D01*
X142928Y147693119D01*
X381023Y147693119D01*
X-1380880Y148074071D02*
X-2142785Y148074071D01*
X-3904690Y148645500D02*
X-3809452Y148693119D01*
X-3666595Y148693119D01*
X-3523738Y148645500D01*
X-3428499Y148550261D01*
X-3380880Y148455023D01*
X-3333261Y148264547D01*
X-3333261Y148121690D01*
X-3380880Y147931214D01*
X-3428499Y147835976D01*
X-3523738Y147740738D01*
X-3666595Y147693119D01*
X-3761833Y147693119D01*
X-3904690Y147740738D01*
X-3952309Y147788357D01*
X-3952309Y148121690D01*
X-3761833Y148121690D01*
X-4380880Y147693119D02*
X-4380880Y148693119D01*
X-4952309Y147693119D01*
X-4952309Y148693119D01*
X-5428499Y147693119D02*
X-5428499Y148693119D01*
X-5666595Y148693119D01*
X-5809452Y148645500D01*
X-5904690Y148550261D01*
X-5952309Y148455023D01*
X-5999928Y148264547D01*
X-5999928Y148121690D01*
X-5952309Y147931214D01*
X-5904690Y147835976D01*
X-5809452Y147740738D01*
X-5666595Y147693119D01*
X-5428499Y147693119D01*
X-7190404Y148074071D02*
X-7952309Y148074071D01*
X-9714214Y148645500D02*
X-9618976Y148693119D01*
X-9476119Y148693119D01*
X-9333261Y148645500D01*
X-9238023Y148550261D01*
X-9190404Y148455023D01*
X-9142785Y148264547D01*
X-9142785Y148121690D01*
X-9190404Y147931214D01*
X-9238023Y147835976D01*
X-9333261Y147740738D01*
X-9476119Y147693119D01*
X-9571357Y147693119D01*
X-9714214Y147740738D01*
X-9761833Y147788357D01*
X-9761833Y148121690D01*
X-9571357Y148121690D01*
X-10190404Y147693119D02*
X-10190404Y148693119D01*
X-10761833Y147693119D01*
X-10761833Y148693119D01*
X-11238023Y147693119D02*
X-11238023Y148693119D01*
X-11476119Y148693119D01*
X-11618976Y148645500D01*
X-11714214Y148550261D01*
X-11761833Y148455023D01*
X-11809452Y148264547D01*
X-11809452Y148121690D01*
X-11761833Y147931214D01*
X-11714214Y147835976D01*
X-11618976Y147740738D01*
X-11476119Y147693119D01*
X-11238023Y147693119D01*
X-12999928Y148074071D02*
X-13761833Y148074071D01*
X-14857071Y148693119D02*
X-15428499Y148693119D01*
X-15142785Y147693119D02*
X-15142785Y148693119D01*
X-15761833Y147693119D02*
X-15761833Y148359785D01*
X-15761833Y148169309D02*
X-15809452Y148264547D01*
X-15857071Y148312166D01*
X-15952309Y148359785D01*
X-16047547Y148359785D01*
X-16809452Y147693119D02*
X-16809452Y148216928D01*
X-16761833Y148312166D01*
X-16666595Y148359785D01*
X-16476119Y148359785D01*
X-16380880Y148312166D01*
X-16809452Y147740738D02*
X-16714214Y147693119D01*
X-16476119Y147693119D01*
X-16380880Y147740738D01*
X-16333261Y147835976D01*
X-16333261Y147931214D01*
X-16380880Y148026452D01*
X-16476119Y148074071D01*
X-16714214Y148074071D01*
X-16809452Y148121690D01*
X-17714214Y147740738D02*
X-17618976Y147693119D01*
X-17428499Y147693119D01*
X-17333261Y147740738D01*
X-17285642Y147788357D01*
X-17238023Y147883595D01*
X-17238023Y148169309D01*
X-17285642Y148264547D01*
X-17333261Y148312166D01*
X-17428499Y148359785D01*
X-17618976Y148359785D01*
X-17714214Y148312166D01*
X-18523738Y147740738D02*
X-18428499Y147693119D01*
X-18238023Y147693119D01*
X-18142785Y147740738D01*
X-18095166Y147835976D01*
X-18095166Y148216928D01*
X-18142785Y148312166D01*
X-18238023Y148359785D01*
X-18428499Y148359785D01*
X-18523738Y148312166D01*
X-18571357Y148216928D01*
X-18571357Y148121690D01*
X-18095166Y148026452D01*
X17166738Y147043119D02*
X17166738Y146852642D01*
X16785785Y147043119D02*
X16785785Y146852642D01*
X16357214Y146043119D02*
X16357214Y147043119D01*
X16023880Y146709785D02*
X15642928Y146709785D01*
X15881023Y147043119D02*
X15881023Y146185976D01*
X15833404Y146090738D01*
X15738166Y146043119D01*
X15642928Y146043119D01*
X14642928Y146709785D02*
X14452452Y146043119D01*
X14261976Y146519309D01*
X14071500Y146043119D01*
X13881023Y146709785D01*
X13357214Y146043119D02*
X13452452Y146090738D01*
X13500071Y146138357D01*
X13547690Y146233595D01*
X13547690Y146519309D01*
X13500071Y146614547D01*
X13452452Y146662166D01*
X13357214Y146709785D01*
X13214357Y146709785D01*
X13119119Y146662166D01*
X13071499Y146614547D01*
X13023880Y146519309D01*
X13023880Y146233595D01*
X13071499Y146138357D01*
X13119119Y146090738D01*
X13214357Y146043119D01*
X13357214Y146043119D01*
X12595309Y146043119D02*
X12595309Y146709785D01*
X12595309Y146519309D02*
X12547690Y146614547D01*
X12500071Y146662166D01*
X12404833Y146709785D01*
X12309595Y146709785D01*
X11976261Y146043119D02*
X11976261Y147043119D01*
X11881023Y146424071D02*
X11595309Y146043119D01*
X11595309Y146709785D02*
X11976261Y146328833D01*
X11214357Y146090738D02*
X11119119Y146043119D01*
X10928642Y146043119D01*
X10833404Y146090738D01*
X10785785Y146185976D01*
X10785785Y146233595D01*
X10833404Y146328833D01*
X10928642Y146376452D01*
X11071500Y146376452D01*
X11166738Y146424071D01*
X11214357Y146519309D01*
X11214357Y146566928D01*
X11166738Y146662166D01*
X11071500Y146709785D01*
X10928642Y146709785D01*
X10833404Y146662166D01*
X9595309Y146043119D02*
X9595309Y146709785D01*
X9595309Y147043119D02*
X9642928Y146995500D01*
X9595309Y146947880D01*
X9547690Y146995500D01*
X9595309Y147043119D01*
X9595309Y146947880D01*
X9119119Y146709785D02*
X9119119Y146043119D01*
X9119119Y146614547D02*
X9071499Y146662166D01*
X8976261Y146709785D01*
X8833404Y146709785D01*
X8738166Y146662166D01*
X8690547Y146566928D01*
X8690547Y146043119D01*
X7595309Y147043119D02*
X7023880Y147043119D01*
X7309595Y146043119D02*
X7309595Y147043119D01*
X6690547Y146043119D02*
X6690547Y147043119D01*
X6261976Y146043119D02*
X6261976Y146566928D01*
X6309595Y146662166D01*
X6404833Y146709785D01*
X6547690Y146709785D01*
X6642928Y146662166D01*
X6690547Y146614547D01*
X5404833Y146090738D02*
X5500071Y146043119D01*
X5690547Y146043119D01*
X5785785Y146090738D01*
X5833404Y146185976D01*
X5833404Y146566928D01*
X5785785Y146662166D01*
X5690547Y146709785D01*
X5500071Y146709785D01*
X5404833Y146662166D01*
X5357214Y146566928D01*
X5357214Y146471690D01*
X5833404Y146376452D01*
X4785785Y146043119D02*
X4881023Y146090738D01*
X4928642Y146138357D01*
X4976261Y146233595D01*
X4976261Y146519309D01*
X4928642Y146614547D01*
X4881023Y146662166D01*
X4785785Y146709785D01*
X4642928Y146709785D01*
X4547690Y146662166D01*
X4500071Y146614547D01*
X4452452Y146519309D01*
X4452452Y146233595D01*
X4500071Y146138357D01*
X4547690Y146090738D01*
X4642928Y146043119D01*
X4785785Y146043119D01*
X4023880Y146043119D02*
X4023880Y146709785D01*
X4023880Y146519309D02*
X3976261Y146614547D01*
X3928642Y146662166D01*
X3833404Y146709785D01*
X3738166Y146709785D01*
X3500071Y146709785D02*
X3261976Y146043119D01*
X3023880Y146709785D02*
X3261976Y146043119D01*
X3357214Y145805023D01*
X3404833Y145757404D01*
X3500071Y145709785D01*
X2595309Y146090738D02*
X2595309Y146043119D01*
X2642928Y145947880D01*
X2690547Y145900261D01*
X1404833Y146709785D02*
X1404833Y146043119D01*
X1404833Y146614547D02*
X1357214Y146662166D01*
X1261976Y146709785D01*
X1119119Y146709785D01*
X1023880Y146662166D01*
X976261Y146566928D01*
X976261Y146043119D01*
X357214Y146043119D02*
X452452Y146090738D01*
X500071Y146138357D01*
X547690Y146233595D01*
X547690Y146519309D01*
X500071Y146614547D01*
X452452Y146662166D01*
X357214Y146709785D01*
X214357Y146709785D01*
X119119Y146662166D01*
X71500Y146614547D01*
X23880Y146519309D01*
X23880Y146233595D01*
X71500Y146138357D01*
X119119Y146090738D01*
X214357Y146043119D01*
X357214Y146043119D01*
X-309452Y146709785D02*
X-499928Y146043119D01*
X-690404Y146519309D01*
X-880880Y146043119D01*
X-1071357Y146709785D01*
X-2071357Y146709785D02*
X-2452309Y146709785D01*
X-2214214Y147043119D02*
X-2214214Y146185976D01*
X-2261833Y146090738D01*
X-2357071Y146043119D01*
X-2452309Y146043119D01*
X-2785642Y146043119D02*
X-2785642Y146709785D01*
X-2785642Y147043119D02*
X-2738023Y146995500D01*
X-2785642Y146947880D01*
X-2833261Y146995500D01*
X-2785642Y147043119D01*
X-2785642Y146947880D01*
X-3261833Y146043119D02*
X-3261833Y146709785D01*
X-3261833Y146614547D02*
X-3309452Y146662166D01*
X-3404690Y146709785D01*
X-3547547Y146709785D01*
X-3642785Y146662166D01*
X-3690404Y146566928D01*
X-3690404Y146043119D01*
X-3690404Y146566928D02*
X-3738023Y146662166D01*
X-3833261Y146709785D01*
X-3976119Y146709785D01*
X-4071357Y146662166D01*
X-4118976Y146566928D01*
X-4118976Y146043119D01*
X-4976119Y146090738D02*
X-4880880Y146043119D01*
X-4690404Y146043119D01*
X-4595166Y146090738D01*
X-4547547Y146185976D01*
X-4547547Y146566928D01*
X-4595166Y146662166D01*
X-4690404Y146709785D01*
X-4880880Y146709785D01*
X-4976119Y146662166D01*
X-5023738Y146566928D01*
X-5023738Y146471690D01*
X-4547547Y146376452D01*
X-6071357Y146709785D02*
X-6452309Y146709785D01*
X-6214214Y146043119D02*
X-6214214Y146900261D01*
X-6261833Y146995500D01*
X-6357071Y147043119D01*
X-6452309Y147043119D01*
X-6928499Y146043119D02*
X-6833261Y146090738D01*
X-6785642Y146138357D01*
X-6738023Y146233595D01*
X-6738023Y146519309D01*
X-6785642Y146614547D01*
X-6833261Y146662166D01*
X-6928499Y146709785D01*
X-7071357Y146709785D01*
X-7166595Y146662166D01*
X-7214214Y146614547D01*
X-7261833Y146519309D01*
X-7261833Y146233595D01*
X-7214214Y146138357D01*
X-7166595Y146090738D01*
X-7071357Y146043119D01*
X-6928499Y146043119D01*
X-7690404Y146043119D02*
X-7690404Y146709785D01*
X-7690404Y146519309D02*
X-7738023Y146614547D01*
X-7785642Y146662166D01*
X-7880880Y146709785D01*
X-7976119Y146709785D01*
X-9071357Y146043119D02*
X-9071357Y147043119D01*
X-9452309Y147043119D01*
X-9547547Y146995500D01*
X-9595166Y146947880D01*
X-9642785Y146852642D01*
X-9642785Y146709785D01*
X-9595166Y146614547D01*
X-9547547Y146566928D01*
X-9452309Y146519309D01*
X-9071357Y146519309D01*
X-10071357Y146043119D02*
X-10071357Y146709785D01*
X-10071357Y146519309D02*
X-10118976Y146614547D01*
X-10166595Y146662166D01*
X-10261833Y146709785D01*
X-10357071Y146709785D01*
X-11118976Y146043119D02*
X-11118976Y146566928D01*
X-11071357Y146662166D01*
X-10976119Y146709785D01*
X-10785642Y146709785D01*
X-10690404Y146662166D01*
X-11118976Y146090738D02*
X-11023738Y146043119D01*
X-10785642Y146043119D01*
X-10690404Y146090738D01*
X-10642785Y146185976D01*
X-10642785Y146281214D01*
X-10690404Y146376452D01*
X-10785642Y146424071D01*
X-11023738Y146424071D01*
X-11118976Y146471690D01*
X-12023738Y146090738D02*
X-11928499Y146043119D01*
X-11738023Y146043119D01*
X-11642785Y146090738D01*
X-11595166Y146138357D01*
X-11547547Y146233595D01*
X-11547547Y146519309D01*
X-11595166Y146614547D01*
X-11642785Y146662166D01*
X-11738023Y146709785D01*
X-11928499Y146709785D01*
X-12023738Y146662166D01*
X-12309452Y146709785D02*
X-12690404Y146709785D01*
X-12452309Y147043119D02*
X-12452309Y146185976D01*
X-12499928Y146090738D01*
X-12595166Y146043119D01*
X-12690404Y146043119D01*
X-13023738Y146043119D02*
X-13023738Y146709785D01*
X-13023738Y147043119D02*
X-12976119Y146995500D01*
X-13023738Y146947880D01*
X-13071357Y146995500D01*
X-13023738Y147043119D01*
X-13023738Y146947880D01*
X-13928499Y146090738D02*
X-13833261Y146043119D01*
X-13642785Y146043119D01*
X-13547547Y146090738D01*
X-13499928Y146138357D01*
X-13452309Y146233595D01*
X-13452309Y146519309D01*
X-13499928Y146614547D01*
X-13547547Y146662166D01*
X-13642785Y146709785D01*
X-13833261Y146709785D01*
X-13928499Y146662166D01*
X-14738023Y146090738D02*
X-14642785Y146043119D01*
X-14452309Y146043119D01*
X-14357071Y146090738D01*
X-14309452Y146185976D01*
X-14309452Y146566928D01*
X-14357071Y146662166D01*
X-14452309Y146709785D01*
X-14642785Y146709785D01*
X-14738023Y146662166D01*
X-14785642Y146566928D01*
X-14785642Y146471690D01*
X-14309452Y146376452D01*
X-15214214Y146138357D02*
X-15261833Y146090738D01*
X-15214214Y146043119D01*
X-15166595Y146090738D01*
X-15214214Y146138357D01*
X-15214214Y146043119D01*
X-15642785Y147043119D02*
X-15642785Y146852642D01*
X-16023738Y147043119D02*
X-16023738Y146852642D01*
M02*
