G04 #@! TF.GenerationSoftware,KiCad,Pcbnew,(5.1.6)-1*
G04 #@! TF.CreationDate,2022-05-04T19:11:15-05:00*
G04 #@! TF.ProjectId,stripline_anode,73747269-706c-4696-9e65-5f616e6f6465,1a*
G04 #@! TF.SameCoordinates,Original*
G04 #@! TF.FileFunction,Copper,L3,Inr*
G04 #@! TF.FilePolarity,Positive*
%FSLAX46Y46*%
G04 Gerber Fmt 4.6, Leading zero omitted, Abs format (unit mm)*
G04 Created by KiCad (PCBNEW (5.1.6)-1) date 2022-05-04 19:11:15*
%MOMM*%
%LPD*%
G01*
G04 APERTURE LIST*
G04 #@! TA.AperFunction,ViaPad*
%ADD10C,0.800000*%
G04 #@! TD*
G04 #@! TA.AperFunction,Conductor*
%ADD11C,0.025400*%
G04 #@! TD*
G04 APERTURE END LIST*
D10*
X-103958000Y-121031000D03*
X-101926000Y-121031000D03*
X-99894000Y-121031000D03*
X-97862000Y-121031000D03*
X-95830000Y-121031000D03*
X-93798000Y-121031000D03*
X-91766000Y-121031000D03*
X-89734000Y-121031000D03*
X-87702000Y-121031000D03*
X-85670000Y-121031000D03*
X-83638000Y-121031000D03*
X-81606000Y-121031000D03*
X-79574000Y-121031000D03*
X-77542000Y-121031000D03*
X-75510000Y-121031000D03*
X-73478000Y-121031000D03*
X-71446000Y-121031000D03*
X-69414000Y-121031000D03*
X-67382000Y-121031000D03*
X-65350000Y-121031000D03*
X-63318000Y-121031000D03*
X-61286000Y-121031000D03*
X-59254000Y-121031000D03*
X-57222000Y-121031000D03*
X-55190000Y-121031000D03*
X-24710000Y-121031000D03*
X-20646000Y-121031000D03*
X-10486000Y-121031000D03*
X-6422000Y-121031000D03*
X-42998000Y-121031000D03*
X-34870000Y-121031000D03*
X-18614000Y-121031000D03*
X-8454000Y-121031000D03*
X-28774000Y-121031000D03*
X-14550000Y-121031000D03*
X-32838000Y-121031000D03*
X-22678000Y-121031000D03*
X-40966000Y-121031000D03*
X-47062000Y-121031000D03*
X-4390000Y-121031000D03*
X-51126000Y-121031000D03*
X-45030000Y-121031000D03*
X-12518000Y-121031000D03*
X-16582000Y-121031000D03*
X-36902000Y-121031000D03*
X-30806000Y-121031000D03*
X-26742000Y-121031000D03*
X-38934000Y-121031000D03*
X-49094000Y-121031000D03*
X-53158000Y-121031000D03*
X26090000Y-121031000D03*
X30154000Y-121031000D03*
X40314000Y-121031000D03*
X44378000Y-121031000D03*
X7802000Y-121031000D03*
X15930000Y-121031000D03*
X32186000Y-121031000D03*
X42346000Y-121031000D03*
X22026000Y-121031000D03*
X36250000Y-121031000D03*
X17962000Y-121031000D03*
X28122000Y-121031000D03*
X9834000Y-121031000D03*
X3738000Y-121031000D03*
X46410000Y-121031000D03*
X-326000Y-121031000D03*
X5770000Y-121031000D03*
X38282000Y-121031000D03*
X34218000Y-121031000D03*
X13898000Y-121031000D03*
X19994000Y-121031000D03*
X24058000Y-121031000D03*
X11866000Y-121031000D03*
X1706000Y-121031000D03*
X-2358000Y-121031000D03*
X76890000Y-121031000D03*
X80954000Y-121031000D03*
X91114000Y-121031000D03*
X95178000Y-121031000D03*
X58602000Y-121031000D03*
X66730000Y-121031000D03*
X82986000Y-121031000D03*
X93146000Y-121031000D03*
X72826000Y-121031000D03*
X87050000Y-121031000D03*
X68762000Y-121031000D03*
X78922000Y-121031000D03*
X60634000Y-121031000D03*
X54538000Y-121031000D03*
X97210000Y-121031000D03*
X50474000Y-121031000D03*
X56570000Y-121031000D03*
X89082000Y-121031000D03*
X85018000Y-121031000D03*
X64698000Y-121031000D03*
X70794000Y-121031000D03*
X74858000Y-121031000D03*
X62666000Y-121031000D03*
X52506000Y-121031000D03*
X48442000Y-121031000D03*
X99242000Y-121031000D03*
X101274000Y-121031000D03*
X103306000Y-121031000D03*
X-14042000Y109093000D03*
X-20646000Y109093000D03*
X-27758000Y109093000D03*
X-34362000Y109093000D03*
X-41474000Y109093000D03*
X-48078000Y109093000D03*
X-55698000Y109093000D03*
X-62302000Y109093000D03*
X-69414000Y109093000D03*
X-76018000Y109093000D03*
X-96846000Y109093000D03*
X-326000Y109093000D03*
X6786000Y109093000D03*
X13390000Y109093000D03*
X21010000Y109093000D03*
X27614000Y109093000D03*
X34726000Y109093000D03*
X41330000Y109093000D03*
X48442000Y109093000D03*
X55046000Y109093000D03*
X62158000Y109093000D03*
X76382000Y109093000D03*
X82986000Y109093000D03*
X90098000Y109093000D03*
X96702000Y109093000D03*
X104322000Y109093000D03*
X-6930000Y109093000D03*
X-89734000Y109093000D03*
X-83130000Y109093000D03*
X19994000Y161213800D03*
X-103958000Y161213800D03*
X80954000Y161213800D03*
X78922000Y161213800D03*
X72826000Y161213800D03*
X95178000Y161213800D03*
X87050000Y161213800D03*
X1706000Y161213800D03*
X68762000Y161213800D03*
X-53158000Y161213800D03*
X-99894000Y161213800D03*
X60634000Y161213800D03*
X76890000Y161213800D03*
X58602000Y161213800D03*
X93146000Y161213800D03*
X54538000Y161213800D03*
X82986000Y161213800D03*
X-2358000Y161213800D03*
X91114000Y161213800D03*
X66730000Y161213800D03*
X-12518000Y161213800D03*
X-26742000Y161213800D03*
X24058000Y161213800D03*
X38282000Y161213800D03*
X34218000Y161213800D03*
X17962000Y161213800D03*
X11866000Y161213800D03*
X9834000Y161213800D03*
X32186000Y161213800D03*
X-51126000Y161213800D03*
X46410000Y161213800D03*
X28122000Y161213800D03*
X-326000Y161213800D03*
X3738000Y161213800D03*
X-49094000Y161213800D03*
X7802000Y161213800D03*
X30154000Y161213800D03*
X-36902000Y161213800D03*
X-30806000Y161213800D03*
X70794000Y161213800D03*
X-81606000Y161213800D03*
X-22678000Y161213800D03*
X-32838000Y161213800D03*
X-101926000Y161213800D03*
X-83638000Y161213800D03*
X50474000Y161213800D03*
X-71446000Y161213800D03*
X-8454000Y161213800D03*
X-20646000Y161213800D03*
X97210000Y161213800D03*
X-24710000Y161213800D03*
X-65350000Y161213800D03*
X-18614000Y161213800D03*
X-69414000Y161213800D03*
X48442000Y161213800D03*
X-42998000Y161213800D03*
X-10486000Y161213800D03*
X-97862000Y161213800D03*
X-61286000Y161213800D03*
X-75510000Y161213800D03*
X-95830000Y161213800D03*
X-77542000Y161213800D03*
X-67382000Y161213800D03*
X64698000Y161213800D03*
X89082000Y161213800D03*
X-87702000Y161213800D03*
X40314000Y161213800D03*
X-34870000Y161213800D03*
X36250000Y161213800D03*
X44378000Y161213800D03*
X-38934000Y161213800D03*
X-85670000Y161213800D03*
X-14550000Y161213800D03*
X13898000Y161213800D03*
X5770000Y161213800D03*
X-16582000Y161213800D03*
X-28774000Y161213800D03*
X52506000Y161213800D03*
X-73478000Y161213800D03*
X-93798000Y161213800D03*
X42346000Y161213800D03*
X103306000Y161213800D03*
X-79574000Y161213800D03*
X62666000Y161213800D03*
X-45030000Y161213800D03*
X74858000Y161213800D03*
X15930000Y161213800D03*
X-59254000Y161213800D03*
X-57222000Y161213800D03*
X-4390000Y161213800D03*
X99242000Y161213800D03*
X26090000Y161213800D03*
X22026000Y161213800D03*
X-6422000Y161213800D03*
X85018000Y161213800D03*
X56570000Y161213800D03*
X-55190000Y161213800D03*
X-91766000Y161213800D03*
X101274000Y161213800D03*
X-63318000Y161213800D03*
X-47062000Y161213800D03*
X-40966000Y161213800D03*
X-89734000Y161213800D03*
X-104466000Y109093000D03*
X68762000Y109093000D03*
X-101850000Y-117000000D03*
X-98850000Y-116990000D03*
X-91930000Y-116990000D03*
X-94930000Y-117000000D03*
X-85010000Y-116990000D03*
X-88010000Y-117000000D03*
X-81090000Y-117000000D03*
X-78090000Y-116990000D03*
X-71150000Y-117000000D03*
X-74150000Y-116990000D03*
X-67230000Y-116990000D03*
X-64230000Y-117000000D03*
X-57310000Y-117000000D03*
X-60310000Y-116990000D03*
X-50390000Y-117000000D03*
X-53390000Y-116990000D03*
X-43470000Y-117000000D03*
X-46470000Y-116990000D03*
X-39570000Y-117000000D03*
X-36550000Y-117000000D03*
X-32630000Y-116990000D03*
X-29630000Y-117000000D03*
X-25710000Y-116990000D03*
X-22710000Y-117000000D03*
X-18790000Y-116990000D03*
X-15790000Y-117000000D03*
X-8870000Y-117000000D03*
X-11870000Y-116990000D03*
X-1950000Y-117000000D03*
X-4950000Y-116990000D03*
X4950000Y-116990000D03*
X1970000Y-116990000D03*
X11890000Y-117000000D03*
X8890000Y-116990000D03*
X18810000Y-117000000D03*
X15810000Y-116990000D03*
X22710000Y-117000000D03*
X25730000Y-117000000D03*
X32650000Y-117000000D03*
X29650000Y-116990000D03*
X36570000Y-116990000D03*
X39570000Y-117000000D03*
X43490000Y-116990000D03*
X46490000Y-117000000D03*
X50410000Y-116990000D03*
X53410000Y-117000000D03*
X60330000Y-117000000D03*
X57330000Y-116990000D03*
X67250000Y-117000000D03*
X64250000Y-116990000D03*
X71170000Y-116990000D03*
X74170000Y-117000000D03*
X78090000Y-116990000D03*
X81090000Y-117000000D03*
X88010000Y-117000000D03*
X85010000Y-116990000D03*
X94930000Y-117000000D03*
X91930000Y-116990000D03*
X101830000Y-116990000D03*
X98830000Y-117000000D03*
D11*
G36*
X110921800Y-125272800D02*
G01*
X-110540800Y-125272800D01*
X-110540800Y-116889306D01*
X-102973900Y-116889306D01*
X-102973900Y-117110694D01*
X-102930709Y-117327830D01*
X-102845987Y-117532366D01*
X-102722990Y-117716444D01*
X-102566444Y-117872990D01*
X-102382366Y-117995987D01*
X-102177830Y-118080709D01*
X-101960694Y-118123900D01*
X-101739306Y-118123900D01*
X-101522170Y-118080709D01*
X-101317634Y-117995987D01*
X-101133556Y-117872990D01*
X-100977010Y-117716444D01*
X-100854013Y-117532366D01*
X-100769291Y-117327830D01*
X-100726100Y-117110694D01*
X-100726100Y-116889306D01*
X-100728089Y-116879306D01*
X-99973900Y-116879306D01*
X-99973900Y-117100694D01*
X-99930709Y-117317830D01*
X-99845987Y-117522366D01*
X-99722990Y-117706444D01*
X-99566444Y-117862990D01*
X-99382366Y-117985987D01*
X-99177830Y-118070709D01*
X-98960694Y-118113900D01*
X-98739306Y-118113900D01*
X-98522170Y-118070709D01*
X-98317634Y-117985987D01*
X-98133556Y-117862990D01*
X-97977010Y-117706444D01*
X-97854013Y-117522366D01*
X-97769291Y-117317830D01*
X-97726100Y-117100694D01*
X-97726100Y-116889306D01*
X-96053900Y-116889306D01*
X-96053900Y-117110694D01*
X-96010709Y-117327830D01*
X-95925987Y-117532366D01*
X-95802990Y-117716444D01*
X-95646444Y-117872990D01*
X-95462366Y-117995987D01*
X-95257830Y-118080709D01*
X-95040694Y-118123900D01*
X-94819306Y-118123900D01*
X-94602170Y-118080709D01*
X-94397634Y-117995987D01*
X-94213556Y-117872990D01*
X-94057010Y-117716444D01*
X-93934013Y-117532366D01*
X-93849291Y-117327830D01*
X-93806100Y-117110694D01*
X-93806100Y-116889306D01*
X-93808089Y-116879306D01*
X-93053900Y-116879306D01*
X-93053900Y-117100694D01*
X-93010709Y-117317830D01*
X-92925987Y-117522366D01*
X-92802990Y-117706444D01*
X-92646444Y-117862990D01*
X-92462366Y-117985987D01*
X-92257830Y-118070709D01*
X-92040694Y-118113900D01*
X-91819306Y-118113900D01*
X-91602170Y-118070709D01*
X-91397634Y-117985987D01*
X-91213556Y-117862990D01*
X-91057010Y-117706444D01*
X-90934013Y-117522366D01*
X-90849291Y-117317830D01*
X-90806100Y-117100694D01*
X-90806100Y-116889306D01*
X-89133900Y-116889306D01*
X-89133900Y-117110694D01*
X-89090709Y-117327830D01*
X-89005987Y-117532366D01*
X-88882990Y-117716444D01*
X-88726444Y-117872990D01*
X-88542366Y-117995987D01*
X-88337830Y-118080709D01*
X-88120694Y-118123900D01*
X-87899306Y-118123900D01*
X-87682170Y-118080709D01*
X-87477634Y-117995987D01*
X-87293556Y-117872990D01*
X-87137010Y-117716444D01*
X-87014013Y-117532366D01*
X-86929291Y-117327830D01*
X-86886100Y-117110694D01*
X-86886100Y-116889306D01*
X-86888089Y-116879306D01*
X-86133900Y-116879306D01*
X-86133900Y-117100694D01*
X-86090709Y-117317830D01*
X-86005987Y-117522366D01*
X-85882990Y-117706444D01*
X-85726444Y-117862990D01*
X-85542366Y-117985987D01*
X-85337830Y-118070709D01*
X-85120694Y-118113900D01*
X-84899306Y-118113900D01*
X-84682170Y-118070709D01*
X-84477634Y-117985987D01*
X-84293556Y-117862990D01*
X-84137010Y-117706444D01*
X-84014013Y-117522366D01*
X-83929291Y-117317830D01*
X-83886100Y-117100694D01*
X-83886100Y-116889306D01*
X-82213900Y-116889306D01*
X-82213900Y-117110694D01*
X-82170709Y-117327830D01*
X-82085987Y-117532366D01*
X-81962990Y-117716444D01*
X-81806444Y-117872990D01*
X-81622366Y-117995987D01*
X-81417830Y-118080709D01*
X-81200694Y-118123900D01*
X-80979306Y-118123900D01*
X-80762170Y-118080709D01*
X-80557634Y-117995987D01*
X-80373556Y-117872990D01*
X-80217010Y-117716444D01*
X-80094013Y-117532366D01*
X-80009291Y-117327830D01*
X-79966100Y-117110694D01*
X-79966100Y-116889306D01*
X-79968089Y-116879306D01*
X-79213900Y-116879306D01*
X-79213900Y-117100694D01*
X-79170709Y-117317830D01*
X-79085987Y-117522366D01*
X-78962990Y-117706444D01*
X-78806444Y-117862990D01*
X-78622366Y-117985987D01*
X-78417830Y-118070709D01*
X-78200694Y-118113900D01*
X-77979306Y-118113900D01*
X-77762170Y-118070709D01*
X-77557634Y-117985987D01*
X-77373556Y-117862990D01*
X-77217010Y-117706444D01*
X-77094013Y-117522366D01*
X-77009291Y-117317830D01*
X-76966100Y-117100694D01*
X-76966100Y-116879306D01*
X-75273900Y-116879306D01*
X-75273900Y-117100694D01*
X-75230709Y-117317830D01*
X-75145987Y-117522366D01*
X-75022990Y-117706444D01*
X-74866444Y-117862990D01*
X-74682366Y-117985987D01*
X-74477830Y-118070709D01*
X-74260694Y-118113900D01*
X-74039306Y-118113900D01*
X-73822170Y-118070709D01*
X-73617634Y-117985987D01*
X-73433556Y-117862990D01*
X-73277010Y-117706444D01*
X-73154013Y-117522366D01*
X-73069291Y-117317830D01*
X-73026100Y-117100694D01*
X-73026100Y-116889306D01*
X-72273900Y-116889306D01*
X-72273900Y-117110694D01*
X-72230709Y-117327830D01*
X-72145987Y-117532366D01*
X-72022990Y-117716444D01*
X-71866444Y-117872990D01*
X-71682366Y-117995987D01*
X-71477830Y-118080709D01*
X-71260694Y-118123900D01*
X-71039306Y-118123900D01*
X-70822170Y-118080709D01*
X-70617634Y-117995987D01*
X-70433556Y-117872990D01*
X-70277010Y-117716444D01*
X-70154013Y-117532366D01*
X-70069291Y-117327830D01*
X-70026100Y-117110694D01*
X-70026100Y-116889306D01*
X-70028089Y-116879306D01*
X-68353900Y-116879306D01*
X-68353900Y-117100694D01*
X-68310709Y-117317830D01*
X-68225987Y-117522366D01*
X-68102990Y-117706444D01*
X-67946444Y-117862990D01*
X-67762366Y-117985987D01*
X-67557830Y-118070709D01*
X-67340694Y-118113900D01*
X-67119306Y-118113900D01*
X-66902170Y-118070709D01*
X-66697634Y-117985987D01*
X-66513556Y-117862990D01*
X-66357010Y-117706444D01*
X-66234013Y-117522366D01*
X-66149291Y-117317830D01*
X-66106100Y-117100694D01*
X-66106100Y-116889306D01*
X-65353900Y-116889306D01*
X-65353900Y-117110694D01*
X-65310709Y-117327830D01*
X-65225987Y-117532366D01*
X-65102990Y-117716444D01*
X-64946444Y-117872990D01*
X-64762366Y-117995987D01*
X-64557830Y-118080709D01*
X-64340694Y-118123900D01*
X-64119306Y-118123900D01*
X-63902170Y-118080709D01*
X-63697634Y-117995987D01*
X-63513556Y-117872990D01*
X-63357010Y-117716444D01*
X-63234013Y-117532366D01*
X-63149291Y-117327830D01*
X-63106100Y-117110694D01*
X-63106100Y-116889306D01*
X-63108089Y-116879306D01*
X-61433900Y-116879306D01*
X-61433900Y-117100694D01*
X-61390709Y-117317830D01*
X-61305987Y-117522366D01*
X-61182990Y-117706444D01*
X-61026444Y-117862990D01*
X-60842366Y-117985987D01*
X-60637830Y-118070709D01*
X-60420694Y-118113900D01*
X-60199306Y-118113900D01*
X-59982170Y-118070709D01*
X-59777634Y-117985987D01*
X-59593556Y-117862990D01*
X-59437010Y-117706444D01*
X-59314013Y-117522366D01*
X-59229291Y-117317830D01*
X-59186100Y-117100694D01*
X-59186100Y-116889306D01*
X-58433900Y-116889306D01*
X-58433900Y-117110694D01*
X-58390709Y-117327830D01*
X-58305987Y-117532366D01*
X-58182990Y-117716444D01*
X-58026444Y-117872990D01*
X-57842366Y-117995987D01*
X-57637830Y-118080709D01*
X-57420694Y-118123900D01*
X-57199306Y-118123900D01*
X-56982170Y-118080709D01*
X-56777634Y-117995987D01*
X-56593556Y-117872990D01*
X-56437010Y-117716444D01*
X-56314013Y-117532366D01*
X-56229291Y-117327830D01*
X-56186100Y-117110694D01*
X-56186100Y-116889306D01*
X-56188089Y-116879306D01*
X-54513900Y-116879306D01*
X-54513900Y-117100694D01*
X-54470709Y-117317830D01*
X-54385987Y-117522366D01*
X-54262990Y-117706444D01*
X-54106444Y-117862990D01*
X-53922366Y-117985987D01*
X-53717830Y-118070709D01*
X-53500694Y-118113900D01*
X-53279306Y-118113900D01*
X-53062170Y-118070709D01*
X-52857634Y-117985987D01*
X-52673556Y-117862990D01*
X-52517010Y-117706444D01*
X-52394013Y-117522366D01*
X-52309291Y-117317830D01*
X-52266100Y-117100694D01*
X-52266100Y-116889306D01*
X-51513900Y-116889306D01*
X-51513900Y-117110694D01*
X-51470709Y-117327830D01*
X-51385987Y-117532366D01*
X-51262990Y-117716444D01*
X-51106444Y-117872990D01*
X-50922366Y-117995987D01*
X-50717830Y-118080709D01*
X-50500694Y-118123900D01*
X-50279306Y-118123900D01*
X-50062170Y-118080709D01*
X-49857634Y-117995987D01*
X-49673556Y-117872990D01*
X-49517010Y-117716444D01*
X-49394013Y-117532366D01*
X-49309291Y-117327830D01*
X-49266100Y-117110694D01*
X-49266100Y-116889306D01*
X-49268089Y-116879306D01*
X-47593900Y-116879306D01*
X-47593900Y-117100694D01*
X-47550709Y-117317830D01*
X-47465987Y-117522366D01*
X-47342990Y-117706444D01*
X-47186444Y-117862990D01*
X-47002366Y-117985987D01*
X-46797830Y-118070709D01*
X-46580694Y-118113900D01*
X-46359306Y-118113900D01*
X-46142170Y-118070709D01*
X-45937634Y-117985987D01*
X-45753556Y-117862990D01*
X-45597010Y-117706444D01*
X-45474013Y-117522366D01*
X-45389291Y-117317830D01*
X-45346100Y-117100694D01*
X-45346100Y-116889306D01*
X-44593900Y-116889306D01*
X-44593900Y-117110694D01*
X-44550709Y-117327830D01*
X-44465987Y-117532366D01*
X-44342990Y-117716444D01*
X-44186444Y-117872990D01*
X-44002366Y-117995987D01*
X-43797830Y-118080709D01*
X-43580694Y-118123900D01*
X-43359306Y-118123900D01*
X-43142170Y-118080709D01*
X-42937634Y-117995987D01*
X-42753556Y-117872990D01*
X-42597010Y-117716444D01*
X-42474013Y-117532366D01*
X-42389291Y-117327830D01*
X-42346100Y-117110694D01*
X-42346100Y-116889306D01*
X-40693900Y-116889306D01*
X-40693900Y-117110694D01*
X-40650709Y-117327830D01*
X-40565987Y-117532366D01*
X-40442990Y-117716444D01*
X-40286444Y-117872990D01*
X-40102366Y-117995987D01*
X-39897830Y-118080709D01*
X-39680694Y-118123900D01*
X-39459306Y-118123900D01*
X-39242170Y-118080709D01*
X-39037634Y-117995987D01*
X-38853556Y-117872990D01*
X-38697010Y-117716444D01*
X-38574013Y-117532366D01*
X-38489291Y-117327830D01*
X-38446100Y-117110694D01*
X-38446100Y-116889306D01*
X-37673900Y-116889306D01*
X-37673900Y-117110694D01*
X-37630709Y-117327830D01*
X-37545987Y-117532366D01*
X-37422990Y-117716444D01*
X-37266444Y-117872990D01*
X-37082366Y-117995987D01*
X-36877830Y-118080709D01*
X-36660694Y-118123900D01*
X-36439306Y-118123900D01*
X-36222170Y-118080709D01*
X-36017634Y-117995987D01*
X-35833556Y-117872990D01*
X-35677010Y-117716444D01*
X-35554013Y-117532366D01*
X-35469291Y-117327830D01*
X-35426100Y-117110694D01*
X-35426100Y-116889306D01*
X-35428089Y-116879306D01*
X-33753900Y-116879306D01*
X-33753900Y-117100694D01*
X-33710709Y-117317830D01*
X-33625987Y-117522366D01*
X-33502990Y-117706444D01*
X-33346444Y-117862990D01*
X-33162366Y-117985987D01*
X-32957830Y-118070709D01*
X-32740694Y-118113900D01*
X-32519306Y-118113900D01*
X-32302170Y-118070709D01*
X-32097634Y-117985987D01*
X-31913556Y-117862990D01*
X-31757010Y-117706444D01*
X-31634013Y-117522366D01*
X-31549291Y-117317830D01*
X-31506100Y-117100694D01*
X-31506100Y-116889306D01*
X-30753900Y-116889306D01*
X-30753900Y-117110694D01*
X-30710709Y-117327830D01*
X-30625987Y-117532366D01*
X-30502990Y-117716444D01*
X-30346444Y-117872990D01*
X-30162366Y-117995987D01*
X-29957830Y-118080709D01*
X-29740694Y-118123900D01*
X-29519306Y-118123900D01*
X-29302170Y-118080709D01*
X-29097634Y-117995987D01*
X-28913556Y-117872990D01*
X-28757010Y-117716444D01*
X-28634013Y-117532366D01*
X-28549291Y-117327830D01*
X-28506100Y-117110694D01*
X-28506100Y-116889306D01*
X-28508089Y-116879306D01*
X-26833900Y-116879306D01*
X-26833900Y-117100694D01*
X-26790709Y-117317830D01*
X-26705987Y-117522366D01*
X-26582990Y-117706444D01*
X-26426444Y-117862990D01*
X-26242366Y-117985987D01*
X-26037830Y-118070709D01*
X-25820694Y-118113900D01*
X-25599306Y-118113900D01*
X-25382170Y-118070709D01*
X-25177634Y-117985987D01*
X-24993556Y-117862990D01*
X-24837010Y-117706444D01*
X-24714013Y-117522366D01*
X-24629291Y-117317830D01*
X-24586100Y-117100694D01*
X-24586100Y-116889306D01*
X-23833900Y-116889306D01*
X-23833900Y-117110694D01*
X-23790709Y-117327830D01*
X-23705987Y-117532366D01*
X-23582990Y-117716444D01*
X-23426444Y-117872990D01*
X-23242366Y-117995987D01*
X-23037830Y-118080709D01*
X-22820694Y-118123900D01*
X-22599306Y-118123900D01*
X-22382170Y-118080709D01*
X-22177634Y-117995987D01*
X-21993556Y-117872990D01*
X-21837010Y-117716444D01*
X-21714013Y-117532366D01*
X-21629291Y-117327830D01*
X-21586100Y-117110694D01*
X-21586100Y-116889306D01*
X-21588089Y-116879306D01*
X-19913900Y-116879306D01*
X-19913900Y-117100694D01*
X-19870709Y-117317830D01*
X-19785987Y-117522366D01*
X-19662990Y-117706444D01*
X-19506444Y-117862990D01*
X-19322366Y-117985987D01*
X-19117830Y-118070709D01*
X-18900694Y-118113900D01*
X-18679306Y-118113900D01*
X-18462170Y-118070709D01*
X-18257634Y-117985987D01*
X-18073556Y-117862990D01*
X-17917010Y-117706444D01*
X-17794013Y-117522366D01*
X-17709291Y-117317830D01*
X-17666100Y-117100694D01*
X-17666100Y-116889306D01*
X-16913900Y-116889306D01*
X-16913900Y-117110694D01*
X-16870709Y-117327830D01*
X-16785987Y-117532366D01*
X-16662990Y-117716444D01*
X-16506444Y-117872990D01*
X-16322366Y-117995987D01*
X-16117830Y-118080709D01*
X-15900694Y-118123900D01*
X-15679306Y-118123900D01*
X-15462170Y-118080709D01*
X-15257634Y-117995987D01*
X-15073556Y-117872990D01*
X-14917010Y-117716444D01*
X-14794013Y-117532366D01*
X-14709291Y-117327830D01*
X-14666100Y-117110694D01*
X-14666100Y-116889306D01*
X-14668089Y-116879306D01*
X-12993900Y-116879306D01*
X-12993900Y-117100694D01*
X-12950709Y-117317830D01*
X-12865987Y-117522366D01*
X-12742990Y-117706444D01*
X-12586444Y-117862990D01*
X-12402366Y-117985987D01*
X-12197830Y-118070709D01*
X-11980694Y-118113900D01*
X-11759306Y-118113900D01*
X-11542170Y-118070709D01*
X-11337634Y-117985987D01*
X-11153556Y-117862990D01*
X-10997010Y-117706444D01*
X-10874013Y-117522366D01*
X-10789291Y-117317830D01*
X-10746100Y-117100694D01*
X-10746100Y-116889306D01*
X-9993900Y-116889306D01*
X-9993900Y-117110694D01*
X-9950709Y-117327830D01*
X-9865987Y-117532366D01*
X-9742990Y-117716444D01*
X-9586444Y-117872990D01*
X-9402366Y-117995987D01*
X-9197830Y-118080709D01*
X-8980694Y-118123900D01*
X-8759306Y-118123900D01*
X-8542170Y-118080709D01*
X-8337634Y-117995987D01*
X-8153556Y-117872990D01*
X-7997010Y-117716444D01*
X-7874013Y-117532366D01*
X-7789291Y-117327830D01*
X-7746100Y-117110694D01*
X-7746100Y-116889306D01*
X-7748089Y-116879306D01*
X-6073900Y-116879306D01*
X-6073900Y-117100694D01*
X-6030709Y-117317830D01*
X-5945987Y-117522366D01*
X-5822990Y-117706444D01*
X-5666444Y-117862990D01*
X-5482366Y-117985987D01*
X-5277830Y-118070709D01*
X-5060694Y-118113900D01*
X-4839306Y-118113900D01*
X-4622170Y-118070709D01*
X-4417634Y-117985987D01*
X-4233556Y-117862990D01*
X-4077010Y-117706444D01*
X-3954013Y-117522366D01*
X-3869291Y-117317830D01*
X-3826100Y-117100694D01*
X-3826100Y-116889306D01*
X-3073900Y-116889306D01*
X-3073900Y-117110694D01*
X-3030709Y-117327830D01*
X-2945987Y-117532366D01*
X-2822990Y-117716444D01*
X-2666444Y-117872990D01*
X-2482366Y-117995987D01*
X-2277830Y-118080709D01*
X-2060694Y-118123900D01*
X-1839306Y-118123900D01*
X-1622170Y-118080709D01*
X-1417634Y-117995987D01*
X-1233556Y-117872990D01*
X-1077010Y-117716444D01*
X-954013Y-117532366D01*
X-869291Y-117327830D01*
X-826100Y-117110694D01*
X-826100Y-116889306D01*
X-828089Y-116879306D01*
X846100Y-116879306D01*
X846100Y-117100694D01*
X889291Y-117317830D01*
X974013Y-117522366D01*
X1097010Y-117706444D01*
X1253556Y-117862990D01*
X1437634Y-117985987D01*
X1642170Y-118070709D01*
X1859306Y-118113900D01*
X2080694Y-118113900D01*
X2297830Y-118070709D01*
X2502366Y-117985987D01*
X2686444Y-117862990D01*
X2842990Y-117706444D01*
X2965987Y-117522366D01*
X3050709Y-117317830D01*
X3093900Y-117100694D01*
X3093900Y-116879306D01*
X3826100Y-116879306D01*
X3826100Y-117100694D01*
X3869291Y-117317830D01*
X3954013Y-117522366D01*
X4077010Y-117706444D01*
X4233556Y-117862990D01*
X4417634Y-117985987D01*
X4622170Y-118070709D01*
X4839306Y-118113900D01*
X5060694Y-118113900D01*
X5277830Y-118070709D01*
X5482366Y-117985987D01*
X5666444Y-117862990D01*
X5822990Y-117706444D01*
X5945987Y-117522366D01*
X6030709Y-117317830D01*
X6073900Y-117100694D01*
X6073900Y-116879306D01*
X7766100Y-116879306D01*
X7766100Y-117100694D01*
X7809291Y-117317830D01*
X7894013Y-117522366D01*
X8017010Y-117706444D01*
X8173556Y-117862990D01*
X8357634Y-117985987D01*
X8562170Y-118070709D01*
X8779306Y-118113900D01*
X9000694Y-118113900D01*
X9217830Y-118070709D01*
X9422366Y-117985987D01*
X9606444Y-117862990D01*
X9762990Y-117706444D01*
X9885987Y-117522366D01*
X9970709Y-117317830D01*
X10013900Y-117100694D01*
X10013900Y-116889306D01*
X10766100Y-116889306D01*
X10766100Y-117110694D01*
X10809291Y-117327830D01*
X10894013Y-117532366D01*
X11017010Y-117716444D01*
X11173556Y-117872990D01*
X11357634Y-117995987D01*
X11562170Y-118080709D01*
X11779306Y-118123900D01*
X12000694Y-118123900D01*
X12217830Y-118080709D01*
X12422366Y-117995987D01*
X12606444Y-117872990D01*
X12762990Y-117716444D01*
X12885987Y-117532366D01*
X12970709Y-117327830D01*
X13013900Y-117110694D01*
X13013900Y-116889306D01*
X13011911Y-116879306D01*
X14686100Y-116879306D01*
X14686100Y-117100694D01*
X14729291Y-117317830D01*
X14814013Y-117522366D01*
X14937010Y-117706444D01*
X15093556Y-117862990D01*
X15277634Y-117985987D01*
X15482170Y-118070709D01*
X15699306Y-118113900D01*
X15920694Y-118113900D01*
X16137830Y-118070709D01*
X16342366Y-117985987D01*
X16526444Y-117862990D01*
X16682990Y-117706444D01*
X16805987Y-117522366D01*
X16890709Y-117317830D01*
X16933900Y-117100694D01*
X16933900Y-116889306D01*
X17686100Y-116889306D01*
X17686100Y-117110694D01*
X17729291Y-117327830D01*
X17814013Y-117532366D01*
X17937010Y-117716444D01*
X18093556Y-117872990D01*
X18277634Y-117995987D01*
X18482170Y-118080709D01*
X18699306Y-118123900D01*
X18920694Y-118123900D01*
X19137830Y-118080709D01*
X19342366Y-117995987D01*
X19526444Y-117872990D01*
X19682990Y-117716444D01*
X19805987Y-117532366D01*
X19890709Y-117327830D01*
X19933900Y-117110694D01*
X19933900Y-116889306D01*
X21586100Y-116889306D01*
X21586100Y-117110694D01*
X21629291Y-117327830D01*
X21714013Y-117532366D01*
X21837010Y-117716444D01*
X21993556Y-117872990D01*
X22177634Y-117995987D01*
X22382170Y-118080709D01*
X22599306Y-118123900D01*
X22820694Y-118123900D01*
X23037830Y-118080709D01*
X23242366Y-117995987D01*
X23426444Y-117872990D01*
X23582990Y-117716444D01*
X23705987Y-117532366D01*
X23790709Y-117327830D01*
X23833900Y-117110694D01*
X23833900Y-116889306D01*
X24606100Y-116889306D01*
X24606100Y-117110694D01*
X24649291Y-117327830D01*
X24734013Y-117532366D01*
X24857010Y-117716444D01*
X25013556Y-117872990D01*
X25197634Y-117995987D01*
X25402170Y-118080709D01*
X25619306Y-118123900D01*
X25840694Y-118123900D01*
X26057830Y-118080709D01*
X26262366Y-117995987D01*
X26446444Y-117872990D01*
X26602990Y-117716444D01*
X26725987Y-117532366D01*
X26810709Y-117327830D01*
X26853900Y-117110694D01*
X26853900Y-116889306D01*
X26851911Y-116879306D01*
X28526100Y-116879306D01*
X28526100Y-117100694D01*
X28569291Y-117317830D01*
X28654013Y-117522366D01*
X28777010Y-117706444D01*
X28933556Y-117862990D01*
X29117634Y-117985987D01*
X29322170Y-118070709D01*
X29539306Y-118113900D01*
X29760694Y-118113900D01*
X29977830Y-118070709D01*
X30182366Y-117985987D01*
X30366444Y-117862990D01*
X30522990Y-117706444D01*
X30645987Y-117522366D01*
X30730709Y-117317830D01*
X30773900Y-117100694D01*
X30773900Y-116889306D01*
X31526100Y-116889306D01*
X31526100Y-117110694D01*
X31569291Y-117327830D01*
X31654013Y-117532366D01*
X31777010Y-117716444D01*
X31933556Y-117872990D01*
X32117634Y-117995987D01*
X32322170Y-118080709D01*
X32539306Y-118123900D01*
X32760694Y-118123900D01*
X32977830Y-118080709D01*
X33182366Y-117995987D01*
X33366444Y-117872990D01*
X33522990Y-117716444D01*
X33645987Y-117532366D01*
X33730709Y-117327830D01*
X33773900Y-117110694D01*
X33773900Y-116889306D01*
X33771911Y-116879306D01*
X35446100Y-116879306D01*
X35446100Y-117100694D01*
X35489291Y-117317830D01*
X35574013Y-117522366D01*
X35697010Y-117706444D01*
X35853556Y-117862990D01*
X36037634Y-117985987D01*
X36242170Y-118070709D01*
X36459306Y-118113900D01*
X36680694Y-118113900D01*
X36897830Y-118070709D01*
X37102366Y-117985987D01*
X37286444Y-117862990D01*
X37442990Y-117706444D01*
X37565987Y-117522366D01*
X37650709Y-117317830D01*
X37693900Y-117100694D01*
X37693900Y-116889306D01*
X38446100Y-116889306D01*
X38446100Y-117110694D01*
X38489291Y-117327830D01*
X38574013Y-117532366D01*
X38697010Y-117716444D01*
X38853556Y-117872990D01*
X39037634Y-117995987D01*
X39242170Y-118080709D01*
X39459306Y-118123900D01*
X39680694Y-118123900D01*
X39897830Y-118080709D01*
X40102366Y-117995987D01*
X40286444Y-117872990D01*
X40442990Y-117716444D01*
X40565987Y-117532366D01*
X40650709Y-117327830D01*
X40693900Y-117110694D01*
X40693900Y-116889306D01*
X40691911Y-116879306D01*
X42366100Y-116879306D01*
X42366100Y-117100694D01*
X42409291Y-117317830D01*
X42494013Y-117522366D01*
X42617010Y-117706444D01*
X42773556Y-117862990D01*
X42957634Y-117985987D01*
X43162170Y-118070709D01*
X43379306Y-118113900D01*
X43600694Y-118113900D01*
X43817830Y-118070709D01*
X44022366Y-117985987D01*
X44206444Y-117862990D01*
X44362990Y-117706444D01*
X44485987Y-117522366D01*
X44570709Y-117317830D01*
X44613900Y-117100694D01*
X44613900Y-116889306D01*
X45366100Y-116889306D01*
X45366100Y-117110694D01*
X45409291Y-117327830D01*
X45494013Y-117532366D01*
X45617010Y-117716444D01*
X45773556Y-117872990D01*
X45957634Y-117995987D01*
X46162170Y-118080709D01*
X46379306Y-118123900D01*
X46600694Y-118123900D01*
X46817830Y-118080709D01*
X47022366Y-117995987D01*
X47206444Y-117872990D01*
X47362990Y-117716444D01*
X47485987Y-117532366D01*
X47570709Y-117327830D01*
X47613900Y-117110694D01*
X47613900Y-116889306D01*
X47611911Y-116879306D01*
X49286100Y-116879306D01*
X49286100Y-117100694D01*
X49329291Y-117317830D01*
X49414013Y-117522366D01*
X49537010Y-117706444D01*
X49693556Y-117862990D01*
X49877634Y-117985987D01*
X50082170Y-118070709D01*
X50299306Y-118113900D01*
X50520694Y-118113900D01*
X50737830Y-118070709D01*
X50942366Y-117985987D01*
X51126444Y-117862990D01*
X51282990Y-117706444D01*
X51405987Y-117522366D01*
X51490709Y-117317830D01*
X51533900Y-117100694D01*
X51533900Y-116889306D01*
X52286100Y-116889306D01*
X52286100Y-117110694D01*
X52329291Y-117327830D01*
X52414013Y-117532366D01*
X52537010Y-117716444D01*
X52693556Y-117872990D01*
X52877634Y-117995987D01*
X53082170Y-118080709D01*
X53299306Y-118123900D01*
X53520694Y-118123900D01*
X53737830Y-118080709D01*
X53942366Y-117995987D01*
X54126444Y-117872990D01*
X54282990Y-117716444D01*
X54405987Y-117532366D01*
X54490709Y-117327830D01*
X54533900Y-117110694D01*
X54533900Y-116889306D01*
X54531911Y-116879306D01*
X56206100Y-116879306D01*
X56206100Y-117100694D01*
X56249291Y-117317830D01*
X56334013Y-117522366D01*
X56457010Y-117706444D01*
X56613556Y-117862990D01*
X56797634Y-117985987D01*
X57002170Y-118070709D01*
X57219306Y-118113900D01*
X57440694Y-118113900D01*
X57657830Y-118070709D01*
X57862366Y-117985987D01*
X58046444Y-117862990D01*
X58202990Y-117706444D01*
X58325987Y-117522366D01*
X58410709Y-117317830D01*
X58453900Y-117100694D01*
X58453900Y-116889306D01*
X59206100Y-116889306D01*
X59206100Y-117110694D01*
X59249291Y-117327830D01*
X59334013Y-117532366D01*
X59457010Y-117716444D01*
X59613556Y-117872990D01*
X59797634Y-117995987D01*
X60002170Y-118080709D01*
X60219306Y-118123900D01*
X60440694Y-118123900D01*
X60657830Y-118080709D01*
X60862366Y-117995987D01*
X61046444Y-117872990D01*
X61202990Y-117716444D01*
X61325987Y-117532366D01*
X61410709Y-117327830D01*
X61453900Y-117110694D01*
X61453900Y-116889306D01*
X61451911Y-116879306D01*
X63126100Y-116879306D01*
X63126100Y-117100694D01*
X63169291Y-117317830D01*
X63254013Y-117522366D01*
X63377010Y-117706444D01*
X63533556Y-117862990D01*
X63717634Y-117985987D01*
X63922170Y-118070709D01*
X64139306Y-118113900D01*
X64360694Y-118113900D01*
X64577830Y-118070709D01*
X64782366Y-117985987D01*
X64966444Y-117862990D01*
X65122990Y-117706444D01*
X65245987Y-117522366D01*
X65330709Y-117317830D01*
X65373900Y-117100694D01*
X65373900Y-116889306D01*
X66126100Y-116889306D01*
X66126100Y-117110694D01*
X66169291Y-117327830D01*
X66254013Y-117532366D01*
X66377010Y-117716444D01*
X66533556Y-117872990D01*
X66717634Y-117995987D01*
X66922170Y-118080709D01*
X67139306Y-118123900D01*
X67360694Y-118123900D01*
X67577830Y-118080709D01*
X67782366Y-117995987D01*
X67966444Y-117872990D01*
X68122990Y-117716444D01*
X68245987Y-117532366D01*
X68330709Y-117327830D01*
X68373900Y-117110694D01*
X68373900Y-116889306D01*
X68371911Y-116879306D01*
X70046100Y-116879306D01*
X70046100Y-117100694D01*
X70089291Y-117317830D01*
X70174013Y-117522366D01*
X70297010Y-117706444D01*
X70453556Y-117862990D01*
X70637634Y-117985987D01*
X70842170Y-118070709D01*
X71059306Y-118113900D01*
X71280694Y-118113900D01*
X71497830Y-118070709D01*
X71702366Y-117985987D01*
X71886444Y-117862990D01*
X72042990Y-117706444D01*
X72165987Y-117522366D01*
X72250709Y-117317830D01*
X72293900Y-117100694D01*
X72293900Y-116889306D01*
X73046100Y-116889306D01*
X73046100Y-117110694D01*
X73089291Y-117327830D01*
X73174013Y-117532366D01*
X73297010Y-117716444D01*
X73453556Y-117872990D01*
X73637634Y-117995987D01*
X73842170Y-118080709D01*
X74059306Y-118123900D01*
X74280694Y-118123900D01*
X74497830Y-118080709D01*
X74702366Y-117995987D01*
X74886444Y-117872990D01*
X75042990Y-117716444D01*
X75165987Y-117532366D01*
X75250709Y-117327830D01*
X75293900Y-117110694D01*
X75293900Y-116889306D01*
X75291911Y-116879306D01*
X76966100Y-116879306D01*
X76966100Y-117100694D01*
X77009291Y-117317830D01*
X77094013Y-117522366D01*
X77217010Y-117706444D01*
X77373556Y-117862990D01*
X77557634Y-117985987D01*
X77762170Y-118070709D01*
X77979306Y-118113900D01*
X78200694Y-118113900D01*
X78417830Y-118070709D01*
X78622366Y-117985987D01*
X78806444Y-117862990D01*
X78962990Y-117706444D01*
X79085987Y-117522366D01*
X79170709Y-117317830D01*
X79213900Y-117100694D01*
X79213900Y-116889306D01*
X79966100Y-116889306D01*
X79966100Y-117110694D01*
X80009291Y-117327830D01*
X80094013Y-117532366D01*
X80217010Y-117716444D01*
X80373556Y-117872990D01*
X80557634Y-117995987D01*
X80762170Y-118080709D01*
X80979306Y-118123900D01*
X81200694Y-118123900D01*
X81417830Y-118080709D01*
X81622366Y-117995987D01*
X81806444Y-117872990D01*
X81962990Y-117716444D01*
X82085987Y-117532366D01*
X82170709Y-117327830D01*
X82213900Y-117110694D01*
X82213900Y-116889306D01*
X82211911Y-116879306D01*
X83886100Y-116879306D01*
X83886100Y-117100694D01*
X83929291Y-117317830D01*
X84014013Y-117522366D01*
X84137010Y-117706444D01*
X84293556Y-117862990D01*
X84477634Y-117985987D01*
X84682170Y-118070709D01*
X84899306Y-118113900D01*
X85120694Y-118113900D01*
X85337830Y-118070709D01*
X85542366Y-117985987D01*
X85726444Y-117862990D01*
X85882990Y-117706444D01*
X86005987Y-117522366D01*
X86090709Y-117317830D01*
X86133900Y-117100694D01*
X86133900Y-116889306D01*
X86886100Y-116889306D01*
X86886100Y-117110694D01*
X86929291Y-117327830D01*
X87014013Y-117532366D01*
X87137010Y-117716444D01*
X87293556Y-117872990D01*
X87477634Y-117995987D01*
X87682170Y-118080709D01*
X87899306Y-118123900D01*
X88120694Y-118123900D01*
X88337830Y-118080709D01*
X88542366Y-117995987D01*
X88726444Y-117872990D01*
X88882990Y-117716444D01*
X89005987Y-117532366D01*
X89090709Y-117327830D01*
X89133900Y-117110694D01*
X89133900Y-116889306D01*
X89131911Y-116879306D01*
X90806100Y-116879306D01*
X90806100Y-117100694D01*
X90849291Y-117317830D01*
X90934013Y-117522366D01*
X91057010Y-117706444D01*
X91213556Y-117862990D01*
X91397634Y-117985987D01*
X91602170Y-118070709D01*
X91819306Y-118113900D01*
X92040694Y-118113900D01*
X92257830Y-118070709D01*
X92462366Y-117985987D01*
X92646444Y-117862990D01*
X92802990Y-117706444D01*
X92925987Y-117522366D01*
X93010709Y-117317830D01*
X93053900Y-117100694D01*
X93053900Y-116889306D01*
X93806100Y-116889306D01*
X93806100Y-117110694D01*
X93849291Y-117327830D01*
X93934013Y-117532366D01*
X94057010Y-117716444D01*
X94213556Y-117872990D01*
X94397634Y-117995987D01*
X94602170Y-118080709D01*
X94819306Y-118123900D01*
X95040694Y-118123900D01*
X95257830Y-118080709D01*
X95462366Y-117995987D01*
X95646444Y-117872990D01*
X95802990Y-117716444D01*
X95925987Y-117532366D01*
X96010709Y-117327830D01*
X96053900Y-117110694D01*
X96053900Y-116889306D01*
X97706100Y-116889306D01*
X97706100Y-117110694D01*
X97749291Y-117327830D01*
X97834013Y-117532366D01*
X97957010Y-117716444D01*
X98113556Y-117872990D01*
X98297634Y-117995987D01*
X98502170Y-118080709D01*
X98719306Y-118123900D01*
X98940694Y-118123900D01*
X99157830Y-118080709D01*
X99362366Y-117995987D01*
X99546444Y-117872990D01*
X99702990Y-117716444D01*
X99825987Y-117532366D01*
X99910709Y-117327830D01*
X99953900Y-117110694D01*
X99953900Y-116889306D01*
X99951911Y-116879306D01*
X100706100Y-116879306D01*
X100706100Y-117100694D01*
X100749291Y-117317830D01*
X100834013Y-117522366D01*
X100957010Y-117706444D01*
X101113556Y-117862990D01*
X101297634Y-117985987D01*
X101502170Y-118070709D01*
X101719306Y-118113900D01*
X101940694Y-118113900D01*
X102157830Y-118070709D01*
X102362366Y-117985987D01*
X102546444Y-117862990D01*
X102702990Y-117706444D01*
X102825987Y-117522366D01*
X102910709Y-117317830D01*
X102953900Y-117100694D01*
X102953900Y-116879306D01*
X102910709Y-116662170D01*
X102825987Y-116457634D01*
X102702990Y-116273556D01*
X102546444Y-116117010D01*
X102362366Y-115994013D01*
X102157830Y-115909291D01*
X101940694Y-115866100D01*
X101719306Y-115866100D01*
X101502170Y-115909291D01*
X101297634Y-115994013D01*
X101113556Y-116117010D01*
X100957010Y-116273556D01*
X100834013Y-116457634D01*
X100749291Y-116662170D01*
X100706100Y-116879306D01*
X99951911Y-116879306D01*
X99910709Y-116672170D01*
X99825987Y-116467634D01*
X99702990Y-116283556D01*
X99546444Y-116127010D01*
X99362366Y-116004013D01*
X99157830Y-115919291D01*
X98940694Y-115876100D01*
X98719306Y-115876100D01*
X98502170Y-115919291D01*
X98297634Y-116004013D01*
X98113556Y-116127010D01*
X97957010Y-116283556D01*
X97834013Y-116467634D01*
X97749291Y-116672170D01*
X97706100Y-116889306D01*
X96053900Y-116889306D01*
X96010709Y-116672170D01*
X95925987Y-116467634D01*
X95802990Y-116283556D01*
X95646444Y-116127010D01*
X95462366Y-116004013D01*
X95257830Y-115919291D01*
X95040694Y-115876100D01*
X94819306Y-115876100D01*
X94602170Y-115919291D01*
X94397634Y-116004013D01*
X94213556Y-116127010D01*
X94057010Y-116283556D01*
X93934013Y-116467634D01*
X93849291Y-116672170D01*
X93806100Y-116889306D01*
X93053900Y-116889306D01*
X93053900Y-116879306D01*
X93010709Y-116662170D01*
X92925987Y-116457634D01*
X92802990Y-116273556D01*
X92646444Y-116117010D01*
X92462366Y-115994013D01*
X92257830Y-115909291D01*
X92040694Y-115866100D01*
X91819306Y-115866100D01*
X91602170Y-115909291D01*
X91397634Y-115994013D01*
X91213556Y-116117010D01*
X91057010Y-116273556D01*
X90934013Y-116457634D01*
X90849291Y-116662170D01*
X90806100Y-116879306D01*
X89131911Y-116879306D01*
X89090709Y-116672170D01*
X89005987Y-116467634D01*
X88882990Y-116283556D01*
X88726444Y-116127010D01*
X88542366Y-116004013D01*
X88337830Y-115919291D01*
X88120694Y-115876100D01*
X87899306Y-115876100D01*
X87682170Y-115919291D01*
X87477634Y-116004013D01*
X87293556Y-116127010D01*
X87137010Y-116283556D01*
X87014013Y-116467634D01*
X86929291Y-116672170D01*
X86886100Y-116889306D01*
X86133900Y-116889306D01*
X86133900Y-116879306D01*
X86090709Y-116662170D01*
X86005987Y-116457634D01*
X85882990Y-116273556D01*
X85726444Y-116117010D01*
X85542366Y-115994013D01*
X85337830Y-115909291D01*
X85120694Y-115866100D01*
X84899306Y-115866100D01*
X84682170Y-115909291D01*
X84477634Y-115994013D01*
X84293556Y-116117010D01*
X84137010Y-116273556D01*
X84014013Y-116457634D01*
X83929291Y-116662170D01*
X83886100Y-116879306D01*
X82211911Y-116879306D01*
X82170709Y-116672170D01*
X82085987Y-116467634D01*
X81962990Y-116283556D01*
X81806444Y-116127010D01*
X81622366Y-116004013D01*
X81417830Y-115919291D01*
X81200694Y-115876100D01*
X80979306Y-115876100D01*
X80762170Y-115919291D01*
X80557634Y-116004013D01*
X80373556Y-116127010D01*
X80217010Y-116283556D01*
X80094013Y-116467634D01*
X80009291Y-116672170D01*
X79966100Y-116889306D01*
X79213900Y-116889306D01*
X79213900Y-116879306D01*
X79170709Y-116662170D01*
X79085987Y-116457634D01*
X78962990Y-116273556D01*
X78806444Y-116117010D01*
X78622366Y-115994013D01*
X78417830Y-115909291D01*
X78200694Y-115866100D01*
X77979306Y-115866100D01*
X77762170Y-115909291D01*
X77557634Y-115994013D01*
X77373556Y-116117010D01*
X77217010Y-116273556D01*
X77094013Y-116457634D01*
X77009291Y-116662170D01*
X76966100Y-116879306D01*
X75291911Y-116879306D01*
X75250709Y-116672170D01*
X75165987Y-116467634D01*
X75042990Y-116283556D01*
X74886444Y-116127010D01*
X74702366Y-116004013D01*
X74497830Y-115919291D01*
X74280694Y-115876100D01*
X74059306Y-115876100D01*
X73842170Y-115919291D01*
X73637634Y-116004013D01*
X73453556Y-116127010D01*
X73297010Y-116283556D01*
X73174013Y-116467634D01*
X73089291Y-116672170D01*
X73046100Y-116889306D01*
X72293900Y-116889306D01*
X72293900Y-116879306D01*
X72250709Y-116662170D01*
X72165987Y-116457634D01*
X72042990Y-116273556D01*
X71886444Y-116117010D01*
X71702366Y-115994013D01*
X71497830Y-115909291D01*
X71280694Y-115866100D01*
X71059306Y-115866100D01*
X70842170Y-115909291D01*
X70637634Y-115994013D01*
X70453556Y-116117010D01*
X70297010Y-116273556D01*
X70174013Y-116457634D01*
X70089291Y-116662170D01*
X70046100Y-116879306D01*
X68371911Y-116879306D01*
X68330709Y-116672170D01*
X68245987Y-116467634D01*
X68122990Y-116283556D01*
X67966444Y-116127010D01*
X67782366Y-116004013D01*
X67577830Y-115919291D01*
X67360694Y-115876100D01*
X67139306Y-115876100D01*
X66922170Y-115919291D01*
X66717634Y-116004013D01*
X66533556Y-116127010D01*
X66377010Y-116283556D01*
X66254013Y-116467634D01*
X66169291Y-116672170D01*
X66126100Y-116889306D01*
X65373900Y-116889306D01*
X65373900Y-116879306D01*
X65330709Y-116662170D01*
X65245987Y-116457634D01*
X65122990Y-116273556D01*
X64966444Y-116117010D01*
X64782366Y-115994013D01*
X64577830Y-115909291D01*
X64360694Y-115866100D01*
X64139306Y-115866100D01*
X63922170Y-115909291D01*
X63717634Y-115994013D01*
X63533556Y-116117010D01*
X63377010Y-116273556D01*
X63254013Y-116457634D01*
X63169291Y-116662170D01*
X63126100Y-116879306D01*
X61451911Y-116879306D01*
X61410709Y-116672170D01*
X61325987Y-116467634D01*
X61202990Y-116283556D01*
X61046444Y-116127010D01*
X60862366Y-116004013D01*
X60657830Y-115919291D01*
X60440694Y-115876100D01*
X60219306Y-115876100D01*
X60002170Y-115919291D01*
X59797634Y-116004013D01*
X59613556Y-116127010D01*
X59457010Y-116283556D01*
X59334013Y-116467634D01*
X59249291Y-116672170D01*
X59206100Y-116889306D01*
X58453900Y-116889306D01*
X58453900Y-116879306D01*
X58410709Y-116662170D01*
X58325987Y-116457634D01*
X58202990Y-116273556D01*
X58046444Y-116117010D01*
X57862366Y-115994013D01*
X57657830Y-115909291D01*
X57440694Y-115866100D01*
X57219306Y-115866100D01*
X57002170Y-115909291D01*
X56797634Y-115994013D01*
X56613556Y-116117010D01*
X56457010Y-116273556D01*
X56334013Y-116457634D01*
X56249291Y-116662170D01*
X56206100Y-116879306D01*
X54531911Y-116879306D01*
X54490709Y-116672170D01*
X54405987Y-116467634D01*
X54282990Y-116283556D01*
X54126444Y-116127010D01*
X53942366Y-116004013D01*
X53737830Y-115919291D01*
X53520694Y-115876100D01*
X53299306Y-115876100D01*
X53082170Y-115919291D01*
X52877634Y-116004013D01*
X52693556Y-116127010D01*
X52537010Y-116283556D01*
X52414013Y-116467634D01*
X52329291Y-116672170D01*
X52286100Y-116889306D01*
X51533900Y-116889306D01*
X51533900Y-116879306D01*
X51490709Y-116662170D01*
X51405987Y-116457634D01*
X51282990Y-116273556D01*
X51126444Y-116117010D01*
X50942366Y-115994013D01*
X50737830Y-115909291D01*
X50520694Y-115866100D01*
X50299306Y-115866100D01*
X50082170Y-115909291D01*
X49877634Y-115994013D01*
X49693556Y-116117010D01*
X49537010Y-116273556D01*
X49414013Y-116457634D01*
X49329291Y-116662170D01*
X49286100Y-116879306D01*
X47611911Y-116879306D01*
X47570709Y-116672170D01*
X47485987Y-116467634D01*
X47362990Y-116283556D01*
X47206444Y-116127010D01*
X47022366Y-116004013D01*
X46817830Y-115919291D01*
X46600694Y-115876100D01*
X46379306Y-115876100D01*
X46162170Y-115919291D01*
X45957634Y-116004013D01*
X45773556Y-116127010D01*
X45617010Y-116283556D01*
X45494013Y-116467634D01*
X45409291Y-116672170D01*
X45366100Y-116889306D01*
X44613900Y-116889306D01*
X44613900Y-116879306D01*
X44570709Y-116662170D01*
X44485987Y-116457634D01*
X44362990Y-116273556D01*
X44206444Y-116117010D01*
X44022366Y-115994013D01*
X43817830Y-115909291D01*
X43600694Y-115866100D01*
X43379306Y-115866100D01*
X43162170Y-115909291D01*
X42957634Y-115994013D01*
X42773556Y-116117010D01*
X42617010Y-116273556D01*
X42494013Y-116457634D01*
X42409291Y-116662170D01*
X42366100Y-116879306D01*
X40691911Y-116879306D01*
X40650709Y-116672170D01*
X40565987Y-116467634D01*
X40442990Y-116283556D01*
X40286444Y-116127010D01*
X40102366Y-116004013D01*
X39897830Y-115919291D01*
X39680694Y-115876100D01*
X39459306Y-115876100D01*
X39242170Y-115919291D01*
X39037634Y-116004013D01*
X38853556Y-116127010D01*
X38697010Y-116283556D01*
X38574013Y-116467634D01*
X38489291Y-116672170D01*
X38446100Y-116889306D01*
X37693900Y-116889306D01*
X37693900Y-116879306D01*
X37650709Y-116662170D01*
X37565987Y-116457634D01*
X37442990Y-116273556D01*
X37286444Y-116117010D01*
X37102366Y-115994013D01*
X36897830Y-115909291D01*
X36680694Y-115866100D01*
X36459306Y-115866100D01*
X36242170Y-115909291D01*
X36037634Y-115994013D01*
X35853556Y-116117010D01*
X35697010Y-116273556D01*
X35574013Y-116457634D01*
X35489291Y-116662170D01*
X35446100Y-116879306D01*
X33771911Y-116879306D01*
X33730709Y-116672170D01*
X33645987Y-116467634D01*
X33522990Y-116283556D01*
X33366444Y-116127010D01*
X33182366Y-116004013D01*
X32977830Y-115919291D01*
X32760694Y-115876100D01*
X32539306Y-115876100D01*
X32322170Y-115919291D01*
X32117634Y-116004013D01*
X31933556Y-116127010D01*
X31777010Y-116283556D01*
X31654013Y-116467634D01*
X31569291Y-116672170D01*
X31526100Y-116889306D01*
X30773900Y-116889306D01*
X30773900Y-116879306D01*
X30730709Y-116662170D01*
X30645987Y-116457634D01*
X30522990Y-116273556D01*
X30366444Y-116117010D01*
X30182366Y-115994013D01*
X29977830Y-115909291D01*
X29760694Y-115866100D01*
X29539306Y-115866100D01*
X29322170Y-115909291D01*
X29117634Y-115994013D01*
X28933556Y-116117010D01*
X28777010Y-116273556D01*
X28654013Y-116457634D01*
X28569291Y-116662170D01*
X28526100Y-116879306D01*
X26851911Y-116879306D01*
X26810709Y-116672170D01*
X26725987Y-116467634D01*
X26602990Y-116283556D01*
X26446444Y-116127010D01*
X26262366Y-116004013D01*
X26057830Y-115919291D01*
X25840694Y-115876100D01*
X25619306Y-115876100D01*
X25402170Y-115919291D01*
X25197634Y-116004013D01*
X25013556Y-116127010D01*
X24857010Y-116283556D01*
X24734013Y-116467634D01*
X24649291Y-116672170D01*
X24606100Y-116889306D01*
X23833900Y-116889306D01*
X23790709Y-116672170D01*
X23705987Y-116467634D01*
X23582990Y-116283556D01*
X23426444Y-116127010D01*
X23242366Y-116004013D01*
X23037830Y-115919291D01*
X22820694Y-115876100D01*
X22599306Y-115876100D01*
X22382170Y-115919291D01*
X22177634Y-116004013D01*
X21993556Y-116127010D01*
X21837010Y-116283556D01*
X21714013Y-116467634D01*
X21629291Y-116672170D01*
X21586100Y-116889306D01*
X19933900Y-116889306D01*
X19890709Y-116672170D01*
X19805987Y-116467634D01*
X19682990Y-116283556D01*
X19526444Y-116127010D01*
X19342366Y-116004013D01*
X19137830Y-115919291D01*
X18920694Y-115876100D01*
X18699306Y-115876100D01*
X18482170Y-115919291D01*
X18277634Y-116004013D01*
X18093556Y-116127010D01*
X17937010Y-116283556D01*
X17814013Y-116467634D01*
X17729291Y-116672170D01*
X17686100Y-116889306D01*
X16933900Y-116889306D01*
X16933900Y-116879306D01*
X16890709Y-116662170D01*
X16805987Y-116457634D01*
X16682990Y-116273556D01*
X16526444Y-116117010D01*
X16342366Y-115994013D01*
X16137830Y-115909291D01*
X15920694Y-115866100D01*
X15699306Y-115866100D01*
X15482170Y-115909291D01*
X15277634Y-115994013D01*
X15093556Y-116117010D01*
X14937010Y-116273556D01*
X14814013Y-116457634D01*
X14729291Y-116662170D01*
X14686100Y-116879306D01*
X13011911Y-116879306D01*
X12970709Y-116672170D01*
X12885987Y-116467634D01*
X12762990Y-116283556D01*
X12606444Y-116127010D01*
X12422366Y-116004013D01*
X12217830Y-115919291D01*
X12000694Y-115876100D01*
X11779306Y-115876100D01*
X11562170Y-115919291D01*
X11357634Y-116004013D01*
X11173556Y-116127010D01*
X11017010Y-116283556D01*
X10894013Y-116467634D01*
X10809291Y-116672170D01*
X10766100Y-116889306D01*
X10013900Y-116889306D01*
X10013900Y-116879306D01*
X9970709Y-116662170D01*
X9885987Y-116457634D01*
X9762990Y-116273556D01*
X9606444Y-116117010D01*
X9422366Y-115994013D01*
X9217830Y-115909291D01*
X9000694Y-115866100D01*
X8779306Y-115866100D01*
X8562170Y-115909291D01*
X8357634Y-115994013D01*
X8173556Y-116117010D01*
X8017010Y-116273556D01*
X7894013Y-116457634D01*
X7809291Y-116662170D01*
X7766100Y-116879306D01*
X6073900Y-116879306D01*
X6030709Y-116662170D01*
X5945987Y-116457634D01*
X5822990Y-116273556D01*
X5666444Y-116117010D01*
X5482366Y-115994013D01*
X5277830Y-115909291D01*
X5060694Y-115866100D01*
X4839306Y-115866100D01*
X4622170Y-115909291D01*
X4417634Y-115994013D01*
X4233556Y-116117010D01*
X4077010Y-116273556D01*
X3954013Y-116457634D01*
X3869291Y-116662170D01*
X3826100Y-116879306D01*
X3093900Y-116879306D01*
X3050709Y-116662170D01*
X2965987Y-116457634D01*
X2842990Y-116273556D01*
X2686444Y-116117010D01*
X2502366Y-115994013D01*
X2297830Y-115909291D01*
X2080694Y-115866100D01*
X1859306Y-115866100D01*
X1642170Y-115909291D01*
X1437634Y-115994013D01*
X1253556Y-116117010D01*
X1097010Y-116273556D01*
X974013Y-116457634D01*
X889291Y-116662170D01*
X846100Y-116879306D01*
X-828089Y-116879306D01*
X-869291Y-116672170D01*
X-954013Y-116467634D01*
X-1077010Y-116283556D01*
X-1233556Y-116127010D01*
X-1417634Y-116004013D01*
X-1622170Y-115919291D01*
X-1839306Y-115876100D01*
X-2060694Y-115876100D01*
X-2277830Y-115919291D01*
X-2482366Y-116004013D01*
X-2666444Y-116127010D01*
X-2822990Y-116283556D01*
X-2945987Y-116467634D01*
X-3030709Y-116672170D01*
X-3073900Y-116889306D01*
X-3826100Y-116889306D01*
X-3826100Y-116879306D01*
X-3869291Y-116662170D01*
X-3954013Y-116457634D01*
X-4077010Y-116273556D01*
X-4233556Y-116117010D01*
X-4417634Y-115994013D01*
X-4622170Y-115909291D01*
X-4839306Y-115866100D01*
X-5060694Y-115866100D01*
X-5277830Y-115909291D01*
X-5482366Y-115994013D01*
X-5666444Y-116117010D01*
X-5822990Y-116273556D01*
X-5945987Y-116457634D01*
X-6030709Y-116662170D01*
X-6073900Y-116879306D01*
X-7748089Y-116879306D01*
X-7789291Y-116672170D01*
X-7874013Y-116467634D01*
X-7997010Y-116283556D01*
X-8153556Y-116127010D01*
X-8337634Y-116004013D01*
X-8542170Y-115919291D01*
X-8759306Y-115876100D01*
X-8980694Y-115876100D01*
X-9197830Y-115919291D01*
X-9402366Y-116004013D01*
X-9586444Y-116127010D01*
X-9742990Y-116283556D01*
X-9865987Y-116467634D01*
X-9950709Y-116672170D01*
X-9993900Y-116889306D01*
X-10746100Y-116889306D01*
X-10746100Y-116879306D01*
X-10789291Y-116662170D01*
X-10874013Y-116457634D01*
X-10997010Y-116273556D01*
X-11153556Y-116117010D01*
X-11337634Y-115994013D01*
X-11542170Y-115909291D01*
X-11759306Y-115866100D01*
X-11980694Y-115866100D01*
X-12197830Y-115909291D01*
X-12402366Y-115994013D01*
X-12586444Y-116117010D01*
X-12742990Y-116273556D01*
X-12865987Y-116457634D01*
X-12950709Y-116662170D01*
X-12993900Y-116879306D01*
X-14668089Y-116879306D01*
X-14709291Y-116672170D01*
X-14794013Y-116467634D01*
X-14917010Y-116283556D01*
X-15073556Y-116127010D01*
X-15257634Y-116004013D01*
X-15462170Y-115919291D01*
X-15679306Y-115876100D01*
X-15900694Y-115876100D01*
X-16117830Y-115919291D01*
X-16322366Y-116004013D01*
X-16506444Y-116127010D01*
X-16662990Y-116283556D01*
X-16785987Y-116467634D01*
X-16870709Y-116672170D01*
X-16913900Y-116889306D01*
X-17666100Y-116889306D01*
X-17666100Y-116879306D01*
X-17709291Y-116662170D01*
X-17794013Y-116457634D01*
X-17917010Y-116273556D01*
X-18073556Y-116117010D01*
X-18257634Y-115994013D01*
X-18462170Y-115909291D01*
X-18679306Y-115866100D01*
X-18900694Y-115866100D01*
X-19117830Y-115909291D01*
X-19322366Y-115994013D01*
X-19506444Y-116117010D01*
X-19662990Y-116273556D01*
X-19785987Y-116457634D01*
X-19870709Y-116662170D01*
X-19913900Y-116879306D01*
X-21588089Y-116879306D01*
X-21629291Y-116672170D01*
X-21714013Y-116467634D01*
X-21837010Y-116283556D01*
X-21993556Y-116127010D01*
X-22177634Y-116004013D01*
X-22382170Y-115919291D01*
X-22599306Y-115876100D01*
X-22820694Y-115876100D01*
X-23037830Y-115919291D01*
X-23242366Y-116004013D01*
X-23426444Y-116127010D01*
X-23582990Y-116283556D01*
X-23705987Y-116467634D01*
X-23790709Y-116672170D01*
X-23833900Y-116889306D01*
X-24586100Y-116889306D01*
X-24586100Y-116879306D01*
X-24629291Y-116662170D01*
X-24714013Y-116457634D01*
X-24837010Y-116273556D01*
X-24993556Y-116117010D01*
X-25177634Y-115994013D01*
X-25382170Y-115909291D01*
X-25599306Y-115866100D01*
X-25820694Y-115866100D01*
X-26037830Y-115909291D01*
X-26242366Y-115994013D01*
X-26426444Y-116117010D01*
X-26582990Y-116273556D01*
X-26705987Y-116457634D01*
X-26790709Y-116662170D01*
X-26833900Y-116879306D01*
X-28508089Y-116879306D01*
X-28549291Y-116672170D01*
X-28634013Y-116467634D01*
X-28757010Y-116283556D01*
X-28913556Y-116127010D01*
X-29097634Y-116004013D01*
X-29302170Y-115919291D01*
X-29519306Y-115876100D01*
X-29740694Y-115876100D01*
X-29957830Y-115919291D01*
X-30162366Y-116004013D01*
X-30346444Y-116127010D01*
X-30502990Y-116283556D01*
X-30625987Y-116467634D01*
X-30710709Y-116672170D01*
X-30753900Y-116889306D01*
X-31506100Y-116889306D01*
X-31506100Y-116879306D01*
X-31549291Y-116662170D01*
X-31634013Y-116457634D01*
X-31757010Y-116273556D01*
X-31913556Y-116117010D01*
X-32097634Y-115994013D01*
X-32302170Y-115909291D01*
X-32519306Y-115866100D01*
X-32740694Y-115866100D01*
X-32957830Y-115909291D01*
X-33162366Y-115994013D01*
X-33346444Y-116117010D01*
X-33502990Y-116273556D01*
X-33625987Y-116457634D01*
X-33710709Y-116662170D01*
X-33753900Y-116879306D01*
X-35428089Y-116879306D01*
X-35469291Y-116672170D01*
X-35554013Y-116467634D01*
X-35677010Y-116283556D01*
X-35833556Y-116127010D01*
X-36017634Y-116004013D01*
X-36222170Y-115919291D01*
X-36439306Y-115876100D01*
X-36660694Y-115876100D01*
X-36877830Y-115919291D01*
X-37082366Y-116004013D01*
X-37266444Y-116127010D01*
X-37422990Y-116283556D01*
X-37545987Y-116467634D01*
X-37630709Y-116672170D01*
X-37673900Y-116889306D01*
X-38446100Y-116889306D01*
X-38489291Y-116672170D01*
X-38574013Y-116467634D01*
X-38697010Y-116283556D01*
X-38853556Y-116127010D01*
X-39037634Y-116004013D01*
X-39242170Y-115919291D01*
X-39459306Y-115876100D01*
X-39680694Y-115876100D01*
X-39897830Y-115919291D01*
X-40102366Y-116004013D01*
X-40286444Y-116127010D01*
X-40442990Y-116283556D01*
X-40565987Y-116467634D01*
X-40650709Y-116672170D01*
X-40693900Y-116889306D01*
X-42346100Y-116889306D01*
X-42389291Y-116672170D01*
X-42474013Y-116467634D01*
X-42597010Y-116283556D01*
X-42753556Y-116127010D01*
X-42937634Y-116004013D01*
X-43142170Y-115919291D01*
X-43359306Y-115876100D01*
X-43580694Y-115876100D01*
X-43797830Y-115919291D01*
X-44002366Y-116004013D01*
X-44186444Y-116127010D01*
X-44342990Y-116283556D01*
X-44465987Y-116467634D01*
X-44550709Y-116672170D01*
X-44593900Y-116889306D01*
X-45346100Y-116889306D01*
X-45346100Y-116879306D01*
X-45389291Y-116662170D01*
X-45474013Y-116457634D01*
X-45597010Y-116273556D01*
X-45753556Y-116117010D01*
X-45937634Y-115994013D01*
X-46142170Y-115909291D01*
X-46359306Y-115866100D01*
X-46580694Y-115866100D01*
X-46797830Y-115909291D01*
X-47002366Y-115994013D01*
X-47186444Y-116117010D01*
X-47342990Y-116273556D01*
X-47465987Y-116457634D01*
X-47550709Y-116662170D01*
X-47593900Y-116879306D01*
X-49268089Y-116879306D01*
X-49309291Y-116672170D01*
X-49394013Y-116467634D01*
X-49517010Y-116283556D01*
X-49673556Y-116127010D01*
X-49857634Y-116004013D01*
X-50062170Y-115919291D01*
X-50279306Y-115876100D01*
X-50500694Y-115876100D01*
X-50717830Y-115919291D01*
X-50922366Y-116004013D01*
X-51106444Y-116127010D01*
X-51262990Y-116283556D01*
X-51385987Y-116467634D01*
X-51470709Y-116672170D01*
X-51513900Y-116889306D01*
X-52266100Y-116889306D01*
X-52266100Y-116879306D01*
X-52309291Y-116662170D01*
X-52394013Y-116457634D01*
X-52517010Y-116273556D01*
X-52673556Y-116117010D01*
X-52857634Y-115994013D01*
X-53062170Y-115909291D01*
X-53279306Y-115866100D01*
X-53500694Y-115866100D01*
X-53717830Y-115909291D01*
X-53922366Y-115994013D01*
X-54106444Y-116117010D01*
X-54262990Y-116273556D01*
X-54385987Y-116457634D01*
X-54470709Y-116662170D01*
X-54513900Y-116879306D01*
X-56188089Y-116879306D01*
X-56229291Y-116672170D01*
X-56314013Y-116467634D01*
X-56437010Y-116283556D01*
X-56593556Y-116127010D01*
X-56777634Y-116004013D01*
X-56982170Y-115919291D01*
X-57199306Y-115876100D01*
X-57420694Y-115876100D01*
X-57637830Y-115919291D01*
X-57842366Y-116004013D01*
X-58026444Y-116127010D01*
X-58182990Y-116283556D01*
X-58305987Y-116467634D01*
X-58390709Y-116672170D01*
X-58433900Y-116889306D01*
X-59186100Y-116889306D01*
X-59186100Y-116879306D01*
X-59229291Y-116662170D01*
X-59314013Y-116457634D01*
X-59437010Y-116273556D01*
X-59593556Y-116117010D01*
X-59777634Y-115994013D01*
X-59982170Y-115909291D01*
X-60199306Y-115866100D01*
X-60420694Y-115866100D01*
X-60637830Y-115909291D01*
X-60842366Y-115994013D01*
X-61026444Y-116117010D01*
X-61182990Y-116273556D01*
X-61305987Y-116457634D01*
X-61390709Y-116662170D01*
X-61433900Y-116879306D01*
X-63108089Y-116879306D01*
X-63149291Y-116672170D01*
X-63234013Y-116467634D01*
X-63357010Y-116283556D01*
X-63513556Y-116127010D01*
X-63697634Y-116004013D01*
X-63902170Y-115919291D01*
X-64119306Y-115876100D01*
X-64340694Y-115876100D01*
X-64557830Y-115919291D01*
X-64762366Y-116004013D01*
X-64946444Y-116127010D01*
X-65102990Y-116283556D01*
X-65225987Y-116467634D01*
X-65310709Y-116672170D01*
X-65353900Y-116889306D01*
X-66106100Y-116889306D01*
X-66106100Y-116879306D01*
X-66149291Y-116662170D01*
X-66234013Y-116457634D01*
X-66357010Y-116273556D01*
X-66513556Y-116117010D01*
X-66697634Y-115994013D01*
X-66902170Y-115909291D01*
X-67119306Y-115866100D01*
X-67340694Y-115866100D01*
X-67557830Y-115909291D01*
X-67762366Y-115994013D01*
X-67946444Y-116117010D01*
X-68102990Y-116273556D01*
X-68225987Y-116457634D01*
X-68310709Y-116662170D01*
X-68353900Y-116879306D01*
X-70028089Y-116879306D01*
X-70069291Y-116672170D01*
X-70154013Y-116467634D01*
X-70277010Y-116283556D01*
X-70433556Y-116127010D01*
X-70617634Y-116004013D01*
X-70822170Y-115919291D01*
X-71039306Y-115876100D01*
X-71260694Y-115876100D01*
X-71477830Y-115919291D01*
X-71682366Y-116004013D01*
X-71866444Y-116127010D01*
X-72022990Y-116283556D01*
X-72145987Y-116467634D01*
X-72230709Y-116672170D01*
X-72273900Y-116889306D01*
X-73026100Y-116889306D01*
X-73026100Y-116879306D01*
X-73069291Y-116662170D01*
X-73154013Y-116457634D01*
X-73277010Y-116273556D01*
X-73433556Y-116117010D01*
X-73617634Y-115994013D01*
X-73822170Y-115909291D01*
X-74039306Y-115866100D01*
X-74260694Y-115866100D01*
X-74477830Y-115909291D01*
X-74682366Y-115994013D01*
X-74866444Y-116117010D01*
X-75022990Y-116273556D01*
X-75145987Y-116457634D01*
X-75230709Y-116662170D01*
X-75273900Y-116879306D01*
X-76966100Y-116879306D01*
X-77009291Y-116662170D01*
X-77094013Y-116457634D01*
X-77217010Y-116273556D01*
X-77373556Y-116117010D01*
X-77557634Y-115994013D01*
X-77762170Y-115909291D01*
X-77979306Y-115866100D01*
X-78200694Y-115866100D01*
X-78417830Y-115909291D01*
X-78622366Y-115994013D01*
X-78806444Y-116117010D01*
X-78962990Y-116273556D01*
X-79085987Y-116457634D01*
X-79170709Y-116662170D01*
X-79213900Y-116879306D01*
X-79968089Y-116879306D01*
X-80009291Y-116672170D01*
X-80094013Y-116467634D01*
X-80217010Y-116283556D01*
X-80373556Y-116127010D01*
X-80557634Y-116004013D01*
X-80762170Y-115919291D01*
X-80979306Y-115876100D01*
X-81200694Y-115876100D01*
X-81417830Y-115919291D01*
X-81622366Y-116004013D01*
X-81806444Y-116127010D01*
X-81962990Y-116283556D01*
X-82085987Y-116467634D01*
X-82170709Y-116672170D01*
X-82213900Y-116889306D01*
X-83886100Y-116889306D01*
X-83886100Y-116879306D01*
X-83929291Y-116662170D01*
X-84014013Y-116457634D01*
X-84137010Y-116273556D01*
X-84293556Y-116117010D01*
X-84477634Y-115994013D01*
X-84682170Y-115909291D01*
X-84899306Y-115866100D01*
X-85120694Y-115866100D01*
X-85337830Y-115909291D01*
X-85542366Y-115994013D01*
X-85726444Y-116117010D01*
X-85882990Y-116273556D01*
X-86005987Y-116457634D01*
X-86090709Y-116662170D01*
X-86133900Y-116879306D01*
X-86888089Y-116879306D01*
X-86929291Y-116672170D01*
X-87014013Y-116467634D01*
X-87137010Y-116283556D01*
X-87293556Y-116127010D01*
X-87477634Y-116004013D01*
X-87682170Y-115919291D01*
X-87899306Y-115876100D01*
X-88120694Y-115876100D01*
X-88337830Y-115919291D01*
X-88542366Y-116004013D01*
X-88726444Y-116127010D01*
X-88882990Y-116283556D01*
X-89005987Y-116467634D01*
X-89090709Y-116672170D01*
X-89133900Y-116889306D01*
X-90806100Y-116889306D01*
X-90806100Y-116879306D01*
X-90849291Y-116662170D01*
X-90934013Y-116457634D01*
X-91057010Y-116273556D01*
X-91213556Y-116117010D01*
X-91397634Y-115994013D01*
X-91602170Y-115909291D01*
X-91819306Y-115866100D01*
X-92040694Y-115866100D01*
X-92257830Y-115909291D01*
X-92462366Y-115994013D01*
X-92646444Y-116117010D01*
X-92802990Y-116273556D01*
X-92925987Y-116457634D01*
X-93010709Y-116662170D01*
X-93053900Y-116879306D01*
X-93808089Y-116879306D01*
X-93849291Y-116672170D01*
X-93934013Y-116467634D01*
X-94057010Y-116283556D01*
X-94213556Y-116127010D01*
X-94397634Y-116004013D01*
X-94602170Y-115919291D01*
X-94819306Y-115876100D01*
X-95040694Y-115876100D01*
X-95257830Y-115919291D01*
X-95462366Y-116004013D01*
X-95646444Y-116127010D01*
X-95802990Y-116283556D01*
X-95925987Y-116467634D01*
X-96010709Y-116672170D01*
X-96053900Y-116889306D01*
X-97726100Y-116889306D01*
X-97726100Y-116879306D01*
X-97769291Y-116662170D01*
X-97854013Y-116457634D01*
X-97977010Y-116273556D01*
X-98133556Y-116117010D01*
X-98317634Y-115994013D01*
X-98522170Y-115909291D01*
X-98739306Y-115866100D01*
X-98960694Y-115866100D01*
X-99177830Y-115909291D01*
X-99382366Y-115994013D01*
X-99566444Y-116117010D01*
X-99722990Y-116273556D01*
X-99845987Y-116457634D01*
X-99930709Y-116662170D01*
X-99973900Y-116879306D01*
X-100728089Y-116879306D01*
X-100769291Y-116672170D01*
X-100854013Y-116467634D01*
X-100977010Y-116283556D01*
X-101133556Y-116127010D01*
X-101317634Y-116004013D01*
X-101522170Y-115919291D01*
X-101739306Y-115876100D01*
X-101960694Y-115876100D01*
X-102177830Y-115919291D01*
X-102382366Y-116004013D01*
X-102566444Y-116127010D01*
X-102722990Y-116283556D01*
X-102845987Y-116467634D01*
X-102930709Y-116672170D01*
X-102973900Y-116889306D01*
X-110540800Y-116889306D01*
X-110540800Y147897126D01*
X-37538850Y147897126D01*
X-37538850Y147643234D01*
X-37489318Y147394222D01*
X-37392158Y147159657D01*
X-37251104Y146948554D01*
X-37071576Y146769026D01*
X-36860473Y146627972D01*
X-36625908Y146530812D01*
X-36376896Y146481280D01*
X-36123004Y146481280D01*
X-35873992Y146530812D01*
X-35639427Y146627972D01*
X-35428324Y146769026D01*
X-35248796Y146948554D01*
X-35107742Y147159657D01*
X-35010582Y147394222D01*
X-34961050Y147643234D01*
X-34961050Y147897126D01*
X35761150Y147897126D01*
X35761150Y147643234D01*
X35810682Y147394222D01*
X35907842Y147159657D01*
X36048896Y146948554D01*
X36228424Y146769026D01*
X36439527Y146627972D01*
X36674092Y146530812D01*
X36923104Y146481280D01*
X37176996Y146481280D01*
X37426008Y146530812D01*
X37660573Y146627972D01*
X37871676Y146769026D01*
X38051204Y146948554D01*
X38192258Y147159657D01*
X38289418Y147394222D01*
X38338950Y147643234D01*
X38338950Y147897126D01*
X38289418Y148146138D01*
X38192258Y148380703D01*
X38051204Y148591806D01*
X37871676Y148771334D01*
X37660573Y148912388D01*
X37426008Y149009548D01*
X37176996Y149059080D01*
X36923104Y149059080D01*
X36674092Y149009548D01*
X36439527Y148912388D01*
X36228424Y148771334D01*
X36048896Y148591806D01*
X35907842Y148380703D01*
X35810682Y148146138D01*
X35761150Y147897126D01*
X-34961050Y147897126D01*
X-35010582Y148146138D01*
X-35107742Y148380703D01*
X-35248796Y148591806D01*
X-35428324Y148771334D01*
X-35639427Y148912388D01*
X-35873992Y149009548D01*
X-36123004Y149059080D01*
X-36376896Y149059080D01*
X-36625908Y149009548D01*
X-36860473Y148912388D01*
X-37071576Y148771334D01*
X-37251104Y148591806D01*
X-37392158Y148380703D01*
X-37489318Y148146138D01*
X-37538850Y147897126D01*
X-110540800Y147897126D01*
X-110540800Y164769800D01*
X110921800Y164769800D01*
X110921800Y-125272800D01*
G37*
X110921800Y-125272800D02*
X-110540800Y-125272800D01*
X-110540800Y-116889306D01*
X-102973900Y-116889306D01*
X-102973900Y-117110694D01*
X-102930709Y-117327830D01*
X-102845987Y-117532366D01*
X-102722990Y-117716444D01*
X-102566444Y-117872990D01*
X-102382366Y-117995987D01*
X-102177830Y-118080709D01*
X-101960694Y-118123900D01*
X-101739306Y-118123900D01*
X-101522170Y-118080709D01*
X-101317634Y-117995987D01*
X-101133556Y-117872990D01*
X-100977010Y-117716444D01*
X-100854013Y-117532366D01*
X-100769291Y-117327830D01*
X-100726100Y-117110694D01*
X-100726100Y-116889306D01*
X-100728089Y-116879306D01*
X-99973900Y-116879306D01*
X-99973900Y-117100694D01*
X-99930709Y-117317830D01*
X-99845987Y-117522366D01*
X-99722990Y-117706444D01*
X-99566444Y-117862990D01*
X-99382366Y-117985987D01*
X-99177830Y-118070709D01*
X-98960694Y-118113900D01*
X-98739306Y-118113900D01*
X-98522170Y-118070709D01*
X-98317634Y-117985987D01*
X-98133556Y-117862990D01*
X-97977010Y-117706444D01*
X-97854013Y-117522366D01*
X-97769291Y-117317830D01*
X-97726100Y-117100694D01*
X-97726100Y-116889306D01*
X-96053900Y-116889306D01*
X-96053900Y-117110694D01*
X-96010709Y-117327830D01*
X-95925987Y-117532366D01*
X-95802990Y-117716444D01*
X-95646444Y-117872990D01*
X-95462366Y-117995987D01*
X-95257830Y-118080709D01*
X-95040694Y-118123900D01*
X-94819306Y-118123900D01*
X-94602170Y-118080709D01*
X-94397634Y-117995987D01*
X-94213556Y-117872990D01*
X-94057010Y-117716444D01*
X-93934013Y-117532366D01*
X-93849291Y-117327830D01*
X-93806100Y-117110694D01*
X-93806100Y-116889306D01*
X-93808089Y-116879306D01*
X-93053900Y-116879306D01*
X-93053900Y-117100694D01*
X-93010709Y-117317830D01*
X-92925987Y-117522366D01*
X-92802990Y-117706444D01*
X-92646444Y-117862990D01*
X-92462366Y-117985987D01*
X-92257830Y-118070709D01*
X-92040694Y-118113900D01*
X-91819306Y-118113900D01*
X-91602170Y-118070709D01*
X-91397634Y-117985987D01*
X-91213556Y-117862990D01*
X-91057010Y-117706444D01*
X-90934013Y-117522366D01*
X-90849291Y-117317830D01*
X-90806100Y-117100694D01*
X-90806100Y-116889306D01*
X-89133900Y-116889306D01*
X-89133900Y-117110694D01*
X-89090709Y-117327830D01*
X-89005987Y-117532366D01*
X-88882990Y-117716444D01*
X-88726444Y-117872990D01*
X-88542366Y-117995987D01*
X-88337830Y-118080709D01*
X-88120694Y-118123900D01*
X-87899306Y-118123900D01*
X-87682170Y-118080709D01*
X-87477634Y-117995987D01*
X-87293556Y-117872990D01*
X-87137010Y-117716444D01*
X-87014013Y-117532366D01*
X-86929291Y-117327830D01*
X-86886100Y-117110694D01*
X-86886100Y-116889306D01*
X-86888089Y-116879306D01*
X-86133900Y-116879306D01*
X-86133900Y-117100694D01*
X-86090709Y-117317830D01*
X-86005987Y-117522366D01*
X-85882990Y-117706444D01*
X-85726444Y-117862990D01*
X-85542366Y-117985987D01*
X-85337830Y-118070709D01*
X-85120694Y-118113900D01*
X-84899306Y-118113900D01*
X-84682170Y-118070709D01*
X-84477634Y-117985987D01*
X-84293556Y-117862990D01*
X-84137010Y-117706444D01*
X-84014013Y-117522366D01*
X-83929291Y-117317830D01*
X-83886100Y-117100694D01*
X-83886100Y-116889306D01*
X-82213900Y-116889306D01*
X-82213900Y-117110694D01*
X-82170709Y-117327830D01*
X-82085987Y-117532366D01*
X-81962990Y-117716444D01*
X-81806444Y-117872990D01*
X-81622366Y-117995987D01*
X-81417830Y-118080709D01*
X-81200694Y-118123900D01*
X-80979306Y-118123900D01*
X-80762170Y-118080709D01*
X-80557634Y-117995987D01*
X-80373556Y-117872990D01*
X-80217010Y-117716444D01*
X-80094013Y-117532366D01*
X-80009291Y-117327830D01*
X-79966100Y-117110694D01*
X-79966100Y-116889306D01*
X-79968089Y-116879306D01*
X-79213900Y-116879306D01*
X-79213900Y-117100694D01*
X-79170709Y-117317830D01*
X-79085987Y-117522366D01*
X-78962990Y-117706444D01*
X-78806444Y-117862990D01*
X-78622366Y-117985987D01*
X-78417830Y-118070709D01*
X-78200694Y-118113900D01*
X-77979306Y-118113900D01*
X-77762170Y-118070709D01*
X-77557634Y-117985987D01*
X-77373556Y-117862990D01*
X-77217010Y-117706444D01*
X-77094013Y-117522366D01*
X-77009291Y-117317830D01*
X-76966100Y-117100694D01*
X-76966100Y-116879306D01*
X-75273900Y-116879306D01*
X-75273900Y-117100694D01*
X-75230709Y-117317830D01*
X-75145987Y-117522366D01*
X-75022990Y-117706444D01*
X-74866444Y-117862990D01*
X-74682366Y-117985987D01*
X-74477830Y-118070709D01*
X-74260694Y-118113900D01*
X-74039306Y-118113900D01*
X-73822170Y-118070709D01*
X-73617634Y-117985987D01*
X-73433556Y-117862990D01*
X-73277010Y-117706444D01*
X-73154013Y-117522366D01*
X-73069291Y-117317830D01*
X-73026100Y-117100694D01*
X-73026100Y-116889306D01*
X-72273900Y-116889306D01*
X-72273900Y-117110694D01*
X-72230709Y-117327830D01*
X-72145987Y-117532366D01*
X-72022990Y-117716444D01*
X-71866444Y-117872990D01*
X-71682366Y-117995987D01*
X-71477830Y-118080709D01*
X-71260694Y-118123900D01*
X-71039306Y-118123900D01*
X-70822170Y-118080709D01*
X-70617634Y-117995987D01*
X-70433556Y-117872990D01*
X-70277010Y-117716444D01*
X-70154013Y-117532366D01*
X-70069291Y-117327830D01*
X-70026100Y-117110694D01*
X-70026100Y-116889306D01*
X-70028089Y-116879306D01*
X-68353900Y-116879306D01*
X-68353900Y-117100694D01*
X-68310709Y-117317830D01*
X-68225987Y-117522366D01*
X-68102990Y-117706444D01*
X-67946444Y-117862990D01*
X-67762366Y-117985987D01*
X-67557830Y-118070709D01*
X-67340694Y-118113900D01*
X-67119306Y-118113900D01*
X-66902170Y-118070709D01*
X-66697634Y-117985987D01*
X-66513556Y-117862990D01*
X-66357010Y-117706444D01*
X-66234013Y-117522366D01*
X-66149291Y-117317830D01*
X-66106100Y-117100694D01*
X-66106100Y-116889306D01*
X-65353900Y-116889306D01*
X-65353900Y-117110694D01*
X-65310709Y-117327830D01*
X-65225987Y-117532366D01*
X-65102990Y-117716444D01*
X-64946444Y-117872990D01*
X-64762366Y-117995987D01*
X-64557830Y-118080709D01*
X-64340694Y-118123900D01*
X-64119306Y-118123900D01*
X-63902170Y-118080709D01*
X-63697634Y-117995987D01*
X-63513556Y-117872990D01*
X-63357010Y-117716444D01*
X-63234013Y-117532366D01*
X-63149291Y-117327830D01*
X-63106100Y-117110694D01*
X-63106100Y-116889306D01*
X-63108089Y-116879306D01*
X-61433900Y-116879306D01*
X-61433900Y-117100694D01*
X-61390709Y-117317830D01*
X-61305987Y-117522366D01*
X-61182990Y-117706444D01*
X-61026444Y-117862990D01*
X-60842366Y-117985987D01*
X-60637830Y-118070709D01*
X-60420694Y-118113900D01*
X-60199306Y-118113900D01*
X-59982170Y-118070709D01*
X-59777634Y-117985987D01*
X-59593556Y-117862990D01*
X-59437010Y-117706444D01*
X-59314013Y-117522366D01*
X-59229291Y-117317830D01*
X-59186100Y-117100694D01*
X-59186100Y-116889306D01*
X-58433900Y-116889306D01*
X-58433900Y-117110694D01*
X-58390709Y-117327830D01*
X-58305987Y-117532366D01*
X-58182990Y-117716444D01*
X-58026444Y-117872990D01*
X-57842366Y-117995987D01*
X-57637830Y-118080709D01*
X-57420694Y-118123900D01*
X-57199306Y-118123900D01*
X-56982170Y-118080709D01*
X-56777634Y-117995987D01*
X-56593556Y-117872990D01*
X-56437010Y-117716444D01*
X-56314013Y-117532366D01*
X-56229291Y-117327830D01*
X-56186100Y-117110694D01*
X-56186100Y-116889306D01*
X-56188089Y-116879306D01*
X-54513900Y-116879306D01*
X-54513900Y-117100694D01*
X-54470709Y-117317830D01*
X-54385987Y-117522366D01*
X-54262990Y-117706444D01*
X-54106444Y-117862990D01*
X-53922366Y-117985987D01*
X-53717830Y-118070709D01*
X-53500694Y-118113900D01*
X-53279306Y-118113900D01*
X-53062170Y-118070709D01*
X-52857634Y-117985987D01*
X-52673556Y-117862990D01*
X-52517010Y-117706444D01*
X-52394013Y-117522366D01*
X-52309291Y-117317830D01*
X-52266100Y-117100694D01*
X-52266100Y-116889306D01*
X-51513900Y-116889306D01*
X-51513900Y-117110694D01*
X-51470709Y-117327830D01*
X-51385987Y-117532366D01*
X-51262990Y-117716444D01*
X-51106444Y-117872990D01*
X-50922366Y-117995987D01*
X-50717830Y-118080709D01*
X-50500694Y-118123900D01*
X-50279306Y-118123900D01*
X-50062170Y-118080709D01*
X-49857634Y-117995987D01*
X-49673556Y-117872990D01*
X-49517010Y-117716444D01*
X-49394013Y-117532366D01*
X-49309291Y-117327830D01*
X-49266100Y-117110694D01*
X-49266100Y-116889306D01*
X-49268089Y-116879306D01*
X-47593900Y-116879306D01*
X-47593900Y-117100694D01*
X-47550709Y-117317830D01*
X-47465987Y-117522366D01*
X-47342990Y-117706444D01*
X-47186444Y-117862990D01*
X-47002366Y-117985987D01*
X-46797830Y-118070709D01*
X-46580694Y-118113900D01*
X-46359306Y-118113900D01*
X-46142170Y-118070709D01*
X-45937634Y-117985987D01*
X-45753556Y-117862990D01*
X-45597010Y-117706444D01*
X-45474013Y-117522366D01*
X-45389291Y-117317830D01*
X-45346100Y-117100694D01*
X-45346100Y-116889306D01*
X-44593900Y-116889306D01*
X-44593900Y-117110694D01*
X-44550709Y-117327830D01*
X-44465987Y-117532366D01*
X-44342990Y-117716444D01*
X-44186444Y-117872990D01*
X-44002366Y-117995987D01*
X-43797830Y-118080709D01*
X-43580694Y-118123900D01*
X-43359306Y-118123900D01*
X-43142170Y-118080709D01*
X-42937634Y-117995987D01*
X-42753556Y-117872990D01*
X-42597010Y-117716444D01*
X-42474013Y-117532366D01*
X-42389291Y-117327830D01*
X-42346100Y-117110694D01*
X-42346100Y-116889306D01*
X-40693900Y-116889306D01*
X-40693900Y-117110694D01*
X-40650709Y-117327830D01*
X-40565987Y-117532366D01*
X-40442990Y-117716444D01*
X-40286444Y-117872990D01*
X-40102366Y-117995987D01*
X-39897830Y-118080709D01*
X-39680694Y-118123900D01*
X-39459306Y-118123900D01*
X-39242170Y-118080709D01*
X-39037634Y-117995987D01*
X-38853556Y-117872990D01*
X-38697010Y-117716444D01*
X-38574013Y-117532366D01*
X-38489291Y-117327830D01*
X-38446100Y-117110694D01*
X-38446100Y-116889306D01*
X-37673900Y-116889306D01*
X-37673900Y-117110694D01*
X-37630709Y-117327830D01*
X-37545987Y-117532366D01*
X-37422990Y-117716444D01*
X-37266444Y-117872990D01*
X-37082366Y-117995987D01*
X-36877830Y-118080709D01*
X-36660694Y-118123900D01*
X-36439306Y-118123900D01*
X-36222170Y-118080709D01*
X-36017634Y-117995987D01*
X-35833556Y-117872990D01*
X-35677010Y-117716444D01*
X-35554013Y-117532366D01*
X-35469291Y-117327830D01*
X-35426100Y-117110694D01*
X-35426100Y-116889306D01*
X-35428089Y-116879306D01*
X-33753900Y-116879306D01*
X-33753900Y-117100694D01*
X-33710709Y-117317830D01*
X-33625987Y-117522366D01*
X-33502990Y-117706444D01*
X-33346444Y-117862990D01*
X-33162366Y-117985987D01*
X-32957830Y-118070709D01*
X-32740694Y-118113900D01*
X-32519306Y-118113900D01*
X-32302170Y-118070709D01*
X-32097634Y-117985987D01*
X-31913556Y-117862990D01*
X-31757010Y-117706444D01*
X-31634013Y-117522366D01*
X-31549291Y-117317830D01*
X-31506100Y-117100694D01*
X-31506100Y-116889306D01*
X-30753900Y-116889306D01*
X-30753900Y-117110694D01*
X-30710709Y-117327830D01*
X-30625987Y-117532366D01*
X-30502990Y-117716444D01*
X-30346444Y-117872990D01*
X-30162366Y-117995987D01*
X-29957830Y-118080709D01*
X-29740694Y-118123900D01*
X-29519306Y-118123900D01*
X-29302170Y-118080709D01*
X-29097634Y-117995987D01*
X-28913556Y-117872990D01*
X-28757010Y-117716444D01*
X-28634013Y-117532366D01*
X-28549291Y-117327830D01*
X-28506100Y-117110694D01*
X-28506100Y-116889306D01*
X-28508089Y-116879306D01*
X-26833900Y-116879306D01*
X-26833900Y-117100694D01*
X-26790709Y-117317830D01*
X-26705987Y-117522366D01*
X-26582990Y-117706444D01*
X-26426444Y-117862990D01*
X-26242366Y-117985987D01*
X-26037830Y-118070709D01*
X-25820694Y-118113900D01*
X-25599306Y-118113900D01*
X-25382170Y-118070709D01*
X-25177634Y-117985987D01*
X-24993556Y-117862990D01*
X-24837010Y-117706444D01*
X-24714013Y-117522366D01*
X-24629291Y-117317830D01*
X-24586100Y-117100694D01*
X-24586100Y-116889306D01*
X-23833900Y-116889306D01*
X-23833900Y-117110694D01*
X-23790709Y-117327830D01*
X-23705987Y-117532366D01*
X-23582990Y-117716444D01*
X-23426444Y-117872990D01*
X-23242366Y-117995987D01*
X-23037830Y-118080709D01*
X-22820694Y-118123900D01*
X-22599306Y-118123900D01*
X-22382170Y-118080709D01*
X-22177634Y-117995987D01*
X-21993556Y-117872990D01*
X-21837010Y-117716444D01*
X-21714013Y-117532366D01*
X-21629291Y-117327830D01*
X-21586100Y-117110694D01*
X-21586100Y-116889306D01*
X-21588089Y-116879306D01*
X-19913900Y-116879306D01*
X-19913900Y-117100694D01*
X-19870709Y-117317830D01*
X-19785987Y-117522366D01*
X-19662990Y-117706444D01*
X-19506444Y-117862990D01*
X-19322366Y-117985987D01*
X-19117830Y-118070709D01*
X-18900694Y-118113900D01*
X-18679306Y-118113900D01*
X-18462170Y-118070709D01*
X-18257634Y-117985987D01*
X-18073556Y-117862990D01*
X-17917010Y-117706444D01*
X-17794013Y-117522366D01*
X-17709291Y-117317830D01*
X-17666100Y-117100694D01*
X-17666100Y-116889306D01*
X-16913900Y-116889306D01*
X-16913900Y-117110694D01*
X-16870709Y-117327830D01*
X-16785987Y-117532366D01*
X-16662990Y-117716444D01*
X-16506444Y-117872990D01*
X-16322366Y-117995987D01*
X-16117830Y-118080709D01*
X-15900694Y-118123900D01*
X-15679306Y-118123900D01*
X-15462170Y-118080709D01*
X-15257634Y-117995987D01*
X-15073556Y-117872990D01*
X-14917010Y-117716444D01*
X-14794013Y-117532366D01*
X-14709291Y-117327830D01*
X-14666100Y-117110694D01*
X-14666100Y-116889306D01*
X-14668089Y-116879306D01*
X-12993900Y-116879306D01*
X-12993900Y-117100694D01*
X-12950709Y-117317830D01*
X-12865987Y-117522366D01*
X-12742990Y-117706444D01*
X-12586444Y-117862990D01*
X-12402366Y-117985987D01*
X-12197830Y-118070709D01*
X-11980694Y-118113900D01*
X-11759306Y-118113900D01*
X-11542170Y-118070709D01*
X-11337634Y-117985987D01*
X-11153556Y-117862990D01*
X-10997010Y-117706444D01*
X-10874013Y-117522366D01*
X-10789291Y-117317830D01*
X-10746100Y-117100694D01*
X-10746100Y-116889306D01*
X-9993900Y-116889306D01*
X-9993900Y-117110694D01*
X-9950709Y-117327830D01*
X-9865987Y-117532366D01*
X-9742990Y-117716444D01*
X-9586444Y-117872990D01*
X-9402366Y-117995987D01*
X-9197830Y-118080709D01*
X-8980694Y-118123900D01*
X-8759306Y-118123900D01*
X-8542170Y-118080709D01*
X-8337634Y-117995987D01*
X-8153556Y-117872990D01*
X-7997010Y-117716444D01*
X-7874013Y-117532366D01*
X-7789291Y-117327830D01*
X-7746100Y-117110694D01*
X-7746100Y-116889306D01*
X-7748089Y-116879306D01*
X-6073900Y-116879306D01*
X-6073900Y-117100694D01*
X-6030709Y-117317830D01*
X-5945987Y-117522366D01*
X-5822990Y-117706444D01*
X-5666444Y-117862990D01*
X-5482366Y-117985987D01*
X-5277830Y-118070709D01*
X-5060694Y-118113900D01*
X-4839306Y-118113900D01*
X-4622170Y-118070709D01*
X-4417634Y-117985987D01*
X-4233556Y-117862990D01*
X-4077010Y-117706444D01*
X-3954013Y-117522366D01*
X-3869291Y-117317830D01*
X-3826100Y-117100694D01*
X-3826100Y-116889306D01*
X-3073900Y-116889306D01*
X-3073900Y-117110694D01*
X-3030709Y-117327830D01*
X-2945987Y-117532366D01*
X-2822990Y-117716444D01*
X-2666444Y-117872990D01*
X-2482366Y-117995987D01*
X-2277830Y-118080709D01*
X-2060694Y-118123900D01*
X-1839306Y-118123900D01*
X-1622170Y-118080709D01*
X-1417634Y-117995987D01*
X-1233556Y-117872990D01*
X-1077010Y-117716444D01*
X-954013Y-117532366D01*
X-869291Y-117327830D01*
X-826100Y-117110694D01*
X-826100Y-116889306D01*
X-828089Y-116879306D01*
X846100Y-116879306D01*
X846100Y-117100694D01*
X889291Y-117317830D01*
X974013Y-117522366D01*
X1097010Y-117706444D01*
X1253556Y-117862990D01*
X1437634Y-117985987D01*
X1642170Y-118070709D01*
X1859306Y-118113900D01*
X2080694Y-118113900D01*
X2297830Y-118070709D01*
X2502366Y-117985987D01*
X2686444Y-117862990D01*
X2842990Y-117706444D01*
X2965987Y-117522366D01*
X3050709Y-117317830D01*
X3093900Y-117100694D01*
X3093900Y-116879306D01*
X3826100Y-116879306D01*
X3826100Y-117100694D01*
X3869291Y-117317830D01*
X3954013Y-117522366D01*
X4077010Y-117706444D01*
X4233556Y-117862990D01*
X4417634Y-117985987D01*
X4622170Y-118070709D01*
X4839306Y-118113900D01*
X5060694Y-118113900D01*
X5277830Y-118070709D01*
X5482366Y-117985987D01*
X5666444Y-117862990D01*
X5822990Y-117706444D01*
X5945987Y-117522366D01*
X6030709Y-117317830D01*
X6073900Y-117100694D01*
X6073900Y-116879306D01*
X7766100Y-116879306D01*
X7766100Y-117100694D01*
X7809291Y-117317830D01*
X7894013Y-117522366D01*
X8017010Y-117706444D01*
X8173556Y-117862990D01*
X8357634Y-117985987D01*
X8562170Y-118070709D01*
X8779306Y-118113900D01*
X9000694Y-118113900D01*
X9217830Y-118070709D01*
X9422366Y-117985987D01*
X9606444Y-117862990D01*
X9762990Y-117706444D01*
X9885987Y-117522366D01*
X9970709Y-117317830D01*
X10013900Y-117100694D01*
X10013900Y-116889306D01*
X10766100Y-116889306D01*
X10766100Y-117110694D01*
X10809291Y-117327830D01*
X10894013Y-117532366D01*
X11017010Y-117716444D01*
X11173556Y-117872990D01*
X11357634Y-117995987D01*
X11562170Y-118080709D01*
X11779306Y-118123900D01*
X12000694Y-118123900D01*
X12217830Y-118080709D01*
X12422366Y-117995987D01*
X12606444Y-117872990D01*
X12762990Y-117716444D01*
X12885987Y-117532366D01*
X12970709Y-117327830D01*
X13013900Y-117110694D01*
X13013900Y-116889306D01*
X13011911Y-116879306D01*
X14686100Y-116879306D01*
X14686100Y-117100694D01*
X14729291Y-117317830D01*
X14814013Y-117522366D01*
X14937010Y-117706444D01*
X15093556Y-117862990D01*
X15277634Y-117985987D01*
X15482170Y-118070709D01*
X15699306Y-118113900D01*
X15920694Y-118113900D01*
X16137830Y-118070709D01*
X16342366Y-117985987D01*
X16526444Y-117862990D01*
X16682990Y-117706444D01*
X16805987Y-117522366D01*
X16890709Y-117317830D01*
X16933900Y-117100694D01*
X16933900Y-116889306D01*
X17686100Y-116889306D01*
X17686100Y-117110694D01*
X17729291Y-117327830D01*
X17814013Y-117532366D01*
X17937010Y-117716444D01*
X18093556Y-117872990D01*
X18277634Y-117995987D01*
X18482170Y-118080709D01*
X18699306Y-118123900D01*
X18920694Y-118123900D01*
X19137830Y-118080709D01*
X19342366Y-117995987D01*
X19526444Y-117872990D01*
X19682990Y-117716444D01*
X19805987Y-117532366D01*
X19890709Y-117327830D01*
X19933900Y-117110694D01*
X19933900Y-116889306D01*
X21586100Y-116889306D01*
X21586100Y-117110694D01*
X21629291Y-117327830D01*
X21714013Y-117532366D01*
X21837010Y-117716444D01*
X21993556Y-117872990D01*
X22177634Y-117995987D01*
X22382170Y-118080709D01*
X22599306Y-118123900D01*
X22820694Y-118123900D01*
X23037830Y-118080709D01*
X23242366Y-117995987D01*
X23426444Y-117872990D01*
X23582990Y-117716444D01*
X23705987Y-117532366D01*
X23790709Y-117327830D01*
X23833900Y-117110694D01*
X23833900Y-116889306D01*
X24606100Y-116889306D01*
X24606100Y-117110694D01*
X24649291Y-117327830D01*
X24734013Y-117532366D01*
X24857010Y-117716444D01*
X25013556Y-117872990D01*
X25197634Y-117995987D01*
X25402170Y-118080709D01*
X25619306Y-118123900D01*
X25840694Y-118123900D01*
X26057830Y-118080709D01*
X26262366Y-117995987D01*
X26446444Y-117872990D01*
X26602990Y-117716444D01*
X26725987Y-117532366D01*
X26810709Y-117327830D01*
X26853900Y-117110694D01*
X26853900Y-116889306D01*
X26851911Y-116879306D01*
X28526100Y-116879306D01*
X28526100Y-117100694D01*
X28569291Y-117317830D01*
X28654013Y-117522366D01*
X28777010Y-117706444D01*
X28933556Y-117862990D01*
X29117634Y-117985987D01*
X29322170Y-118070709D01*
X29539306Y-118113900D01*
X29760694Y-118113900D01*
X29977830Y-118070709D01*
X30182366Y-117985987D01*
X30366444Y-117862990D01*
X30522990Y-117706444D01*
X30645987Y-117522366D01*
X30730709Y-117317830D01*
X30773900Y-117100694D01*
X30773900Y-116889306D01*
X31526100Y-116889306D01*
X31526100Y-117110694D01*
X31569291Y-117327830D01*
X31654013Y-117532366D01*
X31777010Y-117716444D01*
X31933556Y-117872990D01*
X32117634Y-117995987D01*
X32322170Y-118080709D01*
X32539306Y-118123900D01*
X32760694Y-118123900D01*
X32977830Y-118080709D01*
X33182366Y-117995987D01*
X33366444Y-117872990D01*
X33522990Y-117716444D01*
X33645987Y-117532366D01*
X33730709Y-117327830D01*
X33773900Y-117110694D01*
X33773900Y-116889306D01*
X33771911Y-116879306D01*
X35446100Y-116879306D01*
X35446100Y-117100694D01*
X35489291Y-117317830D01*
X35574013Y-117522366D01*
X35697010Y-117706444D01*
X35853556Y-117862990D01*
X36037634Y-117985987D01*
X36242170Y-118070709D01*
X36459306Y-118113900D01*
X36680694Y-118113900D01*
X36897830Y-118070709D01*
X37102366Y-117985987D01*
X37286444Y-117862990D01*
X37442990Y-117706444D01*
X37565987Y-117522366D01*
X37650709Y-117317830D01*
X37693900Y-117100694D01*
X37693900Y-116889306D01*
X38446100Y-116889306D01*
X38446100Y-117110694D01*
X38489291Y-117327830D01*
X38574013Y-117532366D01*
X38697010Y-117716444D01*
X38853556Y-117872990D01*
X39037634Y-117995987D01*
X39242170Y-118080709D01*
X39459306Y-118123900D01*
X39680694Y-118123900D01*
X39897830Y-118080709D01*
X40102366Y-117995987D01*
X40286444Y-117872990D01*
X40442990Y-117716444D01*
X40565987Y-117532366D01*
X40650709Y-117327830D01*
X40693900Y-117110694D01*
X40693900Y-116889306D01*
X40691911Y-116879306D01*
X42366100Y-116879306D01*
X42366100Y-117100694D01*
X42409291Y-117317830D01*
X42494013Y-117522366D01*
X42617010Y-117706444D01*
X42773556Y-117862990D01*
X42957634Y-117985987D01*
X43162170Y-118070709D01*
X43379306Y-118113900D01*
X43600694Y-118113900D01*
X43817830Y-118070709D01*
X44022366Y-117985987D01*
X44206444Y-117862990D01*
X44362990Y-117706444D01*
X44485987Y-117522366D01*
X44570709Y-117317830D01*
X44613900Y-117100694D01*
X44613900Y-116889306D01*
X45366100Y-116889306D01*
X45366100Y-117110694D01*
X45409291Y-117327830D01*
X45494013Y-117532366D01*
X45617010Y-117716444D01*
X45773556Y-117872990D01*
X45957634Y-117995987D01*
X46162170Y-118080709D01*
X46379306Y-118123900D01*
X46600694Y-118123900D01*
X46817830Y-118080709D01*
X47022366Y-117995987D01*
X47206444Y-117872990D01*
X47362990Y-117716444D01*
X47485987Y-117532366D01*
X47570709Y-117327830D01*
X47613900Y-117110694D01*
X47613900Y-116889306D01*
X47611911Y-116879306D01*
X49286100Y-116879306D01*
X49286100Y-117100694D01*
X49329291Y-117317830D01*
X49414013Y-117522366D01*
X49537010Y-117706444D01*
X49693556Y-117862990D01*
X49877634Y-117985987D01*
X50082170Y-118070709D01*
X50299306Y-118113900D01*
X50520694Y-118113900D01*
X50737830Y-118070709D01*
X50942366Y-117985987D01*
X51126444Y-117862990D01*
X51282990Y-117706444D01*
X51405987Y-117522366D01*
X51490709Y-117317830D01*
X51533900Y-117100694D01*
X51533900Y-116889306D01*
X52286100Y-116889306D01*
X52286100Y-117110694D01*
X52329291Y-117327830D01*
X52414013Y-117532366D01*
X52537010Y-117716444D01*
X52693556Y-117872990D01*
X52877634Y-117995987D01*
X53082170Y-118080709D01*
X53299306Y-118123900D01*
X53520694Y-118123900D01*
X53737830Y-118080709D01*
X53942366Y-117995987D01*
X54126444Y-117872990D01*
X54282990Y-117716444D01*
X54405987Y-117532366D01*
X54490709Y-117327830D01*
X54533900Y-117110694D01*
X54533900Y-116889306D01*
X54531911Y-116879306D01*
X56206100Y-116879306D01*
X56206100Y-117100694D01*
X56249291Y-117317830D01*
X56334013Y-117522366D01*
X56457010Y-117706444D01*
X56613556Y-117862990D01*
X56797634Y-117985987D01*
X57002170Y-118070709D01*
X57219306Y-118113900D01*
X57440694Y-118113900D01*
X57657830Y-118070709D01*
X57862366Y-117985987D01*
X58046444Y-117862990D01*
X58202990Y-117706444D01*
X58325987Y-117522366D01*
X58410709Y-117317830D01*
X58453900Y-117100694D01*
X58453900Y-116889306D01*
X59206100Y-116889306D01*
X59206100Y-117110694D01*
X59249291Y-117327830D01*
X59334013Y-117532366D01*
X59457010Y-117716444D01*
X59613556Y-117872990D01*
X59797634Y-117995987D01*
X60002170Y-118080709D01*
X60219306Y-118123900D01*
X60440694Y-118123900D01*
X60657830Y-118080709D01*
X60862366Y-117995987D01*
X61046444Y-117872990D01*
X61202990Y-117716444D01*
X61325987Y-117532366D01*
X61410709Y-117327830D01*
X61453900Y-117110694D01*
X61453900Y-116889306D01*
X61451911Y-116879306D01*
X63126100Y-116879306D01*
X63126100Y-117100694D01*
X63169291Y-117317830D01*
X63254013Y-117522366D01*
X63377010Y-117706444D01*
X63533556Y-117862990D01*
X63717634Y-117985987D01*
X63922170Y-118070709D01*
X64139306Y-118113900D01*
X64360694Y-118113900D01*
X64577830Y-118070709D01*
X64782366Y-117985987D01*
X64966444Y-117862990D01*
X65122990Y-117706444D01*
X65245987Y-117522366D01*
X65330709Y-117317830D01*
X65373900Y-117100694D01*
X65373900Y-116889306D01*
X66126100Y-116889306D01*
X66126100Y-117110694D01*
X66169291Y-117327830D01*
X66254013Y-117532366D01*
X66377010Y-117716444D01*
X66533556Y-117872990D01*
X66717634Y-117995987D01*
X66922170Y-118080709D01*
X67139306Y-118123900D01*
X67360694Y-118123900D01*
X67577830Y-118080709D01*
X67782366Y-117995987D01*
X67966444Y-117872990D01*
X68122990Y-117716444D01*
X68245987Y-117532366D01*
X68330709Y-117327830D01*
X68373900Y-117110694D01*
X68373900Y-116889306D01*
X68371911Y-116879306D01*
X70046100Y-116879306D01*
X70046100Y-117100694D01*
X70089291Y-117317830D01*
X70174013Y-117522366D01*
X70297010Y-117706444D01*
X70453556Y-117862990D01*
X70637634Y-117985987D01*
X70842170Y-118070709D01*
X71059306Y-118113900D01*
X71280694Y-118113900D01*
X71497830Y-118070709D01*
X71702366Y-117985987D01*
X71886444Y-117862990D01*
X72042990Y-117706444D01*
X72165987Y-117522366D01*
X72250709Y-117317830D01*
X72293900Y-117100694D01*
X72293900Y-116889306D01*
X73046100Y-116889306D01*
X73046100Y-117110694D01*
X73089291Y-117327830D01*
X73174013Y-117532366D01*
X73297010Y-117716444D01*
X73453556Y-117872990D01*
X73637634Y-117995987D01*
X73842170Y-118080709D01*
X74059306Y-118123900D01*
X74280694Y-118123900D01*
X74497830Y-118080709D01*
X74702366Y-117995987D01*
X74886444Y-117872990D01*
X75042990Y-117716444D01*
X75165987Y-117532366D01*
X75250709Y-117327830D01*
X75293900Y-117110694D01*
X75293900Y-116889306D01*
X75291911Y-116879306D01*
X76966100Y-116879306D01*
X76966100Y-117100694D01*
X77009291Y-117317830D01*
X77094013Y-117522366D01*
X77217010Y-117706444D01*
X77373556Y-117862990D01*
X77557634Y-117985987D01*
X77762170Y-118070709D01*
X77979306Y-118113900D01*
X78200694Y-118113900D01*
X78417830Y-118070709D01*
X78622366Y-117985987D01*
X78806444Y-117862990D01*
X78962990Y-117706444D01*
X79085987Y-117522366D01*
X79170709Y-117317830D01*
X79213900Y-117100694D01*
X79213900Y-116889306D01*
X79966100Y-116889306D01*
X79966100Y-117110694D01*
X80009291Y-117327830D01*
X80094013Y-117532366D01*
X80217010Y-117716444D01*
X80373556Y-117872990D01*
X80557634Y-117995987D01*
X80762170Y-118080709D01*
X80979306Y-118123900D01*
X81200694Y-118123900D01*
X81417830Y-118080709D01*
X81622366Y-117995987D01*
X81806444Y-117872990D01*
X81962990Y-117716444D01*
X82085987Y-117532366D01*
X82170709Y-117327830D01*
X82213900Y-117110694D01*
X82213900Y-116889306D01*
X82211911Y-116879306D01*
X83886100Y-116879306D01*
X83886100Y-117100694D01*
X83929291Y-117317830D01*
X84014013Y-117522366D01*
X84137010Y-117706444D01*
X84293556Y-117862990D01*
X84477634Y-117985987D01*
X84682170Y-118070709D01*
X84899306Y-118113900D01*
X85120694Y-118113900D01*
X85337830Y-118070709D01*
X85542366Y-117985987D01*
X85726444Y-117862990D01*
X85882990Y-117706444D01*
X86005987Y-117522366D01*
X86090709Y-117317830D01*
X86133900Y-117100694D01*
X86133900Y-116889306D01*
X86886100Y-116889306D01*
X86886100Y-117110694D01*
X86929291Y-117327830D01*
X87014013Y-117532366D01*
X87137010Y-117716444D01*
X87293556Y-117872990D01*
X87477634Y-117995987D01*
X87682170Y-118080709D01*
X87899306Y-118123900D01*
X88120694Y-118123900D01*
X88337830Y-118080709D01*
X88542366Y-117995987D01*
X88726444Y-117872990D01*
X88882990Y-117716444D01*
X89005987Y-117532366D01*
X89090709Y-117327830D01*
X89133900Y-117110694D01*
X89133900Y-116889306D01*
X89131911Y-116879306D01*
X90806100Y-116879306D01*
X90806100Y-117100694D01*
X90849291Y-117317830D01*
X90934013Y-117522366D01*
X91057010Y-117706444D01*
X91213556Y-117862990D01*
X91397634Y-117985987D01*
X91602170Y-118070709D01*
X91819306Y-118113900D01*
X92040694Y-118113900D01*
X92257830Y-118070709D01*
X92462366Y-117985987D01*
X92646444Y-117862990D01*
X92802990Y-117706444D01*
X92925987Y-117522366D01*
X93010709Y-117317830D01*
X93053900Y-117100694D01*
X93053900Y-116889306D01*
X93806100Y-116889306D01*
X93806100Y-117110694D01*
X93849291Y-117327830D01*
X93934013Y-117532366D01*
X94057010Y-117716444D01*
X94213556Y-117872990D01*
X94397634Y-117995987D01*
X94602170Y-118080709D01*
X94819306Y-118123900D01*
X95040694Y-118123900D01*
X95257830Y-118080709D01*
X95462366Y-117995987D01*
X95646444Y-117872990D01*
X95802990Y-117716444D01*
X95925987Y-117532366D01*
X96010709Y-117327830D01*
X96053900Y-117110694D01*
X96053900Y-116889306D01*
X97706100Y-116889306D01*
X97706100Y-117110694D01*
X97749291Y-117327830D01*
X97834013Y-117532366D01*
X97957010Y-117716444D01*
X98113556Y-117872990D01*
X98297634Y-117995987D01*
X98502170Y-118080709D01*
X98719306Y-118123900D01*
X98940694Y-118123900D01*
X99157830Y-118080709D01*
X99362366Y-117995987D01*
X99546444Y-117872990D01*
X99702990Y-117716444D01*
X99825987Y-117532366D01*
X99910709Y-117327830D01*
X99953900Y-117110694D01*
X99953900Y-116889306D01*
X99951911Y-116879306D01*
X100706100Y-116879306D01*
X100706100Y-117100694D01*
X100749291Y-117317830D01*
X100834013Y-117522366D01*
X100957010Y-117706444D01*
X101113556Y-117862990D01*
X101297634Y-117985987D01*
X101502170Y-118070709D01*
X101719306Y-118113900D01*
X101940694Y-118113900D01*
X102157830Y-118070709D01*
X102362366Y-117985987D01*
X102546444Y-117862990D01*
X102702990Y-117706444D01*
X102825987Y-117522366D01*
X102910709Y-117317830D01*
X102953900Y-117100694D01*
X102953900Y-116879306D01*
X102910709Y-116662170D01*
X102825987Y-116457634D01*
X102702990Y-116273556D01*
X102546444Y-116117010D01*
X102362366Y-115994013D01*
X102157830Y-115909291D01*
X101940694Y-115866100D01*
X101719306Y-115866100D01*
X101502170Y-115909291D01*
X101297634Y-115994013D01*
X101113556Y-116117010D01*
X100957010Y-116273556D01*
X100834013Y-116457634D01*
X100749291Y-116662170D01*
X100706100Y-116879306D01*
X99951911Y-116879306D01*
X99910709Y-116672170D01*
X99825987Y-116467634D01*
X99702990Y-116283556D01*
X99546444Y-116127010D01*
X99362366Y-116004013D01*
X99157830Y-115919291D01*
X98940694Y-115876100D01*
X98719306Y-115876100D01*
X98502170Y-115919291D01*
X98297634Y-116004013D01*
X98113556Y-116127010D01*
X97957010Y-116283556D01*
X97834013Y-116467634D01*
X97749291Y-116672170D01*
X97706100Y-116889306D01*
X96053900Y-116889306D01*
X96010709Y-116672170D01*
X95925987Y-116467634D01*
X95802990Y-116283556D01*
X95646444Y-116127010D01*
X95462366Y-116004013D01*
X95257830Y-115919291D01*
X95040694Y-115876100D01*
X94819306Y-115876100D01*
X94602170Y-115919291D01*
X94397634Y-116004013D01*
X94213556Y-116127010D01*
X94057010Y-116283556D01*
X93934013Y-116467634D01*
X93849291Y-116672170D01*
X93806100Y-116889306D01*
X93053900Y-116889306D01*
X93053900Y-116879306D01*
X93010709Y-116662170D01*
X92925987Y-116457634D01*
X92802990Y-116273556D01*
X92646444Y-116117010D01*
X92462366Y-115994013D01*
X92257830Y-115909291D01*
X92040694Y-115866100D01*
X91819306Y-115866100D01*
X91602170Y-115909291D01*
X91397634Y-115994013D01*
X91213556Y-116117010D01*
X91057010Y-116273556D01*
X90934013Y-116457634D01*
X90849291Y-116662170D01*
X90806100Y-116879306D01*
X89131911Y-116879306D01*
X89090709Y-116672170D01*
X89005987Y-116467634D01*
X88882990Y-116283556D01*
X88726444Y-116127010D01*
X88542366Y-116004013D01*
X88337830Y-115919291D01*
X88120694Y-115876100D01*
X87899306Y-115876100D01*
X87682170Y-115919291D01*
X87477634Y-116004013D01*
X87293556Y-116127010D01*
X87137010Y-116283556D01*
X87014013Y-116467634D01*
X86929291Y-116672170D01*
X86886100Y-116889306D01*
X86133900Y-116889306D01*
X86133900Y-116879306D01*
X86090709Y-116662170D01*
X86005987Y-116457634D01*
X85882990Y-116273556D01*
X85726444Y-116117010D01*
X85542366Y-115994013D01*
X85337830Y-115909291D01*
X85120694Y-115866100D01*
X84899306Y-115866100D01*
X84682170Y-115909291D01*
X84477634Y-115994013D01*
X84293556Y-116117010D01*
X84137010Y-116273556D01*
X84014013Y-116457634D01*
X83929291Y-116662170D01*
X83886100Y-116879306D01*
X82211911Y-116879306D01*
X82170709Y-116672170D01*
X82085987Y-116467634D01*
X81962990Y-116283556D01*
X81806444Y-116127010D01*
X81622366Y-116004013D01*
X81417830Y-115919291D01*
X81200694Y-115876100D01*
X80979306Y-115876100D01*
X80762170Y-115919291D01*
X80557634Y-116004013D01*
X80373556Y-116127010D01*
X80217010Y-116283556D01*
X80094013Y-116467634D01*
X80009291Y-116672170D01*
X79966100Y-116889306D01*
X79213900Y-116889306D01*
X79213900Y-116879306D01*
X79170709Y-116662170D01*
X79085987Y-116457634D01*
X78962990Y-116273556D01*
X78806444Y-116117010D01*
X78622366Y-115994013D01*
X78417830Y-115909291D01*
X78200694Y-115866100D01*
X77979306Y-115866100D01*
X77762170Y-115909291D01*
X77557634Y-115994013D01*
X77373556Y-116117010D01*
X77217010Y-116273556D01*
X77094013Y-116457634D01*
X77009291Y-116662170D01*
X76966100Y-116879306D01*
X75291911Y-116879306D01*
X75250709Y-116672170D01*
X75165987Y-116467634D01*
X75042990Y-116283556D01*
X74886444Y-116127010D01*
X74702366Y-116004013D01*
X74497830Y-115919291D01*
X74280694Y-115876100D01*
X74059306Y-115876100D01*
X73842170Y-115919291D01*
X73637634Y-116004013D01*
X73453556Y-116127010D01*
X73297010Y-116283556D01*
X73174013Y-116467634D01*
X73089291Y-116672170D01*
X73046100Y-116889306D01*
X72293900Y-116889306D01*
X72293900Y-116879306D01*
X72250709Y-116662170D01*
X72165987Y-116457634D01*
X72042990Y-116273556D01*
X71886444Y-116117010D01*
X71702366Y-115994013D01*
X71497830Y-115909291D01*
X71280694Y-115866100D01*
X71059306Y-115866100D01*
X70842170Y-115909291D01*
X70637634Y-115994013D01*
X70453556Y-116117010D01*
X70297010Y-116273556D01*
X70174013Y-116457634D01*
X70089291Y-116662170D01*
X70046100Y-116879306D01*
X68371911Y-116879306D01*
X68330709Y-116672170D01*
X68245987Y-116467634D01*
X68122990Y-116283556D01*
X67966444Y-116127010D01*
X67782366Y-116004013D01*
X67577830Y-115919291D01*
X67360694Y-115876100D01*
X67139306Y-115876100D01*
X66922170Y-115919291D01*
X66717634Y-116004013D01*
X66533556Y-116127010D01*
X66377010Y-116283556D01*
X66254013Y-116467634D01*
X66169291Y-116672170D01*
X66126100Y-116889306D01*
X65373900Y-116889306D01*
X65373900Y-116879306D01*
X65330709Y-116662170D01*
X65245987Y-116457634D01*
X65122990Y-116273556D01*
X64966444Y-116117010D01*
X64782366Y-115994013D01*
X64577830Y-115909291D01*
X64360694Y-115866100D01*
X64139306Y-115866100D01*
X63922170Y-115909291D01*
X63717634Y-115994013D01*
X63533556Y-116117010D01*
X63377010Y-116273556D01*
X63254013Y-116457634D01*
X63169291Y-116662170D01*
X63126100Y-116879306D01*
X61451911Y-116879306D01*
X61410709Y-116672170D01*
X61325987Y-116467634D01*
X61202990Y-116283556D01*
X61046444Y-116127010D01*
X60862366Y-116004013D01*
X60657830Y-115919291D01*
X60440694Y-115876100D01*
X60219306Y-115876100D01*
X60002170Y-115919291D01*
X59797634Y-116004013D01*
X59613556Y-116127010D01*
X59457010Y-116283556D01*
X59334013Y-116467634D01*
X59249291Y-116672170D01*
X59206100Y-116889306D01*
X58453900Y-116889306D01*
X58453900Y-116879306D01*
X58410709Y-116662170D01*
X58325987Y-116457634D01*
X58202990Y-116273556D01*
X58046444Y-116117010D01*
X57862366Y-115994013D01*
X57657830Y-115909291D01*
X57440694Y-115866100D01*
X57219306Y-115866100D01*
X57002170Y-115909291D01*
X56797634Y-115994013D01*
X56613556Y-116117010D01*
X56457010Y-116273556D01*
X56334013Y-116457634D01*
X56249291Y-116662170D01*
X56206100Y-116879306D01*
X54531911Y-116879306D01*
X54490709Y-116672170D01*
X54405987Y-116467634D01*
X54282990Y-116283556D01*
X54126444Y-116127010D01*
X53942366Y-116004013D01*
X53737830Y-115919291D01*
X53520694Y-115876100D01*
X53299306Y-115876100D01*
X53082170Y-115919291D01*
X52877634Y-116004013D01*
X52693556Y-116127010D01*
X52537010Y-116283556D01*
X52414013Y-116467634D01*
X52329291Y-116672170D01*
X52286100Y-116889306D01*
X51533900Y-116889306D01*
X51533900Y-116879306D01*
X51490709Y-116662170D01*
X51405987Y-116457634D01*
X51282990Y-116273556D01*
X51126444Y-116117010D01*
X50942366Y-115994013D01*
X50737830Y-115909291D01*
X50520694Y-115866100D01*
X50299306Y-115866100D01*
X50082170Y-115909291D01*
X49877634Y-115994013D01*
X49693556Y-116117010D01*
X49537010Y-116273556D01*
X49414013Y-116457634D01*
X49329291Y-116662170D01*
X49286100Y-116879306D01*
X47611911Y-116879306D01*
X47570709Y-116672170D01*
X47485987Y-116467634D01*
X47362990Y-116283556D01*
X47206444Y-116127010D01*
X47022366Y-116004013D01*
X46817830Y-115919291D01*
X46600694Y-115876100D01*
X46379306Y-115876100D01*
X46162170Y-115919291D01*
X45957634Y-116004013D01*
X45773556Y-116127010D01*
X45617010Y-116283556D01*
X45494013Y-116467634D01*
X45409291Y-116672170D01*
X45366100Y-116889306D01*
X44613900Y-116889306D01*
X44613900Y-116879306D01*
X44570709Y-116662170D01*
X44485987Y-116457634D01*
X44362990Y-116273556D01*
X44206444Y-116117010D01*
X44022366Y-115994013D01*
X43817830Y-115909291D01*
X43600694Y-115866100D01*
X43379306Y-115866100D01*
X43162170Y-115909291D01*
X42957634Y-115994013D01*
X42773556Y-116117010D01*
X42617010Y-116273556D01*
X42494013Y-116457634D01*
X42409291Y-116662170D01*
X42366100Y-116879306D01*
X40691911Y-116879306D01*
X40650709Y-116672170D01*
X40565987Y-116467634D01*
X40442990Y-116283556D01*
X40286444Y-116127010D01*
X40102366Y-116004013D01*
X39897830Y-115919291D01*
X39680694Y-115876100D01*
X39459306Y-115876100D01*
X39242170Y-115919291D01*
X39037634Y-116004013D01*
X38853556Y-116127010D01*
X38697010Y-116283556D01*
X38574013Y-116467634D01*
X38489291Y-116672170D01*
X38446100Y-116889306D01*
X37693900Y-116889306D01*
X37693900Y-116879306D01*
X37650709Y-116662170D01*
X37565987Y-116457634D01*
X37442990Y-116273556D01*
X37286444Y-116117010D01*
X37102366Y-115994013D01*
X36897830Y-115909291D01*
X36680694Y-115866100D01*
X36459306Y-115866100D01*
X36242170Y-115909291D01*
X36037634Y-115994013D01*
X35853556Y-116117010D01*
X35697010Y-116273556D01*
X35574013Y-116457634D01*
X35489291Y-116662170D01*
X35446100Y-116879306D01*
X33771911Y-116879306D01*
X33730709Y-116672170D01*
X33645987Y-116467634D01*
X33522990Y-116283556D01*
X33366444Y-116127010D01*
X33182366Y-116004013D01*
X32977830Y-115919291D01*
X32760694Y-115876100D01*
X32539306Y-115876100D01*
X32322170Y-115919291D01*
X32117634Y-116004013D01*
X31933556Y-116127010D01*
X31777010Y-116283556D01*
X31654013Y-116467634D01*
X31569291Y-116672170D01*
X31526100Y-116889306D01*
X30773900Y-116889306D01*
X30773900Y-116879306D01*
X30730709Y-116662170D01*
X30645987Y-116457634D01*
X30522990Y-116273556D01*
X30366444Y-116117010D01*
X30182366Y-115994013D01*
X29977830Y-115909291D01*
X29760694Y-115866100D01*
X29539306Y-115866100D01*
X29322170Y-115909291D01*
X29117634Y-115994013D01*
X28933556Y-116117010D01*
X28777010Y-116273556D01*
X28654013Y-116457634D01*
X28569291Y-116662170D01*
X28526100Y-116879306D01*
X26851911Y-116879306D01*
X26810709Y-116672170D01*
X26725987Y-116467634D01*
X26602990Y-116283556D01*
X26446444Y-116127010D01*
X26262366Y-116004013D01*
X26057830Y-115919291D01*
X25840694Y-115876100D01*
X25619306Y-115876100D01*
X25402170Y-115919291D01*
X25197634Y-116004013D01*
X25013556Y-116127010D01*
X24857010Y-116283556D01*
X24734013Y-116467634D01*
X24649291Y-116672170D01*
X24606100Y-116889306D01*
X23833900Y-116889306D01*
X23790709Y-116672170D01*
X23705987Y-116467634D01*
X23582990Y-116283556D01*
X23426444Y-116127010D01*
X23242366Y-116004013D01*
X23037830Y-115919291D01*
X22820694Y-115876100D01*
X22599306Y-115876100D01*
X22382170Y-115919291D01*
X22177634Y-116004013D01*
X21993556Y-116127010D01*
X21837010Y-116283556D01*
X21714013Y-116467634D01*
X21629291Y-116672170D01*
X21586100Y-116889306D01*
X19933900Y-116889306D01*
X19890709Y-116672170D01*
X19805987Y-116467634D01*
X19682990Y-116283556D01*
X19526444Y-116127010D01*
X19342366Y-116004013D01*
X19137830Y-115919291D01*
X18920694Y-115876100D01*
X18699306Y-115876100D01*
X18482170Y-115919291D01*
X18277634Y-116004013D01*
X18093556Y-116127010D01*
X17937010Y-116283556D01*
X17814013Y-116467634D01*
X17729291Y-116672170D01*
X17686100Y-116889306D01*
X16933900Y-116889306D01*
X16933900Y-116879306D01*
X16890709Y-116662170D01*
X16805987Y-116457634D01*
X16682990Y-116273556D01*
X16526444Y-116117010D01*
X16342366Y-115994013D01*
X16137830Y-115909291D01*
X15920694Y-115866100D01*
X15699306Y-115866100D01*
X15482170Y-115909291D01*
X15277634Y-115994013D01*
X15093556Y-116117010D01*
X14937010Y-116273556D01*
X14814013Y-116457634D01*
X14729291Y-116662170D01*
X14686100Y-116879306D01*
X13011911Y-116879306D01*
X12970709Y-116672170D01*
X12885987Y-116467634D01*
X12762990Y-116283556D01*
X12606444Y-116127010D01*
X12422366Y-116004013D01*
X12217830Y-115919291D01*
X12000694Y-115876100D01*
X11779306Y-115876100D01*
X11562170Y-115919291D01*
X11357634Y-116004013D01*
X11173556Y-116127010D01*
X11017010Y-116283556D01*
X10894013Y-116467634D01*
X10809291Y-116672170D01*
X10766100Y-116889306D01*
X10013900Y-116889306D01*
X10013900Y-116879306D01*
X9970709Y-116662170D01*
X9885987Y-116457634D01*
X9762990Y-116273556D01*
X9606444Y-116117010D01*
X9422366Y-115994013D01*
X9217830Y-115909291D01*
X9000694Y-115866100D01*
X8779306Y-115866100D01*
X8562170Y-115909291D01*
X8357634Y-115994013D01*
X8173556Y-116117010D01*
X8017010Y-116273556D01*
X7894013Y-116457634D01*
X7809291Y-116662170D01*
X7766100Y-116879306D01*
X6073900Y-116879306D01*
X6030709Y-116662170D01*
X5945987Y-116457634D01*
X5822990Y-116273556D01*
X5666444Y-116117010D01*
X5482366Y-115994013D01*
X5277830Y-115909291D01*
X5060694Y-115866100D01*
X4839306Y-115866100D01*
X4622170Y-115909291D01*
X4417634Y-115994013D01*
X4233556Y-116117010D01*
X4077010Y-116273556D01*
X3954013Y-116457634D01*
X3869291Y-116662170D01*
X3826100Y-116879306D01*
X3093900Y-116879306D01*
X3050709Y-116662170D01*
X2965987Y-116457634D01*
X2842990Y-116273556D01*
X2686444Y-116117010D01*
X2502366Y-115994013D01*
X2297830Y-115909291D01*
X2080694Y-115866100D01*
X1859306Y-115866100D01*
X1642170Y-115909291D01*
X1437634Y-115994013D01*
X1253556Y-116117010D01*
X1097010Y-116273556D01*
X974013Y-116457634D01*
X889291Y-116662170D01*
X846100Y-116879306D01*
X-828089Y-116879306D01*
X-869291Y-116672170D01*
X-954013Y-116467634D01*
X-1077010Y-116283556D01*
X-1233556Y-116127010D01*
X-1417634Y-116004013D01*
X-1622170Y-115919291D01*
X-1839306Y-115876100D01*
X-2060694Y-115876100D01*
X-2277830Y-115919291D01*
X-2482366Y-116004013D01*
X-2666444Y-116127010D01*
X-2822990Y-116283556D01*
X-2945987Y-116467634D01*
X-3030709Y-116672170D01*
X-3073900Y-116889306D01*
X-3826100Y-116889306D01*
X-3826100Y-116879306D01*
X-3869291Y-116662170D01*
X-3954013Y-116457634D01*
X-4077010Y-116273556D01*
X-4233556Y-116117010D01*
X-4417634Y-115994013D01*
X-4622170Y-115909291D01*
X-4839306Y-115866100D01*
X-5060694Y-115866100D01*
X-5277830Y-115909291D01*
X-5482366Y-115994013D01*
X-5666444Y-116117010D01*
X-5822990Y-116273556D01*
X-5945987Y-116457634D01*
X-6030709Y-116662170D01*
X-6073900Y-116879306D01*
X-7748089Y-116879306D01*
X-7789291Y-116672170D01*
X-7874013Y-116467634D01*
X-7997010Y-116283556D01*
X-8153556Y-116127010D01*
X-8337634Y-116004013D01*
X-8542170Y-115919291D01*
X-8759306Y-115876100D01*
X-8980694Y-115876100D01*
X-9197830Y-115919291D01*
X-9402366Y-116004013D01*
X-9586444Y-116127010D01*
X-9742990Y-116283556D01*
X-9865987Y-116467634D01*
X-9950709Y-116672170D01*
X-9993900Y-116889306D01*
X-10746100Y-116889306D01*
X-10746100Y-116879306D01*
X-10789291Y-116662170D01*
X-10874013Y-116457634D01*
X-10997010Y-116273556D01*
X-11153556Y-116117010D01*
X-11337634Y-115994013D01*
X-11542170Y-115909291D01*
X-11759306Y-115866100D01*
X-11980694Y-115866100D01*
X-12197830Y-115909291D01*
X-12402366Y-115994013D01*
X-12586444Y-116117010D01*
X-12742990Y-116273556D01*
X-12865987Y-116457634D01*
X-12950709Y-116662170D01*
X-12993900Y-116879306D01*
X-14668089Y-116879306D01*
X-14709291Y-116672170D01*
X-14794013Y-116467634D01*
X-14917010Y-116283556D01*
X-15073556Y-116127010D01*
X-15257634Y-116004013D01*
X-15462170Y-115919291D01*
X-15679306Y-115876100D01*
X-15900694Y-115876100D01*
X-16117830Y-115919291D01*
X-16322366Y-116004013D01*
X-16506444Y-116127010D01*
X-16662990Y-116283556D01*
X-16785987Y-116467634D01*
X-16870709Y-116672170D01*
X-16913900Y-116889306D01*
X-17666100Y-116889306D01*
X-17666100Y-116879306D01*
X-17709291Y-116662170D01*
X-17794013Y-116457634D01*
X-17917010Y-116273556D01*
X-18073556Y-116117010D01*
X-18257634Y-115994013D01*
X-18462170Y-115909291D01*
X-18679306Y-115866100D01*
X-18900694Y-115866100D01*
X-19117830Y-115909291D01*
X-19322366Y-115994013D01*
X-19506444Y-116117010D01*
X-19662990Y-116273556D01*
X-19785987Y-116457634D01*
X-19870709Y-116662170D01*
X-19913900Y-116879306D01*
X-21588089Y-116879306D01*
X-21629291Y-116672170D01*
X-21714013Y-116467634D01*
X-21837010Y-116283556D01*
X-21993556Y-116127010D01*
X-22177634Y-116004013D01*
X-22382170Y-115919291D01*
X-22599306Y-115876100D01*
X-22820694Y-115876100D01*
X-23037830Y-115919291D01*
X-23242366Y-116004013D01*
X-23426444Y-116127010D01*
X-23582990Y-116283556D01*
X-23705987Y-116467634D01*
X-23790709Y-116672170D01*
X-23833900Y-116889306D01*
X-24586100Y-116889306D01*
X-24586100Y-116879306D01*
X-24629291Y-116662170D01*
X-24714013Y-116457634D01*
X-24837010Y-116273556D01*
X-24993556Y-116117010D01*
X-25177634Y-115994013D01*
X-25382170Y-115909291D01*
X-25599306Y-115866100D01*
X-25820694Y-115866100D01*
X-26037830Y-115909291D01*
X-26242366Y-115994013D01*
X-26426444Y-116117010D01*
X-26582990Y-116273556D01*
X-26705987Y-116457634D01*
X-26790709Y-116662170D01*
X-26833900Y-116879306D01*
X-28508089Y-116879306D01*
X-28549291Y-116672170D01*
X-28634013Y-116467634D01*
X-28757010Y-116283556D01*
X-28913556Y-116127010D01*
X-29097634Y-116004013D01*
X-29302170Y-115919291D01*
X-29519306Y-115876100D01*
X-29740694Y-115876100D01*
X-29957830Y-115919291D01*
X-30162366Y-116004013D01*
X-30346444Y-116127010D01*
X-30502990Y-116283556D01*
X-30625987Y-116467634D01*
X-30710709Y-116672170D01*
X-30753900Y-116889306D01*
X-31506100Y-116889306D01*
X-31506100Y-116879306D01*
X-31549291Y-116662170D01*
X-31634013Y-116457634D01*
X-31757010Y-116273556D01*
X-31913556Y-116117010D01*
X-32097634Y-115994013D01*
X-32302170Y-115909291D01*
X-32519306Y-115866100D01*
X-32740694Y-115866100D01*
X-32957830Y-115909291D01*
X-33162366Y-115994013D01*
X-33346444Y-116117010D01*
X-33502990Y-116273556D01*
X-33625987Y-116457634D01*
X-33710709Y-116662170D01*
X-33753900Y-116879306D01*
X-35428089Y-116879306D01*
X-35469291Y-116672170D01*
X-35554013Y-116467634D01*
X-35677010Y-116283556D01*
X-35833556Y-116127010D01*
X-36017634Y-116004013D01*
X-36222170Y-115919291D01*
X-36439306Y-115876100D01*
X-36660694Y-115876100D01*
X-36877830Y-115919291D01*
X-37082366Y-116004013D01*
X-37266444Y-116127010D01*
X-37422990Y-116283556D01*
X-37545987Y-116467634D01*
X-37630709Y-116672170D01*
X-37673900Y-116889306D01*
X-38446100Y-116889306D01*
X-38489291Y-116672170D01*
X-38574013Y-116467634D01*
X-38697010Y-116283556D01*
X-38853556Y-116127010D01*
X-39037634Y-116004013D01*
X-39242170Y-115919291D01*
X-39459306Y-115876100D01*
X-39680694Y-115876100D01*
X-39897830Y-115919291D01*
X-40102366Y-116004013D01*
X-40286444Y-116127010D01*
X-40442990Y-116283556D01*
X-40565987Y-116467634D01*
X-40650709Y-116672170D01*
X-40693900Y-116889306D01*
X-42346100Y-116889306D01*
X-42389291Y-116672170D01*
X-42474013Y-116467634D01*
X-42597010Y-116283556D01*
X-42753556Y-116127010D01*
X-42937634Y-116004013D01*
X-43142170Y-115919291D01*
X-43359306Y-115876100D01*
X-43580694Y-115876100D01*
X-43797830Y-115919291D01*
X-44002366Y-116004013D01*
X-44186444Y-116127010D01*
X-44342990Y-116283556D01*
X-44465987Y-116467634D01*
X-44550709Y-116672170D01*
X-44593900Y-116889306D01*
X-45346100Y-116889306D01*
X-45346100Y-116879306D01*
X-45389291Y-116662170D01*
X-45474013Y-116457634D01*
X-45597010Y-116273556D01*
X-45753556Y-116117010D01*
X-45937634Y-115994013D01*
X-46142170Y-115909291D01*
X-46359306Y-115866100D01*
X-46580694Y-115866100D01*
X-46797830Y-115909291D01*
X-47002366Y-115994013D01*
X-47186444Y-116117010D01*
X-47342990Y-116273556D01*
X-47465987Y-116457634D01*
X-47550709Y-116662170D01*
X-47593900Y-116879306D01*
X-49268089Y-116879306D01*
X-49309291Y-116672170D01*
X-49394013Y-116467634D01*
X-49517010Y-116283556D01*
X-49673556Y-116127010D01*
X-49857634Y-116004013D01*
X-50062170Y-115919291D01*
X-50279306Y-115876100D01*
X-50500694Y-115876100D01*
X-50717830Y-115919291D01*
X-50922366Y-116004013D01*
X-51106444Y-116127010D01*
X-51262990Y-116283556D01*
X-51385987Y-116467634D01*
X-51470709Y-116672170D01*
X-51513900Y-116889306D01*
X-52266100Y-116889306D01*
X-52266100Y-116879306D01*
X-52309291Y-116662170D01*
X-52394013Y-116457634D01*
X-52517010Y-116273556D01*
X-52673556Y-116117010D01*
X-52857634Y-115994013D01*
X-53062170Y-115909291D01*
X-53279306Y-115866100D01*
X-53500694Y-115866100D01*
X-53717830Y-115909291D01*
X-53922366Y-115994013D01*
X-54106444Y-116117010D01*
X-54262990Y-116273556D01*
X-54385987Y-116457634D01*
X-54470709Y-116662170D01*
X-54513900Y-116879306D01*
X-56188089Y-116879306D01*
X-56229291Y-116672170D01*
X-56314013Y-116467634D01*
X-56437010Y-116283556D01*
X-56593556Y-116127010D01*
X-56777634Y-116004013D01*
X-56982170Y-115919291D01*
X-57199306Y-115876100D01*
X-57420694Y-115876100D01*
X-57637830Y-115919291D01*
X-57842366Y-116004013D01*
X-58026444Y-116127010D01*
X-58182990Y-116283556D01*
X-58305987Y-116467634D01*
X-58390709Y-116672170D01*
X-58433900Y-116889306D01*
X-59186100Y-116889306D01*
X-59186100Y-116879306D01*
X-59229291Y-116662170D01*
X-59314013Y-116457634D01*
X-59437010Y-116273556D01*
X-59593556Y-116117010D01*
X-59777634Y-115994013D01*
X-59982170Y-115909291D01*
X-60199306Y-115866100D01*
X-60420694Y-115866100D01*
X-60637830Y-115909291D01*
X-60842366Y-115994013D01*
X-61026444Y-116117010D01*
X-61182990Y-116273556D01*
X-61305987Y-116457634D01*
X-61390709Y-116662170D01*
X-61433900Y-116879306D01*
X-63108089Y-116879306D01*
X-63149291Y-116672170D01*
X-63234013Y-116467634D01*
X-63357010Y-116283556D01*
X-63513556Y-116127010D01*
X-63697634Y-116004013D01*
X-63902170Y-115919291D01*
X-64119306Y-115876100D01*
X-64340694Y-115876100D01*
X-64557830Y-115919291D01*
X-64762366Y-116004013D01*
X-64946444Y-116127010D01*
X-65102990Y-116283556D01*
X-65225987Y-116467634D01*
X-65310709Y-116672170D01*
X-65353900Y-116889306D01*
X-66106100Y-116889306D01*
X-66106100Y-116879306D01*
X-66149291Y-116662170D01*
X-66234013Y-116457634D01*
X-66357010Y-116273556D01*
X-66513556Y-116117010D01*
X-66697634Y-115994013D01*
X-66902170Y-115909291D01*
X-67119306Y-115866100D01*
X-67340694Y-115866100D01*
X-67557830Y-115909291D01*
X-67762366Y-115994013D01*
X-67946444Y-116117010D01*
X-68102990Y-116273556D01*
X-68225987Y-116457634D01*
X-68310709Y-116662170D01*
X-68353900Y-116879306D01*
X-70028089Y-116879306D01*
X-70069291Y-116672170D01*
X-70154013Y-116467634D01*
X-70277010Y-116283556D01*
X-70433556Y-116127010D01*
X-70617634Y-116004013D01*
X-70822170Y-115919291D01*
X-71039306Y-115876100D01*
X-71260694Y-115876100D01*
X-71477830Y-115919291D01*
X-71682366Y-116004013D01*
X-71866444Y-116127010D01*
X-72022990Y-116283556D01*
X-72145987Y-116467634D01*
X-72230709Y-116672170D01*
X-72273900Y-116889306D01*
X-73026100Y-116889306D01*
X-73026100Y-116879306D01*
X-73069291Y-116662170D01*
X-73154013Y-116457634D01*
X-73277010Y-116273556D01*
X-73433556Y-116117010D01*
X-73617634Y-115994013D01*
X-73822170Y-115909291D01*
X-74039306Y-115866100D01*
X-74260694Y-115866100D01*
X-74477830Y-115909291D01*
X-74682366Y-115994013D01*
X-74866444Y-116117010D01*
X-75022990Y-116273556D01*
X-75145987Y-116457634D01*
X-75230709Y-116662170D01*
X-75273900Y-116879306D01*
X-76966100Y-116879306D01*
X-77009291Y-116662170D01*
X-77094013Y-116457634D01*
X-77217010Y-116273556D01*
X-77373556Y-116117010D01*
X-77557634Y-115994013D01*
X-77762170Y-115909291D01*
X-77979306Y-115866100D01*
X-78200694Y-115866100D01*
X-78417830Y-115909291D01*
X-78622366Y-115994013D01*
X-78806444Y-116117010D01*
X-78962990Y-116273556D01*
X-79085987Y-116457634D01*
X-79170709Y-116662170D01*
X-79213900Y-116879306D01*
X-79968089Y-116879306D01*
X-80009291Y-116672170D01*
X-80094013Y-116467634D01*
X-80217010Y-116283556D01*
X-80373556Y-116127010D01*
X-80557634Y-116004013D01*
X-80762170Y-115919291D01*
X-80979306Y-115876100D01*
X-81200694Y-115876100D01*
X-81417830Y-115919291D01*
X-81622366Y-116004013D01*
X-81806444Y-116127010D01*
X-81962990Y-116283556D01*
X-82085987Y-116467634D01*
X-82170709Y-116672170D01*
X-82213900Y-116889306D01*
X-83886100Y-116889306D01*
X-83886100Y-116879306D01*
X-83929291Y-116662170D01*
X-84014013Y-116457634D01*
X-84137010Y-116273556D01*
X-84293556Y-116117010D01*
X-84477634Y-115994013D01*
X-84682170Y-115909291D01*
X-84899306Y-115866100D01*
X-85120694Y-115866100D01*
X-85337830Y-115909291D01*
X-85542366Y-115994013D01*
X-85726444Y-116117010D01*
X-85882990Y-116273556D01*
X-86005987Y-116457634D01*
X-86090709Y-116662170D01*
X-86133900Y-116879306D01*
X-86888089Y-116879306D01*
X-86929291Y-116672170D01*
X-87014013Y-116467634D01*
X-87137010Y-116283556D01*
X-87293556Y-116127010D01*
X-87477634Y-116004013D01*
X-87682170Y-115919291D01*
X-87899306Y-115876100D01*
X-88120694Y-115876100D01*
X-88337830Y-115919291D01*
X-88542366Y-116004013D01*
X-88726444Y-116127010D01*
X-88882990Y-116283556D01*
X-89005987Y-116467634D01*
X-89090709Y-116672170D01*
X-89133900Y-116889306D01*
X-90806100Y-116889306D01*
X-90806100Y-116879306D01*
X-90849291Y-116662170D01*
X-90934013Y-116457634D01*
X-91057010Y-116273556D01*
X-91213556Y-116117010D01*
X-91397634Y-115994013D01*
X-91602170Y-115909291D01*
X-91819306Y-115866100D01*
X-92040694Y-115866100D01*
X-92257830Y-115909291D01*
X-92462366Y-115994013D01*
X-92646444Y-116117010D01*
X-92802990Y-116273556D01*
X-92925987Y-116457634D01*
X-93010709Y-116662170D01*
X-93053900Y-116879306D01*
X-93808089Y-116879306D01*
X-93849291Y-116672170D01*
X-93934013Y-116467634D01*
X-94057010Y-116283556D01*
X-94213556Y-116127010D01*
X-94397634Y-116004013D01*
X-94602170Y-115919291D01*
X-94819306Y-115876100D01*
X-95040694Y-115876100D01*
X-95257830Y-115919291D01*
X-95462366Y-116004013D01*
X-95646444Y-116127010D01*
X-95802990Y-116283556D01*
X-95925987Y-116467634D01*
X-96010709Y-116672170D01*
X-96053900Y-116889306D01*
X-97726100Y-116889306D01*
X-97726100Y-116879306D01*
X-97769291Y-116662170D01*
X-97854013Y-116457634D01*
X-97977010Y-116273556D01*
X-98133556Y-116117010D01*
X-98317634Y-115994013D01*
X-98522170Y-115909291D01*
X-98739306Y-115866100D01*
X-98960694Y-115866100D01*
X-99177830Y-115909291D01*
X-99382366Y-115994013D01*
X-99566444Y-116117010D01*
X-99722990Y-116273556D01*
X-99845987Y-116457634D01*
X-99930709Y-116662170D01*
X-99973900Y-116879306D01*
X-100728089Y-116879306D01*
X-100769291Y-116672170D01*
X-100854013Y-116467634D01*
X-100977010Y-116283556D01*
X-101133556Y-116127010D01*
X-101317634Y-116004013D01*
X-101522170Y-115919291D01*
X-101739306Y-115876100D01*
X-101960694Y-115876100D01*
X-102177830Y-115919291D01*
X-102382366Y-116004013D01*
X-102566444Y-116127010D01*
X-102722990Y-116283556D01*
X-102845987Y-116467634D01*
X-102930709Y-116672170D01*
X-102973900Y-116889306D01*
X-110540800Y-116889306D01*
X-110540800Y147897126D01*
X-37538850Y147897126D01*
X-37538850Y147643234D01*
X-37489318Y147394222D01*
X-37392158Y147159657D01*
X-37251104Y146948554D01*
X-37071576Y146769026D01*
X-36860473Y146627972D01*
X-36625908Y146530812D01*
X-36376896Y146481280D01*
X-36123004Y146481280D01*
X-35873992Y146530812D01*
X-35639427Y146627972D01*
X-35428324Y146769026D01*
X-35248796Y146948554D01*
X-35107742Y147159657D01*
X-35010582Y147394222D01*
X-34961050Y147643234D01*
X-34961050Y147897126D01*
X35761150Y147897126D01*
X35761150Y147643234D01*
X35810682Y147394222D01*
X35907842Y147159657D01*
X36048896Y146948554D01*
X36228424Y146769026D01*
X36439527Y146627972D01*
X36674092Y146530812D01*
X36923104Y146481280D01*
X37176996Y146481280D01*
X37426008Y146530812D01*
X37660573Y146627972D01*
X37871676Y146769026D01*
X38051204Y146948554D01*
X38192258Y147159657D01*
X38289418Y147394222D01*
X38338950Y147643234D01*
X38338950Y147897126D01*
X38289418Y148146138D01*
X38192258Y148380703D01*
X38051204Y148591806D01*
X37871676Y148771334D01*
X37660573Y148912388D01*
X37426008Y149009548D01*
X37176996Y149059080D01*
X36923104Y149059080D01*
X36674092Y149009548D01*
X36439527Y148912388D01*
X36228424Y148771334D01*
X36048896Y148591806D01*
X35907842Y148380703D01*
X35810682Y148146138D01*
X35761150Y147897126D01*
X-34961050Y147897126D01*
X-35010582Y148146138D01*
X-35107742Y148380703D01*
X-35248796Y148591806D01*
X-35428324Y148771334D01*
X-35639427Y148912388D01*
X-35873992Y149009548D01*
X-36123004Y149059080D01*
X-36376896Y149059080D01*
X-36625908Y149009548D01*
X-36860473Y148912388D01*
X-37071576Y148771334D01*
X-37251104Y148591806D01*
X-37392158Y148380703D01*
X-37489318Y148146138D01*
X-37538850Y147897126D01*
X-110540800Y147897126D01*
X-110540800Y164769800D01*
X110921800Y164769800D01*
X110921800Y-125272800D01*
M02*
