G04 #@! TF.GenerationSoftware,KiCad,Pcbnew,(6.0.4-0)*
G04 #@! TF.CreationDate,2023-02-10T11:36:13-08:00*
G04 #@! TF.ProjectId,stripline_anode,73747269-706c-4696-9e65-5f616e6f6465,1a*
G04 #@! TF.SameCoordinates,Original*
G04 #@! TF.FileFunction,Soldermask,Bot*
G04 #@! TF.FilePolarity,Negative*
%FSLAX46Y46*%
G04 Gerber Fmt 4.6, Leading zero omitted, Abs format (unit mm)*
G04 Created by KiCad (PCBNEW (6.0.4-0)) date 2023-02-10 11:36:13*
%MOMM*%
%LPD*%
G01*
G04 APERTURE LIST*
G04 Aperture macros list*
%AMRoundRect*
0 Rectangle with rounded corners*
0 $1 Rounding radius*
0 $2 $3 $4 $5 $6 $7 $8 $9 X,Y pos of 4 corners*
0 Add a 4 corners polygon primitive as box body*
4,1,4,$2,$3,$4,$5,$6,$7,$8,$9,$2,$3,0*
0 Add four circle primitives for the rounded corners*
1,1,$1+$1,$2,$3*
1,1,$1+$1,$4,$5*
1,1,$1+$1,$6,$7*
1,1,$1+$1,$8,$9*
0 Add four rect primitives between the rounded corners*
20,1,$1+$1,$2,$3,$4,$5,0*
20,1,$1+$1,$4,$5,$6,$7,0*
20,1,$1+$1,$6,$7,$8,$9,0*
20,1,$1+$1,$8,$9,$2,$3,0*%
G04 Aperture macros list end*
%ADD10C,1.232000*%
%ADD11C,5.102000*%
%ADD12C,2.602000*%
%ADD13C,2.352000*%
%ADD14RoundRect,0.300999X-0.450001X-1.425001X0.450001X-1.425001X0.450001X1.425001X-0.450001X1.425001X0*%
%ADD15RoundRect,0.300999X0.450001X1.425001X-0.450001X1.425001X-0.450001X-1.425001X0.450001X-1.425001X0*%
%ADD16RoundRect,0.301000X1.450000X-0.537500X1.450000X0.537500X-1.450000X0.537500X-1.450000X-0.537500X0*%
%ADD17RoundRect,0.051000X0.600000X-0.450000X0.600000X0.450000X-0.600000X0.450000X-0.600000X-0.450000X0*%
%ADD18RoundRect,0.051000X0.450000X0.600000X-0.450000X0.600000X-0.450000X-0.600000X0.450000X-0.600000X0*%
%ADD19RoundRect,0.301000X-1.450000X0.537500X-1.450000X-0.537500X1.450000X-0.537500X1.450000X0.537500X0*%
%ADD20C,3.000000*%
%ADD21RoundRect,0.651000X0.162000X-0.900000X0.162000X0.900000X-0.162000X0.900000X-0.162000X-0.900000X0*%
%ADD22RoundRect,0.300999X-2.450001X0.737501X-2.450001X-0.737501X2.450001X-0.737501X2.450001X0.737501X0*%
%ADD23C,1.473600*%
%ADD24RoundRect,0.051000X-0.600000X0.450000X-0.600000X-0.450000X0.600000X-0.450000X0.600000X0.450000X0*%
G04 APERTURE END LIST*
D10*
X311433550Y-90067080D03*
X238133550Y-90067080D03*
D11*
X159346900Y-182892700D03*
X159346900Y-292874700D03*
D12*
X315810900Y-357847900D03*
X336537300Y-357847900D03*
X253631700Y-357847900D03*
D11*
X159388379Y-127840750D03*
X389369300Y-182841900D03*
X389369300Y-292874700D03*
D12*
X212178900Y-357847900D03*
D11*
X159388379Y-347840750D03*
D13*
X180101398Y-106220500D03*
X183693500Y-102628398D03*
X183693500Y-109812602D03*
X187285602Y-106220500D03*
D11*
X389388379Y-347840750D03*
D12*
X212178900Y-117817900D03*
X274358100Y-117817900D03*
X274358100Y-357847900D03*
X232905300Y-357847900D03*
X295135300Y-117817900D03*
X336588100Y-117817900D03*
X295084500Y-357847900D03*
X253631700Y-117817900D03*
X315861700Y-117817900D03*
X232905300Y-117817900D03*
D11*
X389388379Y-127840750D03*
D14*
X322943500Y-394895500D03*
X329043500Y-394895500D03*
D15*
X184643500Y-388320500D03*
X178543500Y-388320500D03*
D16*
X383668500Y-367883000D03*
X383668500Y-363608000D03*
D17*
X271368500Y-400595500D03*
X271368500Y-397295500D03*
D14*
X362543500Y-394820500D03*
X368643500Y-394820500D03*
D11*
X295143500Y-370995500D03*
D14*
X284668500Y-389670500D03*
X290768500Y-389670500D03*
X275493500Y-389720500D03*
X281593500Y-389720500D03*
D18*
X198243500Y-388945500D03*
X194943500Y-388945500D03*
D19*
X185368500Y-379758000D03*
X185368500Y-384033000D03*
D16*
X227318500Y-386958000D03*
X227318500Y-382683000D03*
D20*
X208926832Y-413895500D03*
X199926832Y-413895500D03*
D21*
X204426832Y-395895500D03*
D14*
X332243500Y-389620500D03*
X338343500Y-389620500D03*
X322968500Y-389695500D03*
X329068500Y-389695500D03*
X332243500Y-394920500D03*
X338343500Y-394920500D03*
X234593500Y-395395500D03*
X240693500Y-395395500D03*
X243968500Y-395395500D03*
X250068500Y-395395500D03*
D22*
X220693500Y-382183000D03*
X220693500Y-387458000D03*
D16*
X267468500Y-385233000D03*
X267468500Y-380958000D03*
D20*
X355443500Y-413870500D03*
X346443500Y-413870500D03*
D21*
X350943500Y-395870500D03*
D20*
X184610166Y-413895500D03*
X193610166Y-413895500D03*
D21*
X189110166Y-395895500D03*
D22*
X305793500Y-380458000D03*
X305793500Y-385733000D03*
D14*
X362543500Y-389495500D03*
X368643500Y-389495500D03*
D23*
X342708500Y-363420500D03*
D13*
X340168500Y-360880500D03*
X345248500Y-365960500D03*
X340168500Y-365960500D03*
X345248500Y-360880500D03*
D22*
X352068500Y-380458000D03*
X352068500Y-385733000D03*
D14*
X372893500Y-368870500D03*
X378993500Y-368870500D03*
D20*
X255393500Y-413870500D03*
X264393500Y-413870500D03*
D21*
X259893500Y-395870500D03*
D14*
X371868500Y-389470500D03*
X377968500Y-389470500D03*
D22*
X260843500Y-380458000D03*
X260843500Y-385733000D03*
D19*
X177693500Y-379808000D03*
X177693500Y-384083000D03*
D20*
X311818500Y-413870500D03*
X302818500Y-413870500D03*
D21*
X307318500Y-395870500D03*
D14*
X244018500Y-390070500D03*
X250118500Y-390070500D03*
D23*
X331763500Y-363420500D03*
D13*
X329223500Y-360880500D03*
X329223500Y-365960500D03*
X334303500Y-365960500D03*
X334303500Y-360880500D03*
D16*
X165343500Y-367933000D03*
X165343500Y-363658000D03*
D14*
X371868500Y-394870500D03*
X377968500Y-394870500D03*
D23*
X174068500Y-113945500D03*
D13*
X171528500Y-116485500D03*
X171528500Y-111405500D03*
X176608500Y-116485500D03*
X176608500Y-111405500D03*
D14*
X234543500Y-390020500D03*
X240643500Y-390020500D03*
D20*
X215243500Y-413895500D03*
X224243500Y-413895500D03*
D21*
X219743500Y-395895500D03*
D23*
X320818500Y-363420500D03*
D13*
X318278500Y-365960500D03*
X318278500Y-360880500D03*
X323358500Y-360880500D03*
X323358500Y-365960500D03*
D20*
X178293500Y-413895500D03*
X169293500Y-413895500D03*
D21*
X173793500Y-395895500D03*
D11*
X330493500Y-374145500D03*
D24*
X345943500Y-381445500D03*
X345943500Y-384745500D03*
D11*
X212243500Y-370995500D03*
D15*
X176718500Y-368320500D03*
X170618500Y-368320500D03*
D14*
X275478500Y-395070500D03*
X281578500Y-395070500D03*
D16*
X358268500Y-385233000D03*
X358268500Y-380958000D03*
X312243500Y-385233000D03*
X312243500Y-380958000D03*
D14*
X284768500Y-394995500D03*
X290868500Y-394995500D03*
D23*
X374743500Y-113945500D03*
D13*
X377283500Y-116485500D03*
X372203500Y-111405500D03*
X372203500Y-116485500D03*
X377283500Y-111405500D03*
D11*
X253868500Y-370995500D03*
G36*
X276231472Y-393655001D02*
G01*
X276231473Y-393655007D01*
X276231500Y-393655336D01*
X276231500Y-396235664D01*
X276230500Y-396237396D01*
X276228500Y-396237396D01*
X276227500Y-396235664D01*
X276227499Y-393655330D01*
X276228499Y-393653598D01*
X276230499Y-393653598D01*
X276231472Y-393655001D01*
G37*
G36*
X282331472Y-393655001D02*
G01*
X282331473Y-393655007D01*
X282331500Y-393655336D01*
X282331500Y-396235664D01*
X282330500Y-396237396D01*
X282328500Y-396237396D01*
X282327500Y-396235664D01*
X282327499Y-393655330D01*
X282328499Y-393653598D01*
X282330499Y-393653598D01*
X282331472Y-393655001D01*
G37*
G36*
X223135402Y-388495499D02*
G01*
X223135402Y-388497499D01*
X223133999Y-388498472D01*
X223133993Y-388498473D01*
X223133664Y-388498500D01*
X218253336Y-388498500D01*
X218251604Y-388497500D01*
X218251604Y-388495500D01*
X218253336Y-388494500D01*
X223133670Y-388494499D01*
X223135402Y-388495499D01*
G37*
G36*
X354510402Y-386770499D02*
G01*
X354510402Y-386772499D01*
X354508999Y-386773472D01*
X354508993Y-386773473D01*
X354508664Y-386773500D01*
X349628336Y-386773500D01*
X349626604Y-386772500D01*
X349626604Y-386770500D01*
X349628336Y-386769500D01*
X354508670Y-386769499D01*
X354510402Y-386770499D01*
G37*
G36*
X308235402Y-386770499D02*
G01*
X308235402Y-386772499D01*
X308233999Y-386773472D01*
X308233993Y-386773473D01*
X308233664Y-386773500D01*
X303353336Y-386773500D01*
X303351604Y-386772500D01*
X303351604Y-386770500D01*
X303353336Y-386769500D01*
X308233670Y-386769499D01*
X308235402Y-386770499D01*
G37*
G36*
X263285402Y-386770499D02*
G01*
X263285402Y-386772499D01*
X263283999Y-386773472D01*
X263283993Y-386773473D01*
X263283664Y-386773500D01*
X258403336Y-386773500D01*
X258401604Y-386772500D01*
X258401604Y-386770500D01*
X258403336Y-386769500D01*
X263283670Y-386769499D01*
X263285402Y-386770499D01*
G37*
G36*
X223135396Y-386418500D02*
G01*
X223135396Y-386420500D01*
X223133664Y-386421500D01*
X218253330Y-386421501D01*
X218251598Y-386420501D01*
X218251598Y-386418501D01*
X218253001Y-386417528D01*
X218253007Y-386417527D01*
X218253336Y-386417500D01*
X223133664Y-386417500D01*
X223135396Y-386418500D01*
G37*
G36*
X263285396Y-384693500D02*
G01*
X263285396Y-384695500D01*
X263283664Y-384696500D01*
X258403330Y-384696501D01*
X258401598Y-384695501D01*
X258401598Y-384693501D01*
X258403001Y-384692528D01*
X258403007Y-384692527D01*
X258403336Y-384692500D01*
X263283664Y-384692500D01*
X263285396Y-384693500D01*
G37*
G36*
X308235396Y-384693500D02*
G01*
X308235396Y-384695500D01*
X308233664Y-384696500D01*
X303353330Y-384696501D01*
X303351598Y-384695501D01*
X303351598Y-384693501D01*
X303353001Y-384692528D01*
X303353007Y-384692527D01*
X303353336Y-384692500D01*
X308233664Y-384692500D01*
X308235396Y-384693500D01*
G37*
G36*
X354510396Y-384693500D02*
G01*
X354510396Y-384695500D01*
X354508664Y-384696500D01*
X349628330Y-384696501D01*
X349626598Y-384695501D01*
X349626598Y-384693501D01*
X349628001Y-384692528D01*
X349628007Y-384692527D01*
X349628336Y-384692500D01*
X354508664Y-384692500D01*
X354510396Y-384693500D01*
G37*
G36*
X223135402Y-383220499D02*
G01*
X223135402Y-383222499D01*
X223133999Y-383223472D01*
X223133993Y-383223473D01*
X223133664Y-383223500D01*
X218253336Y-383223500D01*
X218251604Y-383222500D01*
X218251604Y-383220500D01*
X218253336Y-383219500D01*
X223133670Y-383219499D01*
X223135402Y-383220499D01*
G37*
G36*
X263285402Y-381495499D02*
G01*
X263285402Y-381497499D01*
X263283999Y-381498472D01*
X263283993Y-381498473D01*
X263283664Y-381498500D01*
X258403336Y-381498500D01*
X258401604Y-381497500D01*
X258401604Y-381495500D01*
X258403336Y-381494500D01*
X263283670Y-381494499D01*
X263285402Y-381495499D01*
G37*
G36*
X308235402Y-381495499D02*
G01*
X308235402Y-381497499D01*
X308233999Y-381498472D01*
X308233993Y-381498473D01*
X308233664Y-381498500D01*
X303353336Y-381498500D01*
X303351604Y-381497500D01*
X303351604Y-381495500D01*
X303353336Y-381494500D01*
X308233670Y-381494499D01*
X308235402Y-381495499D01*
G37*
G36*
X354510402Y-381495499D02*
G01*
X354510402Y-381497499D01*
X354508999Y-381498472D01*
X354508993Y-381498473D01*
X354508664Y-381498500D01*
X349628336Y-381498500D01*
X349626604Y-381497500D01*
X349626604Y-381495500D01*
X349628336Y-381494500D01*
X354508670Y-381494499D01*
X354510402Y-381495499D01*
G37*
G36*
X223135396Y-381143500D02*
G01*
X223135396Y-381145500D01*
X223133664Y-381146500D01*
X218253330Y-381146501D01*
X218251598Y-381145501D01*
X218251598Y-381143501D01*
X218253001Y-381142528D01*
X218253007Y-381142527D01*
X218253336Y-381142500D01*
X223133664Y-381142500D01*
X223135396Y-381143500D01*
G37*
G36*
X263285396Y-379418500D02*
G01*
X263285396Y-379420500D01*
X263283664Y-379421500D01*
X258403330Y-379421501D01*
X258401598Y-379420501D01*
X258401598Y-379418501D01*
X258403001Y-379417528D01*
X258403007Y-379417527D01*
X258403336Y-379417500D01*
X263283664Y-379417500D01*
X263285396Y-379418500D01*
G37*
G36*
X308235396Y-379418500D02*
G01*
X308235396Y-379420500D01*
X308233664Y-379421500D01*
X303353330Y-379421501D01*
X303351598Y-379420501D01*
X303351598Y-379418501D01*
X303353001Y-379417528D01*
X303353007Y-379417527D01*
X303353336Y-379417500D01*
X308233664Y-379417500D01*
X308235396Y-379418500D01*
G37*
G36*
X354510396Y-379418500D02*
G01*
X354510396Y-379420500D01*
X354508664Y-379421500D01*
X349628330Y-379421501D01*
X349626598Y-379420501D01*
X349626598Y-379418501D01*
X349628001Y-379417528D01*
X349628007Y-379417527D01*
X349628336Y-379417500D01*
X354508664Y-379417500D01*
X354510396Y-379418500D01*
G37*
M02*
