G04 #@! TF.GenerationSoftware,KiCad,Pcbnew,(6.0.4-0)*
G04 #@! TF.CreationDate,2023-02-17T12:35:34-08:00*
G04 #@! TF.ProjectId,stripline_anode,73747269-706c-4696-9e65-5f616e6f6465,1a*
G04 #@! TF.SameCoordinates,Original*
G04 #@! TF.FileFunction,OtherDrawing,Comment*
%FSLAX46Y46*%
G04 Gerber Fmt 4.6, Leading zero omitted, Abs format (unit mm)*
G04 Created by KiCad (PCBNEW (6.0.4-0)) date 2023-02-17 12:35:34*
%MOMM*%
%LPD*%
G01*
G04 APERTURE LIST*
%ADD10C,2.125000*%
%ADD11C,1.250000*%
%ADD12C,0.100000*%
%ADD13C,0.120000*%
G04 APERTURE END LIST*
D10*
X160446288Y-182840740D02*
G75*
G03*
X160446288Y-182840740I-1062500J0D01*
G01*
X390446278Y-182840740D02*
G75*
G03*
X390446278Y-182840740I-1062500J0D01*
G01*
D11*
X233548768Y-117840740D02*
G75*
G03*
X233548768Y-117840740I-625000J0D01*
G01*
X295738768Y-117840740D02*
G75*
G03*
X295738768Y-117840740I-625000J0D01*
G01*
X337198778Y-117840740D02*
G75*
G03*
X337198778Y-117840740I-625000J0D01*
G01*
D10*
X160446288Y-347840740D02*
G75*
G03*
X160446288Y-347840740I-1062500J0D01*
G01*
X390446278Y-292840750D02*
G75*
G03*
X390446278Y-292840750I-1062500J0D01*
G01*
D11*
X316468768Y-357840740D02*
G75*
G03*
X316468768Y-357840740I-625000J0D01*
G01*
X254278778Y-117840740D02*
G75*
G03*
X254278778Y-117840740I-625000J0D01*
G01*
X316468768Y-117840740D02*
G75*
G03*
X316468768Y-117840740I-625000J0D01*
G01*
X275008788Y-357840740D02*
G75*
G03*
X275008788Y-357840740I-625000J0D01*
G01*
D10*
X390446278Y-127840750D02*
G75*
G03*
X390446278Y-127840750I-1062500J0D01*
G01*
D12*
X396303788Y-68790750D02*
X151373788Y-68790750D01*
X151373788Y-68790750D02*
X151373788Y-375800750D01*
X151373788Y-375800750D02*
X396303788Y-375800750D01*
X396303788Y-375800750D02*
X396303788Y-68790750D01*
X159383788Y-127840750D02*
X389383788Y-127840750D01*
X389383788Y-127840750D02*
X389383788Y-347840750D01*
X389383788Y-347840750D02*
X159383788Y-347840750D01*
X159383788Y-347840750D02*
X159383788Y-127840750D01*
D11*
X337198778Y-357840740D02*
G75*
G03*
X337198778Y-357840740I-625000J0D01*
G01*
X233548768Y-357840740D02*
G75*
G03*
X233548768Y-357840740I-625000J0D01*
G01*
D12*
X274383788Y-136135500D02*
X274383788Y-339545500D01*
D10*
X390446278Y-347840740D02*
G75*
G03*
X390446278Y-347840740I-1062500J0D01*
G01*
D11*
X254278778Y-357840740D02*
G75*
G03*
X254278778Y-357840740I-625000J0D01*
G01*
X295738768Y-357840740D02*
G75*
G03*
X295738768Y-357840740I-625000J0D01*
G01*
X212818788Y-117840740D02*
G75*
G03*
X212818788Y-117840740I-625000J0D01*
G01*
X275008788Y-117840740D02*
G75*
G03*
X275008788Y-117840740I-625000J0D01*
G01*
D10*
X160446288Y-292840750D02*
G75*
G03*
X160446288Y-292840750I-1062500J0D01*
G01*
X160446288Y-127840750D02*
G75*
G03*
X160446288Y-127840750I-1062500J0D01*
G01*
D11*
X212818788Y-357840740D02*
G75*
G03*
X212818788Y-357840740I-625000J0D01*
G01*
D13*
X206966832Y-415895500D02*
X201886832Y-415895500D01*
X353483500Y-415870500D02*
X348403500Y-415870500D01*
X191650166Y-415895500D02*
X186570166Y-415895500D01*
X262433500Y-415870500D02*
X257353500Y-415870500D01*
X309858500Y-415870500D02*
X304778500Y-415870500D01*
X222283500Y-415895500D02*
X217203500Y-415895500D01*
X176333500Y-415895500D02*
X171253500Y-415895500D01*
M02*
