M48
; DRILL file {KiCad (6.0.4-0)} date Friday, February 17, 2023 at 12:35:39 PM
; FORMAT={-:-/ absolute / inch / decimal}
; #@! TF.CreationDate,2023-02-17T12:35:39-08:00
; #@! TF.GenerationSoftware,Kicad,Pcbnew,(6.0.4-0)
; #@! TF.FileFunction,NonPlated,1,6,NPTH
FMAT,2
INCH
; #@! TA.AperFunction,NonPlated,NPTH,ComponentDrill
T1C0.0445
; #@! TA.AperFunction,NonPlated,NPTH,ComponentDrill
T2C0.0984
; #@! TA.AperFunction,NonPlated,NPTH,ComponentDrill
T3C0.1002
; #@! TA.AperFunction,NonPlated,NPTH,ComponentDrill
T4C0.1969
%
G90
G05
T1
X9.3753Y-3.5459
X12.2612Y-3.5459
T2
X8.3535Y-4.6385
X8.3535Y-14.0885
X9.1695Y-4.6385
X9.1695Y-14.0885
X9.9855Y-4.6385
X9.9855Y-14.0885
X10.8015Y-4.6385
X10.8015Y-14.0885
X11.6175Y-14.0885
X11.6195Y-4.6385
X12.4335Y-14.0885
X12.4355Y-4.6385
X13.2495Y-14.0885
X13.2515Y-4.6385
T3
X6.6651Y-16.2951
X7.0194Y-16.2951
X7.2681Y-16.2951
X7.6224Y-16.2951
X7.8711Y-16.2951
X8.2255Y-16.2951
X8.4742Y-16.2951
X8.8285Y-16.2951
X10.0549Y-16.2941
X10.4092Y-16.2941
X11.922Y-16.2941
X12.2763Y-16.2941
X13.6395Y-16.2941
X13.9938Y-16.2941
T4
X6.2735Y-7.2005
X6.2735Y-11.5305
X6.2751Y-5.0331
X6.2751Y-13.6945
X15.3295Y-7.1985
X15.3295Y-11.5305
X15.3303Y-5.0331
X15.3303Y-13.6945
T0
M30
