G04 #@! TF.GenerationSoftware,KiCad,Pcbnew,(6.0.4-0)*
G04 #@! TF.CreationDate,2023-02-17T12:35:32-08:00*
G04 #@! TF.ProjectId,stripline_anode,73747269-706c-4696-9e65-5f616e6f6465,1a*
G04 #@! TF.SameCoordinates,Original*
G04 #@! TF.FileFunction,Paste,Bot*
G04 #@! TF.FilePolarity,Positive*
%FSLAX46Y46*%
G04 Gerber Fmt 4.6, Leading zero omitted, Abs format (unit mm)*
G04 Created by KiCad (PCBNEW (6.0.4-0)) date 2023-02-17 12:35:33*
%MOMM*%
%LPD*%
G01*
G04 APERTURE LIST*
G04 Aperture macros list*
%AMRoundRect*
0 Rectangle with rounded corners*
0 $1 Rounding radius*
0 $2 $3 $4 $5 $6 $7 $8 $9 X,Y pos of 4 corners*
0 Add a 4 corners polygon primitive as box body*
4,1,4,$2,$3,$4,$5,$6,$7,$8,$9,$2,$3,0*
0 Add four circle primitives for the rounded corners*
1,1,$1+$1,$2,$3*
1,1,$1+$1,$4,$5*
1,1,$1+$1,$6,$7*
1,1,$1+$1,$8,$9*
0 Add four rect primitives between the rounded corners*
20,1,$1+$1,$2,$3,$4,$5,0*
20,1,$1+$1,$4,$5,$6,$7,0*
20,1,$1+$1,$6,$7,$8,$9,0*
20,1,$1+$1,$8,$9,$2,$3,0*%
G04 Aperture macros list end*
%ADD10RoundRect,0.249999X-0.450001X-1.425001X0.450001X-1.425001X0.450001X1.425001X-0.450001X1.425001X0*%
%ADD11RoundRect,0.249999X0.450001X1.425001X-0.450001X1.425001X-0.450001X-1.425001X0.450001X-1.425001X0*%
%ADD12RoundRect,0.250000X1.450000X-0.537500X1.450000X0.537500X-1.450000X0.537500X-1.450000X-0.537500X0*%
%ADD13R,1.200000X0.900000*%
%ADD14R,0.900000X1.200000*%
%ADD15RoundRect,0.250000X-1.450000X0.537500X-1.450000X-0.537500X1.450000X-0.537500X1.450000X0.537500X0*%
%ADD16RoundRect,0.600000X0.162000X-0.900000X0.162000X0.900000X-0.162000X0.900000X-0.162000X-0.900000X0*%
%ADD17RoundRect,0.249999X-2.450001X0.737501X-2.450001X-0.737501X2.450001X-0.737501X2.450001X0.737501X0*%
%ADD18C,1.371600*%
G04 APERTURE END LIST*
D10*
X322943500Y-394895500D03*
X329043500Y-394895500D03*
D11*
X184643500Y-388320500D03*
X178543500Y-388320500D03*
D12*
X383668500Y-367883000D03*
X383668500Y-363608000D03*
D13*
X271368500Y-400595500D03*
X271368500Y-397295500D03*
D10*
X362543500Y-394820500D03*
X368643500Y-394820500D03*
X284668500Y-389670500D03*
X290768500Y-389670500D03*
X275493500Y-389720500D03*
X281593500Y-389720500D03*
D14*
X198243500Y-388945500D03*
X194943500Y-388945500D03*
D15*
X185368500Y-379758000D03*
X185368500Y-384033000D03*
D12*
X227318500Y-386958000D03*
X227318500Y-382683000D03*
D16*
X204426832Y-395895500D03*
D10*
X332243500Y-389620500D03*
X338343500Y-389620500D03*
X322968500Y-389695500D03*
X329068500Y-389695500D03*
X332243500Y-394920500D03*
X338343500Y-394920500D03*
X234593500Y-395395500D03*
X240693500Y-395395500D03*
X243968500Y-395395500D03*
X250068500Y-395395500D03*
D17*
X220693500Y-382183000D03*
X220693500Y-387458000D03*
D12*
X267468500Y-385233000D03*
X267468500Y-380958000D03*
D16*
X350943500Y-395870500D03*
X189110166Y-395895500D03*
D17*
X305793500Y-380458000D03*
X305793500Y-385733000D03*
D10*
X362543500Y-389495500D03*
X368643500Y-389495500D03*
D18*
X342708500Y-363420500D03*
D17*
X352068500Y-380458000D03*
X352068500Y-385733000D03*
D10*
X372893500Y-368870500D03*
X378993500Y-368870500D03*
D16*
X259893500Y-395870500D03*
D10*
X371868500Y-389470500D03*
X377968500Y-389470500D03*
D17*
X260843500Y-380458000D03*
X260843500Y-385733000D03*
D15*
X177693500Y-379808000D03*
X177693500Y-384083000D03*
D16*
X307318500Y-395870500D03*
D10*
X244018500Y-390070500D03*
X250118500Y-390070500D03*
D18*
X331763500Y-363420500D03*
D12*
X165343500Y-367933000D03*
X165343500Y-363658000D03*
D10*
X371868500Y-394870500D03*
X377968500Y-394870500D03*
D18*
X174068500Y-113945500D03*
D10*
X234543500Y-390020500D03*
X240643500Y-390020500D03*
D16*
X219743500Y-395895500D03*
D18*
X320818500Y-363420500D03*
D16*
X173793500Y-395895500D03*
D13*
X345943500Y-381445500D03*
X345943500Y-384745500D03*
D11*
X176718500Y-368320500D03*
X170618500Y-368320500D03*
D10*
X275478500Y-395070500D03*
X281578500Y-395070500D03*
D12*
X358268500Y-385233000D03*
X358268500Y-380958000D03*
X312243500Y-385233000D03*
X312243500Y-380958000D03*
D10*
X284768500Y-394995500D03*
X290868500Y-394995500D03*
D18*
X374743500Y-113945500D03*
M02*
