M48
; DRILL file {KiCad (6.0.4-0)} date Friday, February 17, 2023 at 12:35:39 PM
; FORMAT={-:-/ absolute / inch / decimal}
; #@! TF.CreationDate,2023-02-17T12:35:39-08:00
; #@! TF.GenerationSoftware,Kicad,Pcbnew,(6.0.4-0)
; #@! TF.FileFunction,Plated,1,6,PTH
FMAT,2
INCH
; #@! TA.AperFunction,Plated,PTH,ViaDrill
T1C0.0276
; #@! TA.AperFunction,Plated,PTH,ComponentDrill
T2C0.0671
; #@! TA.AperFunction,Plated,PTH,ComponentDrill
T3C0.0984
%
G90
G05
T1
X6.4623Y-14.2951
X6.5558Y-14.2941
X6.6897Y-5.0687
X6.7097Y-3.0167
X6.7097Y-14.2365
X6.7897Y-3.0167
X6.7897Y-14.2365
X6.8015Y-14.0205
X6.8697Y-3.0167
X6.8697Y-14.2365
X6.9025Y-14.0215
X6.9476Y-14.929
X6.9497Y-3.0167
X6.9497Y-14.2365
X6.9801Y-14.4526
X6.9801Y-14.5441
X6.9897Y-5.0687
X7.0297Y-3.0167
X7.0297Y-14.2365
X7.0391Y-14.929
X7.0735Y-14.0205
X7.1097Y-3.0167
X7.1097Y-14.2365
X7.1755Y-14.0205
X7.1897Y-3.0167
X7.1897Y-14.2365
X7.2507Y-14.927
X7.2697Y-3.0167
X7.2697Y-5.0687
X7.2697Y-14.2365
X7.3423Y-14.927
X7.3455Y-14.0205
X7.3497Y-3.0167
X7.3497Y-14.2365
X7.4297Y-3.0167
X7.4297Y-14.2365
X7.4475Y-14.0205
X7.5097Y-3.0167
X7.5097Y-14.2365
X7.5297Y-5.0687
X7.5897Y-3.0167
X7.5897Y-14.2365
X7.6185Y-14.0215
X7.6697Y-3.0167
X7.6697Y-14.2365
X7.7205Y-14.0215
X7.7497Y-3.0167
X7.7497Y-14.2365
X7.8097Y-5.0687
X7.8297Y-3.0167
X7.8297Y-14.2365
X7.8905Y-14.0215
X7.9097Y-3.0167
X7.9097Y-14.2365
X7.9897Y-3.0167
X7.9897Y-14.2365
X7.9935Y-14.0205
X8.0697Y-3.0167
X8.0697Y-5.0687
X8.0697Y-14.2365
X8.1497Y-3.0167
X8.1497Y-14.2365
X8.1635Y-14.0205
X8.2297Y-3.0167
X8.2297Y-14.2365
X8.2655Y-14.0205
X8.3097Y-3.0167
X8.3097Y-14.2365
X8.3497Y-5.0687
X8.3897Y-3.0167
X8.3897Y-14.2365
X8.4355Y-14.0205
X8.4697Y-3.0167
X8.4697Y-14.2365
X8.5375Y-14.0205
X8.5497Y-3.0167
X8.5497Y-14.2365
X8.6018Y-15.0156
X8.6097Y-5.0687
X8.6297Y-3.0167
X8.6297Y-14.2365
X8.6907Y-15.0156
X8.7085Y-14.0195
X8.7097Y-3.0167
X8.7097Y-14.2365
X8.775Y-15.0156
X8.7897Y-3.0167
X8.7897Y-14.2365
X8.8095Y-14.0205
X8.8697Y-3.0167
X8.8697Y-14.2365
X8.9023Y-15.0441
X8.9097Y-5.0687
X8.9497Y-3.0167
X8.9497Y-14.2365
X8.9815Y-14.0205
X8.9938Y-15.0441
X9.0297Y-3.0167
X9.0297Y-14.2365
X9.0825Y-14.0195
X9.1097Y-3.0167
X9.1097Y-14.2365
X9.1697Y-5.0687
X9.1897Y-3.0167
X9.1897Y-14.2365
X9.2535Y-14.0205
X9.2697Y-3.0167
X9.2697Y-14.2365
X9.3497Y-3.0167
X9.3497Y-14.2365
X9.3545Y-14.0215
X9.4297Y-3.0167
X9.4297Y-14.2365
X9.4497Y-5.0687
X9.5097Y-3.0167
X9.5097Y-14.2365
X9.5255Y-14.0205
X9.5897Y-3.0167
X9.5897Y-14.2365
X9.6275Y-14.0205
X9.6697Y-3.0167
X9.6697Y-14.2365
X9.7097Y-5.0687
X9.7497Y-3.0167
X9.7497Y-14.2365
X9.7975Y-14.0205
X9.8297Y-3.0167
X9.8297Y-14.2365
X9.8995Y-14.0205
X9.9097Y-3.0167
X9.9097Y-14.2365
X9.9897Y-3.0167
X9.9897Y-5.0687
X9.9897Y-14.2365
X10.0697Y-3.0167
X10.0697Y-14.2365
X10.0715Y-14.0205
X10.1497Y-3.0167
X10.1497Y-14.2365
X10.1705Y-14.0195
X10.1818Y-14.9496
X10.2297Y-3.0167
X10.2297Y-14.2365
X10.2497Y-5.0687
X10.2665Y-14.9496
X10.3097Y-3.0167
X10.3097Y-14.2365
X10.3435Y-14.0205
X10.3551Y-14.9496
X10.3897Y-3.0167
X10.3897Y-14.2365
X10.4445Y-14.0215
X10.4697Y-3.0167
X10.4697Y-14.2365
X10.483Y-14.9752
X10.5297Y-5.0687
X10.5497Y-3.0167
X10.5497Y-14.2365
X10.5745Y-14.9752
X10.6155Y-14.0205
X10.6297Y-3.0167
X10.6297Y-14.2365
X10.7097Y-3.0167
X10.7097Y-14.2365
X10.7165Y-14.0195
X10.7897Y-3.0167
X10.7897Y-5.0687
X10.7897Y-14.2365
X10.8697Y-3.0167
X10.8697Y-14.2365
X10.8875Y-14.0205
X10.9497Y-3.0167
X10.9497Y-14.2365
X10.9895Y-14.0205
X11.0297Y-3.0167
X11.0297Y-14.2365
X11.0697Y-5.0687
X11.1097Y-3.0167
X11.1097Y-14.2365
X11.1595Y-14.0205
X11.1897Y-3.0167
X11.1897Y-14.2365
X11.2615Y-14.0205
X11.2697Y-3.0167
X11.2697Y-14.2365
X11.3452Y-5.0677
X11.3497Y-3.0167
X11.3497Y-14.2365
X11.4297Y-3.0167
X11.4297Y-14.2365
X11.4335Y-14.0205
X11.5097Y-3.0167
X11.5097Y-14.2365
X11.5345Y-14.0195
X11.5897Y-3.0167
X11.5897Y-14.2365
X11.6297Y-5.0687
X11.6697Y-3.0167
X11.6697Y-14.2365
X11.7055Y-14.0205
X11.7497Y-3.0167
X11.7497Y-14.2365
X11.8075Y-14.0205
X11.8297Y-3.0167
X11.8297Y-14.2365
X11.8897Y-5.0687
X11.9097Y-3.0167
X11.9097Y-14.2365
X11.9512Y-14.9477
X11.9775Y-14.0205
X11.9897Y-3.0167
X11.9897Y-14.2365
X12.0401Y-14.9486
X12.0697Y-3.0167
X12.0697Y-14.2365
X12.0795Y-14.0205
X12.1244Y-14.9477
X12.1497Y-3.0167
X12.1497Y-14.2365
X12.1697Y-5.0687
X12.2297Y-3.0167
X12.2297Y-14.2365
X12.2458Y-14.9762
X12.2495Y-14.0205
X12.3097Y-3.0167
X12.3097Y-14.2365
X12.3373Y-14.9762
X12.3515Y-14.0205
X12.3897Y-3.0167
X12.3897Y-14.2365
X12.4297Y-5.0687
X12.4697Y-3.0167
X12.5215Y-14.0205
X12.5497Y-3.0167
X12.6245Y-14.0195
X12.6297Y-3.0167
X12.7097Y-3.0167
X12.7097Y-5.0687
X12.7897Y-3.0167
X12.7955Y-14.0205
X12.8697Y-3.0167
X12.8975Y-14.0205
X12.9497Y-3.0167
X12.9697Y-5.0687
X13.0297Y-3.0167
X13.0675Y-14.0205
X13.1097Y-3.0167
X13.1695Y-14.0205
X13.1897Y-3.0167
X13.2497Y-5.0687
X13.2697Y-3.0167
X13.3395Y-14.0205
X13.3497Y-3.0167
X13.4297Y-3.0167
X13.4415Y-14.0205
X13.5097Y-3.0167
X13.5253Y-5.0687
X13.5897Y-3.0167
X13.6115Y-14.0205
X13.6198Y-14.9979
X13.6697Y-3.0167
X13.7135Y-14.0205
X13.7497Y-3.0167
X13.7497Y-14.2365
X13.7734Y-14.9477
X13.8097Y-5.0687
X13.8297Y-3.0167
X13.8297Y-14.2365
X13.8629Y-14.9467
X13.8845Y-14.0195
X13.9097Y-3.0167
X13.9097Y-14.2365
X13.9466Y-14.9477
X13.9865Y-14.0195
X13.9897Y-3.0167
X13.9897Y-14.2365
X14.0598Y-14.9752
X14.0697Y-3.0167
X14.0697Y-5.0687
X14.0697Y-14.2365
X14.1497Y-3.0167
X14.1497Y-14.2365
X14.1513Y-14.9752
X14.1575Y-14.0205
X14.2297Y-3.0167
X14.2297Y-14.2365
X14.2595Y-14.0205
X14.3097Y-3.0167
X14.3097Y-14.2365
X14.3497Y-5.0687
X14.3897Y-3.0167
X14.3897Y-14.2365
X14.4295Y-14.0205
X14.4697Y-3.0167
X14.4697Y-14.2365
X14.5315Y-14.0205
X14.5497Y-3.0167
X14.5497Y-14.2365
X14.6097Y-5.0687
X14.6297Y-3.0167
X14.6297Y-14.2365
X14.6612Y-14.4782
X14.6612Y-14.5697
X14.7015Y-14.0205
X14.7097Y-3.0167
X14.7097Y-14.2365
X14.7897Y-3.0167
X14.7897Y-14.2365
X14.8035Y-14.0205
X14.8697Y-3.0167
X14.8697Y-14.2365
X14.9003Y-15.2892
X14.9003Y-15.3807
X14.9003Y-15.5008
X14.9003Y-15.5923
X14.9097Y-5.0687
X15.0578Y-14.2961
X15.1533Y-14.2961
T2
X6.7531Y-4.386
X6.7531Y-4.586
X6.9531Y-4.386
X6.9531Y-4.586
X7.0906Y-4.1819
X7.232Y-4.0405
X7.232Y-4.3233
X7.3734Y-4.1819
X12.5306Y-14.2079
X12.5306Y-14.4079
X12.7306Y-14.2079
X12.7306Y-14.4079
X12.9616Y-14.2079
X12.9616Y-14.4079
X13.1616Y-14.2079
X13.1616Y-14.4079
X13.3925Y-14.2079
X13.3925Y-14.4079
X13.5925Y-14.2079
X13.5925Y-14.4079
X14.6537Y-4.386
X14.6537Y-4.586
X14.8537Y-4.386
X14.8537Y-4.586
T3
X8.356Y-14.6061
X9.9948Y-14.6061
X11.6198Y-14.6061
X13.0116Y-14.7301
T0
M30
