G04 #@! TF.GenerationSoftware,KiCad,Pcbnew,(6.0.4-0)*
G04 #@! TF.CreationDate,2023-02-17T12:35:32-08:00*
G04 #@! TF.ProjectId,stripline_anode,73747269-706c-4696-9e65-5f616e6f6465,1a*
G04 #@! TF.SameCoordinates,Original*
G04 #@! TF.FileFunction,Copper,L2,Inr*
G04 #@! TF.FilePolarity,Positive*
%FSLAX46Y46*%
G04 Gerber Fmt 4.6, Leading zero omitted, Abs format (unit mm)*
G04 Created by KiCad (PCBNEW (6.0.4-0)) date 2023-02-17 12:35:32*
%MOMM*%
%LPD*%
G01*
G04 APERTURE LIST*
G04 #@! TA.AperFunction,ComponentPad*
%ADD10C,2.250000*%
G04 #@! TD*
G04 #@! TA.AperFunction,ComponentPad*
%ADD11C,5.000000*%
G04 #@! TD*
G04 #@! TA.AperFunction,ViaPad*
%ADD12C,1.110000*%
G04 #@! TD*
G04 APERTURE END LIST*
D10*
X180101398Y-106220500D03*
X183693500Y-102628398D03*
X183693500Y-109812602D03*
X187285602Y-106220500D03*
D11*
X295143500Y-370995500D03*
D10*
X340168500Y-360880500D03*
X345248500Y-365960500D03*
X340168500Y-365960500D03*
X345248500Y-360880500D03*
X329223500Y-360880500D03*
X329223500Y-365960500D03*
X334303500Y-365960500D03*
X334303500Y-360880500D03*
X171528500Y-116485500D03*
X171528500Y-111405500D03*
X176608500Y-116485500D03*
X176608500Y-111405500D03*
X318278500Y-365960500D03*
X318278500Y-360880500D03*
X323358500Y-360880500D03*
X323358500Y-365960500D03*
D11*
X330493500Y-374145500D03*
X212243500Y-370995500D03*
D10*
X377283500Y-116485500D03*
X372203500Y-111405500D03*
X372203500Y-116485500D03*
X377283500Y-111405500D03*
D11*
X253868500Y-370995500D03*
D12*
X260341500Y-128744250D03*
X249673500Y-361607100D03*
X253737500Y-361607100D03*
X263897500Y-361607100D03*
X267961500Y-361607100D03*
X231385500Y-361607100D03*
X239513500Y-361607100D03*
X255769500Y-361607100D03*
X265929500Y-361607100D03*
X245609500Y-361607100D03*
X259833500Y-361607100D03*
X241545500Y-361607100D03*
X251705500Y-361607100D03*
X233417500Y-361607100D03*
X227321500Y-361607100D03*
X269993500Y-361607100D03*
X223257500Y-361607100D03*
X229353500Y-361607100D03*
X261865500Y-361607100D03*
X257801500Y-361607100D03*
X237481500Y-361607100D03*
X243577500Y-361607100D03*
X247641500Y-361607100D03*
X235449500Y-361607100D03*
X225289500Y-361607100D03*
X221225500Y-361607100D03*
X198873500Y-76623450D03*
X330953500Y-76623450D03*
X349241500Y-76623450D03*
X337049500Y-76623450D03*
X326889500Y-76623450D03*
X373625500Y-76623450D03*
X202937500Y-76623450D03*
X213097500Y-76623450D03*
X371593500Y-76623450D03*
X345177500Y-76623450D03*
X322825500Y-76623450D03*
X217161500Y-76623450D03*
X324857500Y-76623450D03*
X363465500Y-76623450D03*
X375657500Y-76623450D03*
X359401500Y-76623450D03*
X180585500Y-76623450D03*
X339081500Y-76623450D03*
X188713500Y-76623450D03*
X204969500Y-76623450D03*
X215129500Y-76623450D03*
X194809500Y-76623450D03*
X209033500Y-76623450D03*
X190745500Y-76623450D03*
X200905500Y-76623450D03*
X182617500Y-76623450D03*
X176521500Y-76623450D03*
X219193500Y-76623450D03*
X377689500Y-76623450D03*
X253737500Y-76623450D03*
X267961500Y-76623450D03*
X263897500Y-76623450D03*
X231385500Y-76623450D03*
X239513500Y-76623450D03*
X265929500Y-76623450D03*
X245609500Y-76623450D03*
X255769500Y-76623450D03*
X249673500Y-76623450D03*
X172457500Y-76623450D03*
X178553500Y-76623450D03*
X211065500Y-76623450D03*
X207001500Y-76623450D03*
X259833500Y-76623450D03*
X186681500Y-76623450D03*
X192777500Y-76623450D03*
X241545500Y-76623450D03*
X196841500Y-76623450D03*
X251705500Y-76623450D03*
X184649500Y-76623450D03*
X233417500Y-76623450D03*
X227321500Y-76623450D03*
X269993500Y-76623450D03*
X314697500Y-76623450D03*
X257801500Y-76623450D03*
X290313500Y-76623450D03*
X296409500Y-76623450D03*
X300473500Y-76623450D03*
X280153500Y-76623450D03*
X229353500Y-76623450D03*
X316729500Y-76623450D03*
X288281500Y-76623450D03*
X235449500Y-76623450D03*
X318761500Y-76623450D03*
X310633500Y-76623450D03*
X320793500Y-76623450D03*
X223257500Y-76623450D03*
X312665500Y-76623450D03*
X306569500Y-76623450D03*
X237481500Y-76623450D03*
X284217500Y-76623450D03*
X298441500Y-76623450D03*
X286249500Y-76623450D03*
X261865500Y-76623450D03*
X247641500Y-76623450D03*
X304537500Y-76623450D03*
X282185500Y-76623450D03*
X292345500Y-76623450D03*
X302505500Y-76623450D03*
X308601500Y-76623450D03*
X225289500Y-76623450D03*
X243577500Y-76623450D03*
X278121500Y-76623450D03*
X274057500Y-76623450D03*
X294377500Y-76623450D03*
X276089500Y-76623450D03*
X221225500Y-76623450D03*
X361433500Y-76623450D03*
X351273500Y-76623450D03*
X272025500Y-76623450D03*
X174489500Y-76623450D03*
X369561500Y-76623450D03*
X332985500Y-76623450D03*
X341113500Y-76623450D03*
X367529500Y-76623450D03*
X365497500Y-76623450D03*
X357369500Y-76623450D03*
X355337500Y-76623450D03*
X347209500Y-76623450D03*
X353305500Y-76623450D03*
X343145500Y-76623450D03*
X335017500Y-76623450D03*
X328921500Y-76623450D03*
X170425500Y-76623450D03*
X384893500Y-363120500D03*
X196841500Y-361607100D03*
X371593500Y-361607100D03*
X300473500Y-361607100D03*
X188713500Y-361607100D03*
X343543500Y-128744250D03*
X274057500Y-128744250D03*
X174489500Y-361607100D03*
X176521500Y-361607100D03*
X202937500Y-361607100D03*
X329429500Y-128744250D03*
X364481500Y-128744250D03*
X169917500Y-128744250D03*
X371085500Y-128744250D03*
X184649500Y-361607100D03*
X164143500Y-363095500D03*
X184649500Y-128744250D03*
X298441500Y-361607100D03*
X301997500Y-128744250D03*
X282185500Y-361607100D03*
X281169500Y-128744250D03*
X309109500Y-128744250D03*
X292345500Y-361607100D03*
X375657500Y-361607100D03*
X253737500Y-128744250D03*
X218685500Y-128744250D03*
X378705500Y-128744250D03*
X172457500Y-361607100D03*
X382468500Y-363120500D03*
X246625500Y-128744250D03*
X276089500Y-361607100D03*
X377689500Y-361607100D03*
X357369500Y-128744250D03*
X363465500Y-361607100D03*
X310633500Y-361607100D03*
X314697500Y-361607100D03*
X180585500Y-361607100D03*
X367529500Y-361607100D03*
X284217500Y-361607100D03*
X288168500Y-128720500D03*
X355337500Y-361607100D03*
X198873500Y-361607100D03*
X226305500Y-128744250D03*
X286249500Y-361607100D03*
X353305500Y-361607100D03*
X359401500Y-361607100D03*
X296409500Y-361607100D03*
X295393500Y-128744250D03*
X322825500Y-128744250D03*
X186681500Y-361607100D03*
X232909500Y-128744250D03*
X304537500Y-361607100D03*
X306569500Y-361607100D03*
X315713500Y-128744250D03*
X350765500Y-128744250D03*
X369561500Y-361607100D03*
X204969500Y-361607100D03*
X373625500Y-361607100D03*
X280153500Y-361607100D03*
X365497500Y-361607100D03*
X349241500Y-361607100D03*
X212081500Y-128744250D03*
X357369500Y-361607100D03*
X213097500Y-361607100D03*
X294377500Y-361607100D03*
X209033500Y-361607100D03*
X219193500Y-361607100D03*
X302505500Y-361607100D03*
X207001500Y-361607100D03*
X200905500Y-361607100D03*
X198365500Y-128744250D03*
X336541500Y-128744250D03*
X190745500Y-361607100D03*
X267453500Y-128744250D03*
X166518500Y-363070500D03*
X308601500Y-361607100D03*
X361433500Y-361607100D03*
X191253500Y-128744250D03*
X182617500Y-361607100D03*
X170425500Y-361607100D03*
X351273500Y-361607100D03*
X215129500Y-361607100D03*
X177537500Y-128744250D03*
X211065500Y-361607100D03*
X288281500Y-361607100D03*
X217161500Y-361607100D03*
X274057500Y-361607100D03*
X192777500Y-361607100D03*
X178553500Y-361607100D03*
X290313500Y-361607100D03*
X272025500Y-361607100D03*
X240021500Y-128744250D03*
X312665500Y-361607100D03*
X194809500Y-361607100D03*
X204969500Y-128744250D03*
X278121500Y-361607100D03*
X175323500Y-356146100D03*
X172758100Y-356120700D03*
X179666900Y-356120700D03*
X182257700Y-356120700D03*
X186575700Y-356120700D03*
X189166500Y-356120700D03*
X196100700Y-356146100D03*
X193509900Y-356146100D03*
X200418700Y-356146100D03*
X203034900Y-356120700D03*
X207352900Y-356120700D03*
X209943700Y-356120700D03*
X214261700Y-356120700D03*
X216852500Y-356120700D03*
X221195900Y-356095300D03*
X223761300Y-356120700D03*
X228130100Y-356120700D03*
X230695500Y-356095300D03*
X235038900Y-356120700D03*
X237604300Y-356146100D03*
X244538500Y-356120700D03*
X241947700Y-356120700D03*
X251447300Y-356120700D03*
X248856500Y-356120700D03*
X258330700Y-356095300D03*
X255816100Y-356120700D03*
X265290300Y-356146100D03*
X262724900Y-356120700D03*
X269633700Y-356120700D03*
X272199100Y-356095300D03*
X276542500Y-356120700D03*
X279133300Y-356120700D03*
X283451300Y-356120700D03*
X286042100Y-356120700D03*
X292976300Y-356095300D03*
X290410900Y-356120700D03*
X299910500Y-356120700D03*
X297319700Y-356120700D03*
X306819300Y-356120700D03*
X304228500Y-356120700D03*
X311137300Y-356120700D03*
X313728100Y-356120700D03*
X318046100Y-356120700D03*
X320662300Y-356095300D03*
X327596500Y-356120700D03*
X325005700Y-356120700D03*
X331914500Y-356120700D03*
X334505300Y-356120700D03*
X341414100Y-356120700D03*
X338823300Y-356120700D03*
X345732100Y-356120700D03*
X348322900Y-356120700D03*
X355257100Y-356095300D03*
X352666300Y-356095300D03*
X362191300Y-356120700D03*
X359600500Y-356120700D03*
X369100100Y-356120700D03*
X366509300Y-356120700D03*
X373418100Y-356120700D03*
X376008900Y-356120700D03*
X352118500Y-379645500D03*
X378468500Y-388345500D03*
X305818500Y-379695500D03*
X228443500Y-382120500D03*
X186493500Y-379145500D03*
X359443500Y-380370500D03*
X311043500Y-380395500D03*
X263018500Y-379720500D03*
X266268500Y-380370500D03*
X226118500Y-382120500D03*
X222885168Y-381395500D03*
X307960168Y-379670500D03*
X354243500Y-379670500D03*
X184168500Y-379145500D03*
X258618500Y-379720500D03*
X260768500Y-379720500D03*
X349843500Y-379670500D03*
X220743500Y-381395500D03*
X177293500Y-369420500D03*
X378468500Y-393720500D03*
X345943500Y-380945500D03*
X378468500Y-396045500D03*
X178793500Y-379195500D03*
X357118500Y-380370500D03*
X268593500Y-380370500D03*
X378468500Y-390670500D03*
X372393500Y-370070500D03*
X177293500Y-367095500D03*
X372393500Y-367745500D03*
X313368500Y-380395500D03*
X303560168Y-379670500D03*
X218485168Y-381395500D03*
X176468500Y-379195500D03*
G04 #@! TA.AperFunction,Conductor*
G36*
X385162319Y-73061758D02*
G01*
X385244398Y-73116602D01*
X385299242Y-73198681D01*
X385318500Y-73295500D01*
X385318500Y-131717500D01*
X385299242Y-131814319D01*
X385244398Y-131896398D01*
X385162319Y-131951242D01*
X385065500Y-131970500D01*
X164083500Y-131970500D01*
X163986681Y-131951242D01*
X163904602Y-131896398D01*
X163849758Y-131814319D01*
X163830500Y-131717500D01*
X163830500Y-118062916D01*
X170495745Y-118062916D01*
X170498817Y-118067514D01*
X170503104Y-118070866D01*
X170661972Y-118166512D01*
X170677870Y-118174612D01*
X170907473Y-118271836D01*
X170924347Y-118277614D01*
X171165357Y-118341517D01*
X171182900Y-118344863D01*
X171430496Y-118374168D01*
X171448326Y-118375009D01*
X171697600Y-118369135D01*
X171715352Y-118367457D01*
X171961320Y-118326516D01*
X171978661Y-118322353D01*
X172216399Y-118247166D01*
X172232986Y-118240599D01*
X172457751Y-118132668D01*
X172473257Y-118123824D01*
X172545307Y-118075682D01*
X172558073Y-118062916D01*
X175575745Y-118062916D01*
X175578817Y-118067514D01*
X175583104Y-118070866D01*
X175741972Y-118166512D01*
X175757870Y-118174612D01*
X175987473Y-118271836D01*
X176004347Y-118277614D01*
X176245357Y-118341517D01*
X176262900Y-118344863D01*
X176510496Y-118374168D01*
X176528326Y-118375009D01*
X176777600Y-118369135D01*
X176795352Y-118367457D01*
X177041320Y-118326516D01*
X177058661Y-118322353D01*
X177296399Y-118247166D01*
X177312986Y-118240599D01*
X177537751Y-118132668D01*
X177553257Y-118123824D01*
X177625307Y-118075682D01*
X177640290Y-118060699D01*
X177637041Y-118052856D01*
X177387531Y-117803346D01*
X209399367Y-117803346D01*
X209417750Y-118137376D01*
X209419078Y-118144871D01*
X209419079Y-118144877D01*
X209458824Y-118369135D01*
X209476129Y-118466778D01*
X209573658Y-118786781D01*
X209708925Y-119092749D01*
X209712816Y-119099290D01*
X209712817Y-119099291D01*
X209808253Y-119259703D01*
X209879971Y-119380251D01*
X210084317Y-119645121D01*
X210089656Y-119650544D01*
X210089659Y-119650548D01*
X210313654Y-119878090D01*
X210313660Y-119878096D01*
X210319004Y-119883524D01*
X210580632Y-120092005D01*
X210723022Y-120179775D01*
X210858927Y-120263549D01*
X210858932Y-120263552D01*
X210865412Y-120267546D01*
X211169217Y-120407602D01*
X211176476Y-120409940D01*
X211176477Y-120409940D01*
X211480397Y-120507811D01*
X211480402Y-120507812D01*
X211487649Y-120510146D01*
X211495124Y-120511592D01*
X211495127Y-120511593D01*
X211808613Y-120572244D01*
X211808616Y-120572244D01*
X211816093Y-120573691D01*
X211959331Y-120583833D01*
X212075855Y-120592084D01*
X212075863Y-120592084D01*
X212080322Y-120592400D01*
X212263017Y-120592400D01*
X212266812Y-120592171D01*
X212266819Y-120592171D01*
X212339188Y-120587808D01*
X212512829Y-120577340D01*
X212520329Y-120575970D01*
X212520331Y-120575970D01*
X212834416Y-120518608D01*
X212834421Y-120518607D01*
X212841921Y-120517237D01*
X212849197Y-120514978D01*
X212849204Y-120514976D01*
X213154128Y-120420294D01*
X213154135Y-120420291D01*
X213161408Y-120418033D01*
X213466664Y-120281166D01*
X213753266Y-120108617D01*
X214017063Y-119902887D01*
X214254234Y-119666955D01*
X214461343Y-119404239D01*
X214465299Y-119397745D01*
X214465304Y-119397738D01*
X214631429Y-119125044D01*
X214635389Y-119118544D01*
X214773853Y-118814009D01*
X214780264Y-118793740D01*
X214812579Y-118691558D01*
X214874728Y-118495045D01*
X214936553Y-118166273D01*
X214958433Y-117832454D01*
X214956831Y-117803346D01*
X230125767Y-117803346D01*
X230144150Y-118137376D01*
X230145478Y-118144871D01*
X230145479Y-118144877D01*
X230185224Y-118369135D01*
X230202529Y-118466778D01*
X230300058Y-118786781D01*
X230435325Y-119092749D01*
X230439216Y-119099290D01*
X230439217Y-119099291D01*
X230534653Y-119259703D01*
X230606371Y-119380251D01*
X230810717Y-119645121D01*
X230816056Y-119650544D01*
X230816059Y-119650548D01*
X231040054Y-119878090D01*
X231040060Y-119878096D01*
X231045404Y-119883524D01*
X231307032Y-120092005D01*
X231449422Y-120179775D01*
X231585327Y-120263549D01*
X231585332Y-120263552D01*
X231591812Y-120267546D01*
X231895617Y-120407602D01*
X231902876Y-120409940D01*
X231902877Y-120409940D01*
X232206797Y-120507811D01*
X232206802Y-120507812D01*
X232214049Y-120510146D01*
X232221524Y-120511592D01*
X232221527Y-120511593D01*
X232535013Y-120572244D01*
X232535016Y-120572244D01*
X232542493Y-120573691D01*
X232685731Y-120583833D01*
X232802255Y-120592084D01*
X232802263Y-120592084D01*
X232806722Y-120592400D01*
X232989417Y-120592400D01*
X232993212Y-120592171D01*
X232993219Y-120592171D01*
X233065588Y-120587808D01*
X233239229Y-120577340D01*
X233246729Y-120575970D01*
X233246731Y-120575970D01*
X233560816Y-120518608D01*
X233560821Y-120518607D01*
X233568321Y-120517237D01*
X233575597Y-120514978D01*
X233575604Y-120514976D01*
X233880528Y-120420294D01*
X233880535Y-120420291D01*
X233887808Y-120418033D01*
X234193064Y-120281166D01*
X234479666Y-120108617D01*
X234743463Y-119902887D01*
X234980634Y-119666955D01*
X235187743Y-119404239D01*
X235191699Y-119397745D01*
X235191704Y-119397738D01*
X235357829Y-119125044D01*
X235361789Y-119118544D01*
X235500253Y-118814009D01*
X235506664Y-118793740D01*
X235538979Y-118691558D01*
X235601128Y-118495045D01*
X235662953Y-118166273D01*
X235684833Y-117832454D01*
X235683231Y-117803346D01*
X250852167Y-117803346D01*
X250870550Y-118137376D01*
X250871878Y-118144871D01*
X250871879Y-118144877D01*
X250911624Y-118369135D01*
X250928929Y-118466778D01*
X251026458Y-118786781D01*
X251161725Y-119092749D01*
X251165616Y-119099290D01*
X251165617Y-119099291D01*
X251261053Y-119259703D01*
X251332771Y-119380251D01*
X251537117Y-119645121D01*
X251542456Y-119650544D01*
X251542459Y-119650548D01*
X251766454Y-119878090D01*
X251766460Y-119878096D01*
X251771804Y-119883524D01*
X252033432Y-120092005D01*
X252175822Y-120179775D01*
X252311727Y-120263549D01*
X252311732Y-120263552D01*
X252318212Y-120267546D01*
X252622017Y-120407602D01*
X252629276Y-120409940D01*
X252629277Y-120409940D01*
X252933197Y-120507811D01*
X252933202Y-120507812D01*
X252940449Y-120510146D01*
X252947924Y-120511592D01*
X252947927Y-120511593D01*
X253261413Y-120572244D01*
X253261416Y-120572244D01*
X253268893Y-120573691D01*
X253412131Y-120583833D01*
X253528655Y-120592084D01*
X253528663Y-120592084D01*
X253533122Y-120592400D01*
X253715817Y-120592400D01*
X253719612Y-120592171D01*
X253719619Y-120592171D01*
X253791988Y-120587808D01*
X253965629Y-120577340D01*
X253973129Y-120575970D01*
X253973131Y-120575970D01*
X254287216Y-120518608D01*
X254287221Y-120518607D01*
X254294721Y-120517237D01*
X254301997Y-120514978D01*
X254302004Y-120514976D01*
X254606928Y-120420294D01*
X254606935Y-120420291D01*
X254614208Y-120418033D01*
X254919464Y-120281166D01*
X255206066Y-120108617D01*
X255469863Y-119902887D01*
X255707034Y-119666955D01*
X255914143Y-119404239D01*
X255918099Y-119397745D01*
X255918104Y-119397738D01*
X256084229Y-119125044D01*
X256088189Y-119118544D01*
X256226653Y-118814009D01*
X256233064Y-118793740D01*
X256265379Y-118691558D01*
X256327528Y-118495045D01*
X256389353Y-118166273D01*
X256411233Y-117832454D01*
X256409631Y-117803346D01*
X271578567Y-117803346D01*
X271596950Y-118137376D01*
X271598278Y-118144871D01*
X271598279Y-118144877D01*
X271638024Y-118369135D01*
X271655329Y-118466778D01*
X271752858Y-118786781D01*
X271888125Y-119092749D01*
X271892016Y-119099290D01*
X271892017Y-119099291D01*
X271987453Y-119259703D01*
X272059171Y-119380251D01*
X272263517Y-119645121D01*
X272268856Y-119650544D01*
X272268859Y-119650548D01*
X272492854Y-119878090D01*
X272492860Y-119878096D01*
X272498204Y-119883524D01*
X272759832Y-120092005D01*
X272902222Y-120179775D01*
X273038127Y-120263549D01*
X273038132Y-120263552D01*
X273044612Y-120267546D01*
X273348417Y-120407602D01*
X273355676Y-120409940D01*
X273355677Y-120409940D01*
X273659597Y-120507811D01*
X273659602Y-120507812D01*
X273666849Y-120510146D01*
X273674324Y-120511592D01*
X273674327Y-120511593D01*
X273987813Y-120572244D01*
X273987816Y-120572244D01*
X273995293Y-120573691D01*
X274138531Y-120583833D01*
X274255055Y-120592084D01*
X274255063Y-120592084D01*
X274259522Y-120592400D01*
X274442217Y-120592400D01*
X274446012Y-120592171D01*
X274446019Y-120592171D01*
X274518388Y-120587808D01*
X274692029Y-120577340D01*
X274699529Y-120575970D01*
X274699531Y-120575970D01*
X275013616Y-120518608D01*
X275013621Y-120518607D01*
X275021121Y-120517237D01*
X275028397Y-120514978D01*
X275028404Y-120514976D01*
X275333328Y-120420294D01*
X275333335Y-120420291D01*
X275340608Y-120418033D01*
X275645864Y-120281166D01*
X275932466Y-120108617D01*
X276196263Y-119902887D01*
X276433434Y-119666955D01*
X276640543Y-119404239D01*
X276644499Y-119397745D01*
X276644504Y-119397738D01*
X276810629Y-119125044D01*
X276814589Y-119118544D01*
X276953053Y-118814009D01*
X276959464Y-118793740D01*
X276991779Y-118691558D01*
X277053928Y-118495045D01*
X277115753Y-118166273D01*
X277137633Y-117832454D01*
X277136031Y-117803346D01*
X292355767Y-117803346D01*
X292374150Y-118137376D01*
X292375478Y-118144871D01*
X292375479Y-118144877D01*
X292415224Y-118369135D01*
X292432529Y-118466778D01*
X292530058Y-118786781D01*
X292665325Y-119092749D01*
X292669216Y-119099290D01*
X292669217Y-119099291D01*
X292764653Y-119259703D01*
X292836371Y-119380251D01*
X293040717Y-119645121D01*
X293046056Y-119650544D01*
X293046059Y-119650548D01*
X293270054Y-119878090D01*
X293270060Y-119878096D01*
X293275404Y-119883524D01*
X293537032Y-120092005D01*
X293679422Y-120179775D01*
X293815327Y-120263549D01*
X293815332Y-120263552D01*
X293821812Y-120267546D01*
X294125617Y-120407602D01*
X294132876Y-120409940D01*
X294132877Y-120409940D01*
X294436797Y-120507811D01*
X294436802Y-120507812D01*
X294444049Y-120510146D01*
X294451524Y-120511592D01*
X294451527Y-120511593D01*
X294765013Y-120572244D01*
X294765016Y-120572244D01*
X294772493Y-120573691D01*
X294915731Y-120583833D01*
X295032255Y-120592084D01*
X295032263Y-120592084D01*
X295036722Y-120592400D01*
X295219417Y-120592400D01*
X295223212Y-120592171D01*
X295223219Y-120592171D01*
X295295588Y-120587808D01*
X295469229Y-120577340D01*
X295476729Y-120575970D01*
X295476731Y-120575970D01*
X295790816Y-120518608D01*
X295790821Y-120518607D01*
X295798321Y-120517237D01*
X295805597Y-120514978D01*
X295805604Y-120514976D01*
X296110528Y-120420294D01*
X296110535Y-120420291D01*
X296117808Y-120418033D01*
X296423064Y-120281166D01*
X296709666Y-120108617D01*
X296973463Y-119902887D01*
X297210634Y-119666955D01*
X297417743Y-119404239D01*
X297421699Y-119397745D01*
X297421704Y-119397738D01*
X297587829Y-119125044D01*
X297591789Y-119118544D01*
X297730253Y-118814009D01*
X297736664Y-118793740D01*
X297768979Y-118691558D01*
X297831128Y-118495045D01*
X297892953Y-118166273D01*
X297914833Y-117832454D01*
X297913231Y-117803346D01*
X313082167Y-117803346D01*
X313100550Y-118137376D01*
X313101878Y-118144871D01*
X313101879Y-118144877D01*
X313141624Y-118369135D01*
X313158929Y-118466778D01*
X313256458Y-118786781D01*
X313391725Y-119092749D01*
X313395616Y-119099290D01*
X313395617Y-119099291D01*
X313491053Y-119259703D01*
X313562771Y-119380251D01*
X313767117Y-119645121D01*
X313772456Y-119650544D01*
X313772459Y-119650548D01*
X313996454Y-119878090D01*
X313996460Y-119878096D01*
X314001804Y-119883524D01*
X314263432Y-120092005D01*
X314405822Y-120179775D01*
X314541727Y-120263549D01*
X314541732Y-120263552D01*
X314548212Y-120267546D01*
X314852017Y-120407602D01*
X314859276Y-120409940D01*
X314859277Y-120409940D01*
X315163197Y-120507811D01*
X315163202Y-120507812D01*
X315170449Y-120510146D01*
X315177924Y-120511592D01*
X315177927Y-120511593D01*
X315491413Y-120572244D01*
X315491416Y-120572244D01*
X315498893Y-120573691D01*
X315642131Y-120583833D01*
X315758655Y-120592084D01*
X315758663Y-120592084D01*
X315763122Y-120592400D01*
X315945817Y-120592400D01*
X315949612Y-120592171D01*
X315949619Y-120592171D01*
X316021988Y-120587808D01*
X316195629Y-120577340D01*
X316203129Y-120575970D01*
X316203131Y-120575970D01*
X316517216Y-120518608D01*
X316517221Y-120518607D01*
X316524721Y-120517237D01*
X316531997Y-120514978D01*
X316532004Y-120514976D01*
X316836928Y-120420294D01*
X316836935Y-120420291D01*
X316844208Y-120418033D01*
X317149464Y-120281166D01*
X317436066Y-120108617D01*
X317699863Y-119902887D01*
X317937034Y-119666955D01*
X318144143Y-119404239D01*
X318148099Y-119397745D01*
X318148104Y-119397738D01*
X318314229Y-119125044D01*
X318318189Y-119118544D01*
X318456653Y-118814009D01*
X318463064Y-118793740D01*
X318495379Y-118691558D01*
X318557528Y-118495045D01*
X318619353Y-118166273D01*
X318641233Y-117832454D01*
X318639631Y-117803346D01*
X333808567Y-117803346D01*
X333826950Y-118137376D01*
X333828278Y-118144871D01*
X333828279Y-118144877D01*
X333868024Y-118369135D01*
X333885329Y-118466778D01*
X333982858Y-118786781D01*
X334118125Y-119092749D01*
X334122016Y-119099290D01*
X334122017Y-119099291D01*
X334217453Y-119259703D01*
X334289171Y-119380251D01*
X334493517Y-119645121D01*
X334498856Y-119650544D01*
X334498859Y-119650548D01*
X334722854Y-119878090D01*
X334722860Y-119878096D01*
X334728204Y-119883524D01*
X334989832Y-120092005D01*
X335132222Y-120179775D01*
X335268127Y-120263549D01*
X335268132Y-120263552D01*
X335274612Y-120267546D01*
X335578417Y-120407602D01*
X335585676Y-120409940D01*
X335585677Y-120409940D01*
X335889597Y-120507811D01*
X335889602Y-120507812D01*
X335896849Y-120510146D01*
X335904324Y-120511592D01*
X335904327Y-120511593D01*
X336217813Y-120572244D01*
X336217816Y-120572244D01*
X336225293Y-120573691D01*
X336368531Y-120583833D01*
X336485055Y-120592084D01*
X336485063Y-120592084D01*
X336489522Y-120592400D01*
X336672217Y-120592400D01*
X336676012Y-120592171D01*
X336676019Y-120592171D01*
X336748388Y-120587808D01*
X336922029Y-120577340D01*
X336929529Y-120575970D01*
X336929531Y-120575970D01*
X337243616Y-120518608D01*
X337243621Y-120518607D01*
X337251121Y-120517237D01*
X337258397Y-120514978D01*
X337258404Y-120514976D01*
X337563328Y-120420294D01*
X337563335Y-120420291D01*
X337570608Y-120418033D01*
X337875864Y-120281166D01*
X338162466Y-120108617D01*
X338426263Y-119902887D01*
X338663434Y-119666955D01*
X338870543Y-119404239D01*
X338874499Y-119397745D01*
X338874504Y-119397738D01*
X339040629Y-119125044D01*
X339044589Y-119118544D01*
X339183053Y-118814009D01*
X339189464Y-118793740D01*
X339221779Y-118691558D01*
X339283928Y-118495045D01*
X339345753Y-118166273D01*
X339352527Y-118062916D01*
X371170745Y-118062916D01*
X371173817Y-118067514D01*
X371178104Y-118070866D01*
X371336972Y-118166512D01*
X371352870Y-118174612D01*
X371582473Y-118271836D01*
X371599347Y-118277614D01*
X371840357Y-118341517D01*
X371857900Y-118344863D01*
X372105496Y-118374168D01*
X372123326Y-118375009D01*
X372372600Y-118369135D01*
X372390352Y-118367457D01*
X372636320Y-118326516D01*
X372653661Y-118322353D01*
X372891399Y-118247166D01*
X372907986Y-118240599D01*
X373132751Y-118132668D01*
X373148257Y-118123824D01*
X373220307Y-118075682D01*
X373233073Y-118062916D01*
X376250745Y-118062916D01*
X376253817Y-118067514D01*
X376258104Y-118070866D01*
X376416972Y-118166512D01*
X376432870Y-118174612D01*
X376662473Y-118271836D01*
X376679347Y-118277614D01*
X376920357Y-118341517D01*
X376937900Y-118344863D01*
X377185496Y-118374168D01*
X377203326Y-118375009D01*
X377452600Y-118369135D01*
X377470352Y-118367457D01*
X377716320Y-118326516D01*
X377733661Y-118322353D01*
X377971399Y-118247166D01*
X377987986Y-118240599D01*
X378212751Y-118132668D01*
X378228257Y-118123824D01*
X378300307Y-118075682D01*
X378315290Y-118060699D01*
X378312041Y-118052856D01*
X377301119Y-117041934D01*
X377283500Y-117030161D01*
X377265881Y-117041934D01*
X376262518Y-118045297D01*
X376250745Y-118062916D01*
X373233073Y-118062916D01*
X373235290Y-118060699D01*
X373232041Y-118052856D01*
X372221119Y-117041934D01*
X372203500Y-117030161D01*
X372185881Y-117041934D01*
X371182518Y-118045297D01*
X371170745Y-118062916D01*
X339352527Y-118062916D01*
X339367633Y-117832454D01*
X339349250Y-117498424D01*
X339345476Y-117477126D01*
X339292202Y-117176531D01*
X339292201Y-117176528D01*
X339290871Y-117169022D01*
X339193342Y-116849019D01*
X339058075Y-116543051D01*
X339038862Y-116510756D01*
X338993800Y-116435014D01*
X370312964Y-116435014D01*
X370322754Y-116684155D01*
X370324713Y-116701905D01*
X370369507Y-116947170D01*
X370373947Y-116964465D01*
X370452856Y-117200985D01*
X370459683Y-117217467D01*
X370571137Y-117440522D01*
X370580212Y-117455867D01*
X370612678Y-117502841D01*
X370627895Y-117517588D01*
X370636183Y-117514002D01*
X371647066Y-116503119D01*
X371658839Y-116485500D01*
X372748161Y-116485500D01*
X372759934Y-116503119D01*
X373762598Y-117505783D01*
X373780217Y-117517556D01*
X373785659Y-117513920D01*
X373787851Y-117511162D01*
X373870691Y-117378330D01*
X373879044Y-117362552D01*
X373979859Y-117134514D01*
X373985905Y-117117721D01*
X374053585Y-116877747D01*
X374057204Y-116860271D01*
X374090727Y-116610691D01*
X374091790Y-116597831D01*
X374095117Y-116491955D01*
X374094864Y-116479057D01*
X374091746Y-116435014D01*
X375392964Y-116435014D01*
X375402754Y-116684155D01*
X375404713Y-116701905D01*
X375449507Y-116947170D01*
X375453947Y-116964465D01*
X375532856Y-117200985D01*
X375539683Y-117217467D01*
X375651137Y-117440522D01*
X375660212Y-117455867D01*
X375692678Y-117502841D01*
X375707895Y-117517588D01*
X375716183Y-117514002D01*
X376727066Y-116503119D01*
X376738839Y-116485500D01*
X377828161Y-116485500D01*
X377839934Y-116503119D01*
X378842598Y-117505783D01*
X378860217Y-117517556D01*
X378865659Y-117513920D01*
X378867851Y-117511162D01*
X378950691Y-117378330D01*
X378959044Y-117362552D01*
X379059859Y-117134514D01*
X379065905Y-117117721D01*
X379133585Y-116877747D01*
X379137204Y-116860271D01*
X379170727Y-116610691D01*
X379171790Y-116597831D01*
X379175117Y-116491955D01*
X379174864Y-116479057D01*
X379157079Y-116227871D01*
X379154563Y-116210191D01*
X379102085Y-115966440D01*
X379097107Y-115949306D01*
X379010808Y-115715383D01*
X379003463Y-115699117D01*
X378885064Y-115479686D01*
X378876223Y-115465754D01*
X378860908Y-115451819D01*
X378851630Y-115456185D01*
X377839934Y-116467881D01*
X377828161Y-116485500D01*
X376738839Y-116485500D01*
X376727066Y-116467881D01*
X375722657Y-115463472D01*
X375705038Y-115451699D01*
X375701291Y-115454203D01*
X375696790Y-115460053D01*
X375589090Y-115645473D01*
X375581234Y-115661507D01*
X375487629Y-115892606D01*
X375482115Y-115909577D01*
X375422007Y-116151557D01*
X375418938Y-116169144D01*
X375393525Y-116417174D01*
X375392964Y-116435014D01*
X374091746Y-116435014D01*
X374077079Y-116227871D01*
X374074563Y-116210191D01*
X374022085Y-115966440D01*
X374017107Y-115949306D01*
X373930808Y-115715383D01*
X373923463Y-115699117D01*
X373805064Y-115479686D01*
X373796223Y-115465754D01*
X373780908Y-115451819D01*
X373771630Y-115456185D01*
X372759934Y-116467881D01*
X372748161Y-116485500D01*
X371658839Y-116485500D01*
X371647066Y-116467881D01*
X370642657Y-115463472D01*
X370625038Y-115451699D01*
X370621291Y-115454203D01*
X370616790Y-115460053D01*
X370509090Y-115645473D01*
X370501234Y-115661507D01*
X370407629Y-115892606D01*
X370402115Y-115909577D01*
X370342007Y-116151557D01*
X370338938Y-116169144D01*
X370313525Y-116417174D01*
X370312964Y-116435014D01*
X338993800Y-116435014D01*
X338890924Y-116262096D01*
X338887029Y-116255549D01*
X338682683Y-115990679D01*
X338667082Y-115974831D01*
X338453346Y-115757710D01*
X338453340Y-115757704D01*
X338447996Y-115752276D01*
X338186368Y-115543795D01*
X338036961Y-115451699D01*
X337908073Y-115372251D01*
X337908068Y-115372248D01*
X337901588Y-115368254D01*
X337597783Y-115228198D01*
X337575074Y-115220885D01*
X337286603Y-115127989D01*
X337286598Y-115127988D01*
X337279351Y-115125654D01*
X337271876Y-115124208D01*
X337271873Y-115124207D01*
X336958387Y-115063556D01*
X336958384Y-115063556D01*
X336950907Y-115062109D01*
X336807669Y-115051967D01*
X336691145Y-115043716D01*
X336691137Y-115043716D01*
X336686678Y-115043400D01*
X336503983Y-115043400D01*
X336500188Y-115043629D01*
X336500181Y-115043629D01*
X336427812Y-115047992D01*
X336254171Y-115058460D01*
X336246671Y-115059830D01*
X336246669Y-115059830D01*
X335932584Y-115117192D01*
X335932579Y-115117193D01*
X335925079Y-115118563D01*
X335917803Y-115120822D01*
X335917796Y-115120824D01*
X335612872Y-115215506D01*
X335612865Y-115215509D01*
X335605592Y-115217767D01*
X335300336Y-115354634D01*
X335013734Y-115527183D01*
X334749937Y-115732913D01*
X334744537Y-115738285D01*
X334532408Y-115949306D01*
X334512766Y-115968845D01*
X334508047Y-115974831D01*
X334322504Y-116210191D01*
X334305657Y-116231561D01*
X334301701Y-116238055D01*
X334301696Y-116238062D01*
X334291043Y-116255549D01*
X334131611Y-116517256D01*
X333993147Y-116821791D01*
X333990852Y-116829048D01*
X333990850Y-116829053D01*
X333984536Y-116849019D01*
X333892272Y-117140755D01*
X333830447Y-117469527D01*
X333808567Y-117803346D01*
X318639631Y-117803346D01*
X318622850Y-117498424D01*
X318619076Y-117477126D01*
X318565802Y-117176531D01*
X318565801Y-117176528D01*
X318564471Y-117169022D01*
X318466942Y-116849019D01*
X318331675Y-116543051D01*
X318312462Y-116510756D01*
X318164524Y-116262096D01*
X318160629Y-116255549D01*
X317956283Y-115990679D01*
X317940682Y-115974831D01*
X317726946Y-115757710D01*
X317726940Y-115757704D01*
X317721596Y-115752276D01*
X317459968Y-115543795D01*
X317310561Y-115451699D01*
X317181673Y-115372251D01*
X317181668Y-115372248D01*
X317175188Y-115368254D01*
X316871383Y-115228198D01*
X316848674Y-115220885D01*
X316560203Y-115127989D01*
X316560198Y-115127988D01*
X316552951Y-115125654D01*
X316545476Y-115124208D01*
X316545473Y-115124207D01*
X316231987Y-115063556D01*
X316231984Y-115063556D01*
X316224507Y-115062109D01*
X316081269Y-115051967D01*
X315964745Y-115043716D01*
X315964737Y-115043716D01*
X315960278Y-115043400D01*
X315777583Y-115043400D01*
X315773788Y-115043629D01*
X315773781Y-115043629D01*
X315701412Y-115047992D01*
X315527771Y-115058460D01*
X315520271Y-115059830D01*
X315520269Y-115059830D01*
X315206184Y-115117192D01*
X315206179Y-115117193D01*
X315198679Y-115118563D01*
X315191403Y-115120822D01*
X315191396Y-115120824D01*
X314886472Y-115215506D01*
X314886465Y-115215509D01*
X314879192Y-115217767D01*
X314573936Y-115354634D01*
X314287334Y-115527183D01*
X314023537Y-115732913D01*
X314018137Y-115738285D01*
X313806008Y-115949306D01*
X313786366Y-115968845D01*
X313781647Y-115974831D01*
X313596104Y-116210191D01*
X313579257Y-116231561D01*
X313575301Y-116238055D01*
X313575296Y-116238062D01*
X313564643Y-116255549D01*
X313405211Y-116517256D01*
X313266747Y-116821791D01*
X313264452Y-116829048D01*
X313264450Y-116829053D01*
X313258136Y-116849019D01*
X313165872Y-117140755D01*
X313104047Y-117469527D01*
X313082167Y-117803346D01*
X297913231Y-117803346D01*
X297896450Y-117498424D01*
X297892676Y-117477126D01*
X297839402Y-117176531D01*
X297839401Y-117176528D01*
X297838071Y-117169022D01*
X297740542Y-116849019D01*
X297605275Y-116543051D01*
X297586062Y-116510756D01*
X297438124Y-116262096D01*
X297434229Y-116255549D01*
X297229883Y-115990679D01*
X297214282Y-115974831D01*
X297000546Y-115757710D01*
X297000540Y-115757704D01*
X296995196Y-115752276D01*
X296733568Y-115543795D01*
X296584161Y-115451699D01*
X296455273Y-115372251D01*
X296455268Y-115372248D01*
X296448788Y-115368254D01*
X296144983Y-115228198D01*
X296122274Y-115220885D01*
X295833803Y-115127989D01*
X295833798Y-115127988D01*
X295826551Y-115125654D01*
X295819076Y-115124208D01*
X295819073Y-115124207D01*
X295505587Y-115063556D01*
X295505584Y-115063556D01*
X295498107Y-115062109D01*
X295354869Y-115051967D01*
X295238345Y-115043716D01*
X295238337Y-115043716D01*
X295233878Y-115043400D01*
X295051183Y-115043400D01*
X295047388Y-115043629D01*
X295047381Y-115043629D01*
X294975012Y-115047992D01*
X294801371Y-115058460D01*
X294793871Y-115059830D01*
X294793869Y-115059830D01*
X294479784Y-115117192D01*
X294479779Y-115117193D01*
X294472279Y-115118563D01*
X294465003Y-115120822D01*
X294464996Y-115120824D01*
X294160072Y-115215506D01*
X294160065Y-115215509D01*
X294152792Y-115217767D01*
X293847536Y-115354634D01*
X293560934Y-115527183D01*
X293297137Y-115732913D01*
X293291737Y-115738285D01*
X293079608Y-115949306D01*
X293059966Y-115968845D01*
X293055247Y-115974831D01*
X292869704Y-116210191D01*
X292852857Y-116231561D01*
X292848901Y-116238055D01*
X292848896Y-116238062D01*
X292838243Y-116255549D01*
X292678811Y-116517256D01*
X292540347Y-116821791D01*
X292538052Y-116829048D01*
X292538050Y-116829053D01*
X292531736Y-116849019D01*
X292439472Y-117140755D01*
X292377647Y-117469527D01*
X292355767Y-117803346D01*
X277136031Y-117803346D01*
X277119250Y-117498424D01*
X277115476Y-117477126D01*
X277062202Y-117176531D01*
X277062201Y-117176528D01*
X277060871Y-117169022D01*
X276963342Y-116849019D01*
X276828075Y-116543051D01*
X276808862Y-116510756D01*
X276660924Y-116262096D01*
X276657029Y-116255549D01*
X276452683Y-115990679D01*
X276437082Y-115974831D01*
X276223346Y-115757710D01*
X276223340Y-115757704D01*
X276217996Y-115752276D01*
X275956368Y-115543795D01*
X275806961Y-115451699D01*
X275678073Y-115372251D01*
X275678068Y-115372248D01*
X275671588Y-115368254D01*
X275367783Y-115228198D01*
X275345074Y-115220885D01*
X275056603Y-115127989D01*
X275056598Y-115127988D01*
X275049351Y-115125654D01*
X275041876Y-115124208D01*
X275041873Y-115124207D01*
X274728387Y-115063556D01*
X274728384Y-115063556D01*
X274720907Y-115062109D01*
X274577669Y-115051967D01*
X274461145Y-115043716D01*
X274461137Y-115043716D01*
X274456678Y-115043400D01*
X274273983Y-115043400D01*
X274270188Y-115043629D01*
X274270181Y-115043629D01*
X274197812Y-115047992D01*
X274024171Y-115058460D01*
X274016671Y-115059830D01*
X274016669Y-115059830D01*
X273702584Y-115117192D01*
X273702579Y-115117193D01*
X273695079Y-115118563D01*
X273687803Y-115120822D01*
X273687796Y-115120824D01*
X273382872Y-115215506D01*
X273382865Y-115215509D01*
X273375592Y-115217767D01*
X273070336Y-115354634D01*
X272783734Y-115527183D01*
X272519937Y-115732913D01*
X272514537Y-115738285D01*
X272302408Y-115949306D01*
X272282766Y-115968845D01*
X272278047Y-115974831D01*
X272092504Y-116210191D01*
X272075657Y-116231561D01*
X272071701Y-116238055D01*
X272071696Y-116238062D01*
X272061043Y-116255549D01*
X271901611Y-116517256D01*
X271763147Y-116821791D01*
X271760852Y-116829048D01*
X271760850Y-116829053D01*
X271754536Y-116849019D01*
X271662272Y-117140755D01*
X271600447Y-117469527D01*
X271578567Y-117803346D01*
X256409631Y-117803346D01*
X256392850Y-117498424D01*
X256389076Y-117477126D01*
X256335802Y-117176531D01*
X256335801Y-117176528D01*
X256334471Y-117169022D01*
X256236942Y-116849019D01*
X256101675Y-116543051D01*
X256082462Y-116510756D01*
X255934524Y-116262096D01*
X255930629Y-116255549D01*
X255726283Y-115990679D01*
X255710682Y-115974831D01*
X255496946Y-115757710D01*
X255496940Y-115757704D01*
X255491596Y-115752276D01*
X255229968Y-115543795D01*
X255080561Y-115451699D01*
X254951673Y-115372251D01*
X254951668Y-115372248D01*
X254945188Y-115368254D01*
X254641383Y-115228198D01*
X254618674Y-115220885D01*
X254330203Y-115127989D01*
X254330198Y-115127988D01*
X254322951Y-115125654D01*
X254315476Y-115124208D01*
X254315473Y-115124207D01*
X254001987Y-115063556D01*
X254001984Y-115063556D01*
X253994507Y-115062109D01*
X253851269Y-115051967D01*
X253734745Y-115043716D01*
X253734737Y-115043716D01*
X253730278Y-115043400D01*
X253547583Y-115043400D01*
X253543788Y-115043629D01*
X253543781Y-115043629D01*
X253471412Y-115047992D01*
X253297771Y-115058460D01*
X253290271Y-115059830D01*
X253290269Y-115059830D01*
X252976184Y-115117192D01*
X252976179Y-115117193D01*
X252968679Y-115118563D01*
X252961403Y-115120822D01*
X252961396Y-115120824D01*
X252656472Y-115215506D01*
X252656465Y-115215509D01*
X252649192Y-115217767D01*
X252343936Y-115354634D01*
X252057334Y-115527183D01*
X251793537Y-115732913D01*
X251788137Y-115738285D01*
X251576008Y-115949306D01*
X251556366Y-115968845D01*
X251551647Y-115974831D01*
X251366104Y-116210191D01*
X251349257Y-116231561D01*
X251345301Y-116238055D01*
X251345296Y-116238062D01*
X251334643Y-116255549D01*
X251175211Y-116517256D01*
X251036747Y-116821791D01*
X251034452Y-116829048D01*
X251034450Y-116829053D01*
X251028136Y-116849019D01*
X250935872Y-117140755D01*
X250874047Y-117469527D01*
X250852167Y-117803346D01*
X235683231Y-117803346D01*
X235666450Y-117498424D01*
X235662676Y-117477126D01*
X235609402Y-117176531D01*
X235609401Y-117176528D01*
X235608071Y-117169022D01*
X235510542Y-116849019D01*
X235375275Y-116543051D01*
X235356062Y-116510756D01*
X235208124Y-116262096D01*
X235204229Y-116255549D01*
X234999883Y-115990679D01*
X234984282Y-115974831D01*
X234770546Y-115757710D01*
X234770540Y-115757704D01*
X234765196Y-115752276D01*
X234503568Y-115543795D01*
X234354161Y-115451699D01*
X234225273Y-115372251D01*
X234225268Y-115372248D01*
X234218788Y-115368254D01*
X233914983Y-115228198D01*
X233892274Y-115220885D01*
X233603803Y-115127989D01*
X233603798Y-115127988D01*
X233596551Y-115125654D01*
X233589076Y-115124208D01*
X233589073Y-115124207D01*
X233275587Y-115063556D01*
X233275584Y-115063556D01*
X233268107Y-115062109D01*
X233124869Y-115051967D01*
X233008345Y-115043716D01*
X233008337Y-115043716D01*
X233003878Y-115043400D01*
X232821183Y-115043400D01*
X232817388Y-115043629D01*
X232817381Y-115043629D01*
X232745012Y-115047992D01*
X232571371Y-115058460D01*
X232563871Y-115059830D01*
X232563869Y-115059830D01*
X232249784Y-115117192D01*
X232249779Y-115117193D01*
X232242279Y-115118563D01*
X232235003Y-115120822D01*
X232234996Y-115120824D01*
X231930072Y-115215506D01*
X231930065Y-115215509D01*
X231922792Y-115217767D01*
X231617536Y-115354634D01*
X231330934Y-115527183D01*
X231067137Y-115732913D01*
X231061737Y-115738285D01*
X230849608Y-115949306D01*
X230829966Y-115968845D01*
X230825247Y-115974831D01*
X230639704Y-116210191D01*
X230622857Y-116231561D01*
X230618901Y-116238055D01*
X230618896Y-116238062D01*
X230608243Y-116255549D01*
X230448811Y-116517256D01*
X230310347Y-116821791D01*
X230308052Y-116829048D01*
X230308050Y-116829053D01*
X230301736Y-116849019D01*
X230209472Y-117140755D01*
X230147647Y-117469527D01*
X230125767Y-117803346D01*
X214956831Y-117803346D01*
X214940050Y-117498424D01*
X214936276Y-117477126D01*
X214883002Y-117176531D01*
X214883001Y-117176528D01*
X214881671Y-117169022D01*
X214784142Y-116849019D01*
X214648875Y-116543051D01*
X214629662Y-116510756D01*
X214481724Y-116262096D01*
X214477829Y-116255549D01*
X214273483Y-115990679D01*
X214257882Y-115974831D01*
X214044146Y-115757710D01*
X214044140Y-115757704D01*
X214038796Y-115752276D01*
X213777168Y-115543795D01*
X213627761Y-115451699D01*
X213498873Y-115372251D01*
X213498868Y-115372248D01*
X213492388Y-115368254D01*
X213188583Y-115228198D01*
X213165874Y-115220885D01*
X212877403Y-115127989D01*
X212877398Y-115127988D01*
X212870151Y-115125654D01*
X212862676Y-115124208D01*
X212862673Y-115124207D01*
X212549187Y-115063556D01*
X212549184Y-115063556D01*
X212541707Y-115062109D01*
X212398469Y-115051967D01*
X212281945Y-115043716D01*
X212281937Y-115043716D01*
X212277478Y-115043400D01*
X212094783Y-115043400D01*
X212090988Y-115043629D01*
X212090981Y-115043629D01*
X212018612Y-115047992D01*
X211844971Y-115058460D01*
X211837471Y-115059830D01*
X211837469Y-115059830D01*
X211523384Y-115117192D01*
X211523379Y-115117193D01*
X211515879Y-115118563D01*
X211508603Y-115120822D01*
X211508596Y-115120824D01*
X211203672Y-115215506D01*
X211203665Y-115215509D01*
X211196392Y-115217767D01*
X210891136Y-115354634D01*
X210604534Y-115527183D01*
X210340737Y-115732913D01*
X210335337Y-115738285D01*
X210123208Y-115949306D01*
X210103566Y-115968845D01*
X210098847Y-115974831D01*
X209913304Y-116210191D01*
X209896457Y-116231561D01*
X209892501Y-116238055D01*
X209892496Y-116238062D01*
X209881843Y-116255549D01*
X209722411Y-116517256D01*
X209583947Y-116821791D01*
X209581652Y-116829048D01*
X209581650Y-116829053D01*
X209575336Y-116849019D01*
X209483072Y-117140755D01*
X209421247Y-117469527D01*
X209399367Y-117803346D01*
X177387531Y-117803346D01*
X176626119Y-117041934D01*
X176608500Y-117030161D01*
X176590881Y-117041934D01*
X175587518Y-118045297D01*
X175575745Y-118062916D01*
X172558073Y-118062916D01*
X172560290Y-118060699D01*
X172557041Y-118052856D01*
X171546119Y-117041934D01*
X171528500Y-117030161D01*
X171510881Y-117041934D01*
X170507518Y-118045297D01*
X170495745Y-118062916D01*
X163830500Y-118062916D01*
X163830500Y-116435014D01*
X169637964Y-116435014D01*
X169647754Y-116684155D01*
X169649713Y-116701905D01*
X169694507Y-116947170D01*
X169698947Y-116964465D01*
X169777856Y-117200985D01*
X169784683Y-117217467D01*
X169896137Y-117440522D01*
X169905212Y-117455867D01*
X169937678Y-117502841D01*
X169952895Y-117517588D01*
X169961183Y-117514002D01*
X170972066Y-116503119D01*
X170983839Y-116485500D01*
X172073161Y-116485500D01*
X172084934Y-116503119D01*
X173087598Y-117505783D01*
X173105217Y-117517556D01*
X173110659Y-117513920D01*
X173112851Y-117511162D01*
X173195691Y-117378330D01*
X173204044Y-117362552D01*
X173304859Y-117134514D01*
X173310905Y-117117721D01*
X173378585Y-116877747D01*
X173382204Y-116860271D01*
X173415727Y-116610691D01*
X173416790Y-116597831D01*
X173420117Y-116491955D01*
X173419864Y-116479057D01*
X173416746Y-116435014D01*
X174717964Y-116435014D01*
X174727754Y-116684155D01*
X174729713Y-116701905D01*
X174774507Y-116947170D01*
X174778947Y-116964465D01*
X174857856Y-117200985D01*
X174864683Y-117217467D01*
X174976137Y-117440522D01*
X174985212Y-117455867D01*
X175017678Y-117502841D01*
X175032895Y-117517588D01*
X175041183Y-117514002D01*
X176052066Y-116503119D01*
X176063839Y-116485500D01*
X177153161Y-116485500D01*
X177164934Y-116503119D01*
X178167598Y-117505783D01*
X178185217Y-117517556D01*
X178190659Y-117513920D01*
X178192851Y-117511162D01*
X178275691Y-117378330D01*
X178284044Y-117362552D01*
X178384859Y-117134514D01*
X178390905Y-117117721D01*
X178458585Y-116877747D01*
X178462204Y-116860271D01*
X178495727Y-116610691D01*
X178496790Y-116597831D01*
X178500117Y-116491955D01*
X178499864Y-116479057D01*
X178482079Y-116227871D01*
X178479563Y-116210191D01*
X178427085Y-115966440D01*
X178422107Y-115949306D01*
X178335808Y-115715383D01*
X178328463Y-115699117D01*
X178210064Y-115479686D01*
X178201223Y-115465754D01*
X178185908Y-115451819D01*
X178176630Y-115456185D01*
X177164934Y-116467881D01*
X177153161Y-116485500D01*
X176063839Y-116485500D01*
X176052066Y-116467881D01*
X175047657Y-115463472D01*
X175030038Y-115451699D01*
X175026291Y-115454203D01*
X175021790Y-115460053D01*
X174914090Y-115645473D01*
X174906234Y-115661507D01*
X174812629Y-115892606D01*
X174807115Y-115909577D01*
X174747007Y-116151557D01*
X174743938Y-116169144D01*
X174718525Y-116417174D01*
X174717964Y-116435014D01*
X173416746Y-116435014D01*
X173402079Y-116227871D01*
X173399563Y-116210191D01*
X173347085Y-115966440D01*
X173342107Y-115949306D01*
X173255808Y-115715383D01*
X173248463Y-115699117D01*
X173130064Y-115479686D01*
X173121223Y-115465754D01*
X173105908Y-115451819D01*
X173096630Y-115456185D01*
X172084934Y-116467881D01*
X172073161Y-116485500D01*
X170983839Y-116485500D01*
X170972066Y-116467881D01*
X169967657Y-115463472D01*
X169950038Y-115451699D01*
X169946291Y-115454203D01*
X169941790Y-115460053D01*
X169834090Y-115645473D01*
X169826234Y-115661507D01*
X169732629Y-115892606D01*
X169727115Y-115909577D01*
X169667007Y-116151557D01*
X169663938Y-116169144D01*
X169638525Y-116417174D01*
X169637964Y-116435014D01*
X163830500Y-116435014D01*
X163830500Y-114909158D01*
X170495781Y-114909158D01*
X170499738Y-114917923D01*
X171510881Y-115929066D01*
X171528500Y-115940839D01*
X171546119Y-115929066D01*
X172551649Y-114923536D01*
X172561256Y-114909158D01*
X175575781Y-114909158D01*
X175579738Y-114917923D01*
X176590881Y-115929066D01*
X176608500Y-115940839D01*
X176626119Y-115929066D01*
X177631649Y-114923536D01*
X177641256Y-114909158D01*
X371170781Y-114909158D01*
X371174738Y-114917923D01*
X372185881Y-115929066D01*
X372203500Y-115940839D01*
X372221119Y-115929066D01*
X373226649Y-114923536D01*
X373236256Y-114909158D01*
X376250781Y-114909158D01*
X376254738Y-114917923D01*
X377265881Y-115929066D01*
X377283500Y-115940839D01*
X377301119Y-115929066D01*
X378306649Y-114923536D01*
X378318422Y-114905917D01*
X378314481Y-114900018D01*
X378314360Y-114899939D01*
X378096799Y-114778099D01*
X378080662Y-114770505D01*
X377848109Y-114680538D01*
X377831063Y-114675294D01*
X377588157Y-114618990D01*
X377570531Y-114616199D01*
X377322135Y-114594686D01*
X377304280Y-114594405D01*
X377055319Y-114608107D01*
X377037624Y-114610342D01*
X376793069Y-114658987D01*
X376775864Y-114663694D01*
X376540605Y-114746310D01*
X376524235Y-114753394D01*
X376302957Y-114868339D01*
X376287753Y-114877656D01*
X376265288Y-114893709D01*
X376250781Y-114909158D01*
X373236256Y-114909158D01*
X373238422Y-114905917D01*
X373234481Y-114900018D01*
X373234360Y-114899939D01*
X373016799Y-114778099D01*
X373000662Y-114770505D01*
X372768109Y-114680538D01*
X372751063Y-114675294D01*
X372508157Y-114618990D01*
X372490531Y-114616199D01*
X372242135Y-114594686D01*
X372224280Y-114594405D01*
X371975319Y-114608107D01*
X371957624Y-114610342D01*
X371713069Y-114658987D01*
X371695864Y-114663694D01*
X371460605Y-114746310D01*
X371444235Y-114753394D01*
X371222957Y-114868339D01*
X371207753Y-114877656D01*
X371185288Y-114893709D01*
X371170781Y-114909158D01*
X177641256Y-114909158D01*
X177643422Y-114905917D01*
X177639481Y-114900018D01*
X177639360Y-114899939D01*
X177421799Y-114778099D01*
X177405662Y-114770505D01*
X177173109Y-114680538D01*
X177156063Y-114675294D01*
X176913157Y-114618990D01*
X176895531Y-114616199D01*
X176647135Y-114594686D01*
X176629280Y-114594405D01*
X176380319Y-114608107D01*
X176362624Y-114610342D01*
X176118069Y-114658987D01*
X176100864Y-114663694D01*
X175865605Y-114746310D01*
X175849235Y-114753394D01*
X175627957Y-114868339D01*
X175612753Y-114877656D01*
X175590288Y-114893709D01*
X175575781Y-114909158D01*
X172561256Y-114909158D01*
X172563422Y-114905917D01*
X172559481Y-114900018D01*
X172559360Y-114899939D01*
X172341799Y-114778099D01*
X172325662Y-114770505D01*
X172093109Y-114680538D01*
X172076063Y-114675294D01*
X171833157Y-114618990D01*
X171815531Y-114616199D01*
X171567135Y-114594686D01*
X171549280Y-114594405D01*
X171300319Y-114608107D01*
X171282624Y-114610342D01*
X171038069Y-114658987D01*
X171020864Y-114663694D01*
X170785605Y-114746310D01*
X170769235Y-114753394D01*
X170547957Y-114868339D01*
X170532753Y-114877656D01*
X170510288Y-114893709D01*
X170495781Y-114909158D01*
X163830500Y-114909158D01*
X163830500Y-112982916D01*
X170495745Y-112982916D01*
X170498817Y-112987514D01*
X170503104Y-112990866D01*
X170661972Y-113086512D01*
X170677870Y-113094612D01*
X170907473Y-113191836D01*
X170924347Y-113197614D01*
X171165357Y-113261517D01*
X171182900Y-113264863D01*
X171430496Y-113294168D01*
X171448326Y-113295009D01*
X171697600Y-113289135D01*
X171715352Y-113287457D01*
X171961320Y-113246516D01*
X171978661Y-113242353D01*
X172216399Y-113167166D01*
X172232986Y-113160599D01*
X172457751Y-113052668D01*
X172473257Y-113043824D01*
X172545307Y-112995682D01*
X172558073Y-112982916D01*
X175575745Y-112982916D01*
X175578817Y-112987514D01*
X175583104Y-112990866D01*
X175741972Y-113086512D01*
X175757870Y-113094612D01*
X175987473Y-113191836D01*
X176004347Y-113197614D01*
X176245357Y-113261517D01*
X176262900Y-113264863D01*
X176510496Y-113294168D01*
X176528326Y-113295009D01*
X176777600Y-113289135D01*
X176795352Y-113287457D01*
X177041320Y-113246516D01*
X177058661Y-113242353D01*
X177296399Y-113167166D01*
X177312986Y-113160599D01*
X177537751Y-113052668D01*
X177553257Y-113043824D01*
X177625307Y-112995682D01*
X177638073Y-112982916D01*
X371170745Y-112982916D01*
X371173817Y-112987514D01*
X371178104Y-112990866D01*
X371336972Y-113086512D01*
X371352870Y-113094612D01*
X371582473Y-113191836D01*
X371599347Y-113197614D01*
X371840357Y-113261517D01*
X371857900Y-113264863D01*
X372105496Y-113294168D01*
X372123326Y-113295009D01*
X372372600Y-113289135D01*
X372390352Y-113287457D01*
X372636320Y-113246516D01*
X372653661Y-113242353D01*
X372891399Y-113167166D01*
X372907986Y-113160599D01*
X373132751Y-113052668D01*
X373148257Y-113043824D01*
X373220307Y-112995682D01*
X373233073Y-112982916D01*
X376250745Y-112982916D01*
X376253817Y-112987514D01*
X376258104Y-112990866D01*
X376416972Y-113086512D01*
X376432870Y-113094612D01*
X376662473Y-113191836D01*
X376679347Y-113197614D01*
X376920357Y-113261517D01*
X376937900Y-113264863D01*
X377185496Y-113294168D01*
X377203326Y-113295009D01*
X377452600Y-113289135D01*
X377470352Y-113287457D01*
X377716320Y-113246516D01*
X377733661Y-113242353D01*
X377971399Y-113167166D01*
X377987986Y-113160599D01*
X378212751Y-113052668D01*
X378228257Y-113043824D01*
X378300307Y-112995682D01*
X378315290Y-112980699D01*
X378312041Y-112972856D01*
X377301119Y-111961934D01*
X377283500Y-111950161D01*
X377265881Y-111961934D01*
X376262518Y-112965297D01*
X376250745Y-112982916D01*
X373233073Y-112982916D01*
X373235290Y-112980699D01*
X373232041Y-112972856D01*
X372221119Y-111961934D01*
X372203500Y-111950161D01*
X372185881Y-111961934D01*
X371182518Y-112965297D01*
X371170745Y-112982916D01*
X177638073Y-112982916D01*
X177640290Y-112980699D01*
X177637041Y-112972856D01*
X176626119Y-111961934D01*
X176608500Y-111950161D01*
X176590881Y-111961934D01*
X175587518Y-112965297D01*
X175575745Y-112982916D01*
X172558073Y-112982916D01*
X172560290Y-112980699D01*
X172557041Y-112972856D01*
X171546119Y-111961934D01*
X171528500Y-111950161D01*
X171510881Y-111961934D01*
X170507518Y-112965297D01*
X170495745Y-112982916D01*
X163830500Y-112982916D01*
X163830500Y-111355014D01*
X169637964Y-111355014D01*
X169647754Y-111604155D01*
X169649713Y-111621905D01*
X169694507Y-111867170D01*
X169698947Y-111884465D01*
X169777856Y-112120985D01*
X169784683Y-112137467D01*
X169896137Y-112360522D01*
X169905212Y-112375867D01*
X169937678Y-112422841D01*
X169952895Y-112437588D01*
X169961183Y-112434002D01*
X170972066Y-111423119D01*
X170983839Y-111405500D01*
X172073161Y-111405500D01*
X172084934Y-111423119D01*
X173087598Y-112425783D01*
X173105217Y-112437556D01*
X173110659Y-112433920D01*
X173112851Y-112431162D01*
X173195691Y-112298330D01*
X173204044Y-112282552D01*
X173304859Y-112054514D01*
X173310905Y-112037721D01*
X173378585Y-111797747D01*
X173382204Y-111780271D01*
X173415727Y-111530691D01*
X173416790Y-111517831D01*
X173420117Y-111411955D01*
X173419864Y-111399057D01*
X173416746Y-111355014D01*
X174717964Y-111355014D01*
X174727754Y-111604155D01*
X174729713Y-111621905D01*
X174774507Y-111867170D01*
X174778947Y-111884465D01*
X174857856Y-112120985D01*
X174864683Y-112137467D01*
X174976137Y-112360522D01*
X174985212Y-112375867D01*
X175017678Y-112422841D01*
X175032895Y-112437588D01*
X175041183Y-112434002D01*
X176052066Y-111423119D01*
X176063839Y-111405500D01*
X177153161Y-111405500D01*
X177164934Y-111423119D01*
X178167598Y-112425783D01*
X178185217Y-112437556D01*
X178190659Y-112433920D01*
X178192851Y-112431162D01*
X178275691Y-112298330D01*
X178284044Y-112282552D01*
X178384859Y-112054514D01*
X178390905Y-112037721D01*
X178458585Y-111797747D01*
X178462204Y-111780271D01*
X178495727Y-111530691D01*
X178496790Y-111517831D01*
X178500117Y-111411955D01*
X178499864Y-111399057D01*
X178499224Y-111390018D01*
X182660745Y-111390018D01*
X182663817Y-111394616D01*
X182668104Y-111397968D01*
X182826972Y-111493614D01*
X182842870Y-111501714D01*
X183072473Y-111598938D01*
X183089347Y-111604716D01*
X183330357Y-111668619D01*
X183347900Y-111671965D01*
X183595496Y-111701270D01*
X183613326Y-111702111D01*
X183862600Y-111696237D01*
X183880352Y-111694559D01*
X184126320Y-111653618D01*
X184143661Y-111649455D01*
X184381399Y-111574268D01*
X184397986Y-111567701D01*
X184622751Y-111459770D01*
X184638257Y-111450926D01*
X184710307Y-111402784D01*
X184725290Y-111387801D01*
X184722041Y-111379958D01*
X184697097Y-111355014D01*
X370312964Y-111355014D01*
X370322754Y-111604155D01*
X370324713Y-111621905D01*
X370369507Y-111867170D01*
X370373947Y-111884465D01*
X370452856Y-112120985D01*
X370459683Y-112137467D01*
X370571137Y-112360522D01*
X370580212Y-112375867D01*
X370612678Y-112422841D01*
X370627895Y-112437588D01*
X370636183Y-112434002D01*
X371647066Y-111423119D01*
X371658839Y-111405500D01*
X372748161Y-111405500D01*
X372759934Y-111423119D01*
X373762598Y-112425783D01*
X373780217Y-112437556D01*
X373785659Y-112433920D01*
X373787851Y-112431162D01*
X373870691Y-112298330D01*
X373879044Y-112282552D01*
X373979859Y-112054514D01*
X373985905Y-112037721D01*
X374053585Y-111797747D01*
X374057204Y-111780271D01*
X374090727Y-111530691D01*
X374091790Y-111517831D01*
X374095117Y-111411955D01*
X374094864Y-111399057D01*
X374091746Y-111355014D01*
X375392964Y-111355014D01*
X375402754Y-111604155D01*
X375404713Y-111621905D01*
X375449507Y-111867170D01*
X375453947Y-111884465D01*
X375532856Y-112120985D01*
X375539683Y-112137467D01*
X375651137Y-112360522D01*
X375660212Y-112375867D01*
X375692678Y-112422841D01*
X375707895Y-112437588D01*
X375716183Y-112434002D01*
X376727066Y-111423119D01*
X376738839Y-111405500D01*
X377828161Y-111405500D01*
X377839934Y-111423119D01*
X378842598Y-112425783D01*
X378860217Y-112437556D01*
X378865659Y-112433920D01*
X378867851Y-112431162D01*
X378950691Y-112298330D01*
X378959044Y-112282552D01*
X379059859Y-112054514D01*
X379065905Y-112037721D01*
X379133585Y-111797747D01*
X379137204Y-111780271D01*
X379170727Y-111530691D01*
X379171790Y-111517831D01*
X379175117Y-111411955D01*
X379174864Y-111399057D01*
X379157079Y-111147871D01*
X379154563Y-111130191D01*
X379102085Y-110886440D01*
X379097107Y-110869306D01*
X379010808Y-110635383D01*
X379003463Y-110619117D01*
X378885064Y-110399686D01*
X378876223Y-110385754D01*
X378860908Y-110371819D01*
X378851630Y-110376185D01*
X377839934Y-111387881D01*
X377828161Y-111405500D01*
X376738839Y-111405500D01*
X376727066Y-111387881D01*
X375722657Y-110383472D01*
X375705038Y-110371699D01*
X375701291Y-110374203D01*
X375696790Y-110380053D01*
X375589090Y-110565473D01*
X375581234Y-110581507D01*
X375487631Y-110812602D01*
X375482115Y-110829577D01*
X375422007Y-111071557D01*
X375418938Y-111089144D01*
X375393525Y-111337174D01*
X375392964Y-111355014D01*
X374091746Y-111355014D01*
X374077079Y-111147871D01*
X374074563Y-111130191D01*
X374022085Y-110886440D01*
X374017107Y-110869306D01*
X373930808Y-110635383D01*
X373923463Y-110619117D01*
X373805064Y-110399686D01*
X373796223Y-110385754D01*
X373780908Y-110371819D01*
X373771630Y-110376185D01*
X372759934Y-111387881D01*
X372748161Y-111405500D01*
X371658839Y-111405500D01*
X371647066Y-111387881D01*
X370642657Y-110383472D01*
X370625038Y-110371699D01*
X370621291Y-110374203D01*
X370616790Y-110380053D01*
X370509090Y-110565473D01*
X370501234Y-110581507D01*
X370407631Y-110812602D01*
X370402115Y-110829577D01*
X370342007Y-111071557D01*
X370338938Y-111089144D01*
X370313525Y-111337174D01*
X370312964Y-111355014D01*
X184697097Y-111355014D01*
X183711119Y-110369036D01*
X183693500Y-110357263D01*
X183675881Y-110369036D01*
X182672518Y-111372399D01*
X182660745Y-111390018D01*
X178499224Y-111390018D01*
X178482079Y-111147871D01*
X178479563Y-111130191D01*
X178427085Y-110886440D01*
X178422107Y-110869306D01*
X178335808Y-110635383D01*
X178328463Y-110619117D01*
X178210064Y-110399686D01*
X178201223Y-110385754D01*
X178185908Y-110371819D01*
X178176630Y-110376185D01*
X177164934Y-111387881D01*
X177153161Y-111405500D01*
X176063839Y-111405500D01*
X176052066Y-111387881D01*
X175047657Y-110383472D01*
X175030038Y-110371699D01*
X175026291Y-110374203D01*
X175021790Y-110380053D01*
X174914090Y-110565473D01*
X174906234Y-110581507D01*
X174812631Y-110812602D01*
X174807115Y-110829577D01*
X174747007Y-111071557D01*
X174743938Y-111089144D01*
X174718525Y-111337174D01*
X174717964Y-111355014D01*
X173416746Y-111355014D01*
X173402079Y-111147871D01*
X173399563Y-111130191D01*
X173347085Y-110886440D01*
X173342107Y-110869306D01*
X173255808Y-110635383D01*
X173248463Y-110619117D01*
X173130064Y-110399686D01*
X173121223Y-110385754D01*
X173105908Y-110371819D01*
X173096630Y-110376185D01*
X172084934Y-111387881D01*
X172073161Y-111405500D01*
X170983839Y-111405500D01*
X170972066Y-111387881D01*
X169967657Y-110383472D01*
X169950038Y-110371699D01*
X169946291Y-110374203D01*
X169941790Y-110380053D01*
X169834090Y-110565473D01*
X169826234Y-110581507D01*
X169732631Y-110812602D01*
X169727115Y-110829577D01*
X169667007Y-111071557D01*
X169663938Y-111089144D01*
X169638525Y-111337174D01*
X169637964Y-111355014D01*
X163830500Y-111355014D01*
X163830500Y-109829158D01*
X170495781Y-109829158D01*
X170499738Y-109837923D01*
X171510881Y-110849066D01*
X171528500Y-110860839D01*
X171546119Y-110849066D01*
X172551649Y-109843536D01*
X172561256Y-109829158D01*
X175575781Y-109829158D01*
X175579738Y-109837923D01*
X176590881Y-110849066D01*
X176608500Y-110860839D01*
X176626119Y-110849066D01*
X177631649Y-109843536D01*
X177643422Y-109825917D01*
X177639481Y-109820018D01*
X177639360Y-109819939D01*
X177536110Y-109762116D01*
X181802964Y-109762116D01*
X181812754Y-110011257D01*
X181814713Y-110029007D01*
X181859507Y-110274272D01*
X181863947Y-110291567D01*
X181942856Y-110528087D01*
X181949683Y-110544569D01*
X182061137Y-110767624D01*
X182070212Y-110782969D01*
X182102678Y-110829943D01*
X182117895Y-110844690D01*
X182126183Y-110841104D01*
X183137066Y-109830221D01*
X183148839Y-109812602D01*
X184238161Y-109812602D01*
X184249934Y-109830221D01*
X185252598Y-110832885D01*
X185270217Y-110844658D01*
X185275659Y-110841022D01*
X185277851Y-110838264D01*
X185360691Y-110705432D01*
X185369044Y-110689654D01*
X185469859Y-110461616D01*
X185475905Y-110444823D01*
X185543585Y-110204849D01*
X185547204Y-110187373D01*
X185580727Y-109937793D01*
X185581790Y-109924933D01*
X185584800Y-109829158D01*
X371170781Y-109829158D01*
X371174738Y-109837923D01*
X372185881Y-110849066D01*
X372203500Y-110860839D01*
X372221119Y-110849066D01*
X373226649Y-109843536D01*
X373236256Y-109829158D01*
X376250781Y-109829158D01*
X376254738Y-109837923D01*
X377265881Y-110849066D01*
X377283500Y-110860839D01*
X377301119Y-110849066D01*
X378306649Y-109843536D01*
X378318422Y-109825917D01*
X378314481Y-109820018D01*
X378314360Y-109819939D01*
X378096799Y-109698099D01*
X378080662Y-109690505D01*
X377848109Y-109600538D01*
X377831063Y-109595294D01*
X377588157Y-109538990D01*
X377570531Y-109536199D01*
X377322135Y-109514686D01*
X377304280Y-109514405D01*
X377055319Y-109528107D01*
X377037624Y-109530342D01*
X376793069Y-109578987D01*
X376775864Y-109583694D01*
X376540605Y-109666310D01*
X376524235Y-109673394D01*
X376302957Y-109788339D01*
X376287753Y-109797656D01*
X376265288Y-109813709D01*
X376250781Y-109829158D01*
X373236256Y-109829158D01*
X373238422Y-109825917D01*
X373234481Y-109820018D01*
X373234360Y-109819939D01*
X373016799Y-109698099D01*
X373000662Y-109690505D01*
X372768109Y-109600538D01*
X372751063Y-109595294D01*
X372508157Y-109538990D01*
X372490531Y-109536199D01*
X372242135Y-109514686D01*
X372224280Y-109514405D01*
X371975319Y-109528107D01*
X371957624Y-109530342D01*
X371713069Y-109578987D01*
X371695864Y-109583694D01*
X371460605Y-109666310D01*
X371444235Y-109673394D01*
X371222957Y-109788339D01*
X371207753Y-109797656D01*
X371185288Y-109813709D01*
X371170781Y-109829158D01*
X185584800Y-109829158D01*
X185585117Y-109819057D01*
X185584864Y-109806159D01*
X185567079Y-109554973D01*
X185564563Y-109537293D01*
X185512085Y-109293542D01*
X185507107Y-109276408D01*
X185420808Y-109042485D01*
X185413463Y-109026219D01*
X185295064Y-108806788D01*
X185286223Y-108792856D01*
X185270908Y-108778921D01*
X185261630Y-108783287D01*
X184249934Y-109794983D01*
X184238161Y-109812602D01*
X183148839Y-109812602D01*
X183137066Y-109794983D01*
X182132657Y-108790574D01*
X182115038Y-108778801D01*
X182111291Y-108781305D01*
X182106790Y-108787155D01*
X181999090Y-108972575D01*
X181991234Y-108988609D01*
X181897629Y-109219708D01*
X181892115Y-109236679D01*
X181832007Y-109478659D01*
X181828938Y-109496246D01*
X181803525Y-109744276D01*
X181802964Y-109762116D01*
X177536110Y-109762116D01*
X177421799Y-109698099D01*
X177405662Y-109690505D01*
X177173109Y-109600538D01*
X177156063Y-109595294D01*
X176913157Y-109538990D01*
X176895531Y-109536199D01*
X176647135Y-109514686D01*
X176629280Y-109514405D01*
X176380319Y-109528107D01*
X176362624Y-109530342D01*
X176118069Y-109578987D01*
X176100864Y-109583694D01*
X175865605Y-109666310D01*
X175849235Y-109673394D01*
X175627957Y-109788339D01*
X175612753Y-109797656D01*
X175590288Y-109813709D01*
X175575781Y-109829158D01*
X172561256Y-109829158D01*
X172563422Y-109825917D01*
X172559481Y-109820018D01*
X172559360Y-109819939D01*
X172341799Y-109698099D01*
X172325662Y-109690505D01*
X172093109Y-109600538D01*
X172076063Y-109595294D01*
X171833157Y-109538990D01*
X171815531Y-109536199D01*
X171567135Y-109514686D01*
X171549280Y-109514405D01*
X171300319Y-109528107D01*
X171282624Y-109530342D01*
X171038069Y-109578987D01*
X171020864Y-109583694D01*
X170785605Y-109666310D01*
X170769235Y-109673394D01*
X170547957Y-109788339D01*
X170532753Y-109797656D01*
X170510288Y-109813709D01*
X170495781Y-109829158D01*
X163830500Y-109829158D01*
X163830500Y-108236260D01*
X182660781Y-108236260D01*
X182664738Y-108245025D01*
X183675881Y-109256168D01*
X183693500Y-109267941D01*
X183711119Y-109256168D01*
X184716649Y-108250638D01*
X184728422Y-108233019D01*
X184724481Y-108227120D01*
X184724360Y-108227041D01*
X184506799Y-108105201D01*
X184490662Y-108097607D01*
X184258109Y-108007640D01*
X184241063Y-108002396D01*
X183998157Y-107946092D01*
X183980531Y-107943301D01*
X183732135Y-107921788D01*
X183714280Y-107921507D01*
X183465319Y-107935209D01*
X183447624Y-107937444D01*
X183203069Y-107986089D01*
X183185864Y-107990796D01*
X182950605Y-108073412D01*
X182934235Y-108080496D01*
X182712957Y-108195441D01*
X182697753Y-108204758D01*
X182675288Y-108220811D01*
X182660781Y-108236260D01*
X163830500Y-108236260D01*
X163830500Y-107797916D01*
X179068643Y-107797916D01*
X179071715Y-107802514D01*
X179076002Y-107805866D01*
X179234870Y-107901512D01*
X179250768Y-107909612D01*
X179480371Y-108006836D01*
X179497245Y-108012614D01*
X179738255Y-108076517D01*
X179755798Y-108079863D01*
X180003394Y-108109168D01*
X180021224Y-108110009D01*
X180270498Y-108104135D01*
X180288250Y-108102457D01*
X180534218Y-108061516D01*
X180551559Y-108057353D01*
X180789297Y-107982166D01*
X180805884Y-107975599D01*
X181030649Y-107867668D01*
X181046155Y-107858824D01*
X181118205Y-107810682D01*
X181130971Y-107797916D01*
X186252847Y-107797916D01*
X186255919Y-107802514D01*
X186260206Y-107805866D01*
X186419074Y-107901512D01*
X186434972Y-107909612D01*
X186664575Y-108006836D01*
X186681449Y-108012614D01*
X186922459Y-108076517D01*
X186940002Y-108079863D01*
X187187598Y-108109168D01*
X187205428Y-108110009D01*
X187454702Y-108104135D01*
X187472454Y-108102457D01*
X187718422Y-108061516D01*
X187735763Y-108057353D01*
X187973501Y-107982166D01*
X187990088Y-107975599D01*
X188214853Y-107867668D01*
X188230359Y-107858824D01*
X188302409Y-107810682D01*
X188317392Y-107795699D01*
X188314143Y-107787856D01*
X187303221Y-106776934D01*
X187285602Y-106765161D01*
X187267983Y-106776934D01*
X186264620Y-107780297D01*
X186252847Y-107797916D01*
X181130971Y-107797916D01*
X181133188Y-107795699D01*
X181129939Y-107787856D01*
X180119017Y-106776934D01*
X180101398Y-106765161D01*
X180083779Y-106776934D01*
X179080416Y-107780297D01*
X179068643Y-107797916D01*
X163830500Y-107797916D01*
X163830500Y-106170014D01*
X178210862Y-106170014D01*
X178220652Y-106419155D01*
X178222611Y-106436905D01*
X178267405Y-106682170D01*
X178271845Y-106699465D01*
X178350754Y-106935985D01*
X178357581Y-106952467D01*
X178469035Y-107175522D01*
X178478110Y-107190867D01*
X178510576Y-107237841D01*
X178525793Y-107252588D01*
X178534081Y-107249002D01*
X179544964Y-106238119D01*
X179556737Y-106220500D01*
X180646059Y-106220500D01*
X180657832Y-106238119D01*
X181660496Y-107240783D01*
X181678115Y-107252556D01*
X181683557Y-107248920D01*
X181685749Y-107246162D01*
X181768589Y-107113330D01*
X181776942Y-107097552D01*
X181877757Y-106869514D01*
X181883803Y-106852721D01*
X181951483Y-106612747D01*
X181955102Y-106595271D01*
X181988625Y-106345691D01*
X181989688Y-106332831D01*
X181993015Y-106226955D01*
X181992762Y-106214057D01*
X181989644Y-106170014D01*
X185395066Y-106170014D01*
X185404856Y-106419155D01*
X185406815Y-106436905D01*
X185451609Y-106682170D01*
X185456049Y-106699465D01*
X185534958Y-106935985D01*
X185541785Y-106952467D01*
X185653239Y-107175522D01*
X185662314Y-107190867D01*
X185694780Y-107237841D01*
X185709997Y-107252588D01*
X185718285Y-107249002D01*
X186729168Y-106238119D01*
X186740941Y-106220500D01*
X187830263Y-106220500D01*
X187842036Y-106238119D01*
X188844700Y-107240783D01*
X188862319Y-107252556D01*
X188867761Y-107248920D01*
X188869953Y-107246162D01*
X188952793Y-107113330D01*
X188961146Y-107097552D01*
X189061961Y-106869514D01*
X189068007Y-106852721D01*
X189135687Y-106612747D01*
X189139306Y-106595271D01*
X189172829Y-106345691D01*
X189173892Y-106332831D01*
X189177219Y-106226955D01*
X189176966Y-106214057D01*
X189159181Y-105962871D01*
X189156665Y-105945191D01*
X189104187Y-105701440D01*
X189099209Y-105684306D01*
X189012910Y-105450383D01*
X189005565Y-105434117D01*
X188887166Y-105214686D01*
X188878325Y-105200754D01*
X188863010Y-105186819D01*
X188853732Y-105191185D01*
X187842036Y-106202881D01*
X187830263Y-106220500D01*
X186740941Y-106220500D01*
X186729168Y-106202881D01*
X185724759Y-105198472D01*
X185707140Y-105186699D01*
X185703393Y-105189203D01*
X185698892Y-105195053D01*
X185591192Y-105380473D01*
X185583336Y-105396507D01*
X185489731Y-105627606D01*
X185484217Y-105644577D01*
X185424109Y-105886557D01*
X185421040Y-105904144D01*
X185395627Y-106152174D01*
X185395066Y-106170014D01*
X181989644Y-106170014D01*
X181974977Y-105962871D01*
X181972461Y-105945191D01*
X181919983Y-105701440D01*
X181915005Y-105684306D01*
X181828706Y-105450383D01*
X181821361Y-105434117D01*
X181702962Y-105214686D01*
X181694121Y-105200754D01*
X181678806Y-105186819D01*
X181669528Y-105191185D01*
X180657832Y-106202881D01*
X180646059Y-106220500D01*
X179556737Y-106220500D01*
X179544964Y-106202881D01*
X178540555Y-105198472D01*
X178522936Y-105186699D01*
X178519189Y-105189203D01*
X178514688Y-105195053D01*
X178406988Y-105380473D01*
X178399132Y-105396507D01*
X178305527Y-105627606D01*
X178300013Y-105644577D01*
X178239905Y-105886557D01*
X178236836Y-105904144D01*
X178211423Y-106152174D01*
X178210862Y-106170014D01*
X163830500Y-106170014D01*
X163830500Y-104644158D01*
X179068679Y-104644158D01*
X179072636Y-104652923D01*
X180083779Y-105664066D01*
X180101398Y-105675839D01*
X180119017Y-105664066D01*
X181124547Y-104658536D01*
X181134154Y-104644158D01*
X186252883Y-104644158D01*
X186256840Y-104652923D01*
X187267983Y-105664066D01*
X187285602Y-105675839D01*
X187303221Y-105664066D01*
X188308751Y-104658536D01*
X188320524Y-104640917D01*
X188316583Y-104635018D01*
X188316462Y-104634939D01*
X188098901Y-104513099D01*
X188082764Y-104505505D01*
X187850211Y-104415538D01*
X187833165Y-104410294D01*
X187590259Y-104353990D01*
X187572633Y-104351199D01*
X187324237Y-104329686D01*
X187306382Y-104329405D01*
X187057421Y-104343107D01*
X187039726Y-104345342D01*
X186795171Y-104393987D01*
X186777966Y-104398694D01*
X186542707Y-104481310D01*
X186526337Y-104488394D01*
X186305059Y-104603339D01*
X186289855Y-104612656D01*
X186267390Y-104628709D01*
X186252883Y-104644158D01*
X181134154Y-104644158D01*
X181136320Y-104640917D01*
X181132379Y-104635018D01*
X181132258Y-104634939D01*
X180914697Y-104513099D01*
X180898560Y-104505505D01*
X180666007Y-104415538D01*
X180648961Y-104410294D01*
X180406055Y-104353990D01*
X180388429Y-104351199D01*
X180140033Y-104329686D01*
X180122178Y-104329405D01*
X179873217Y-104343107D01*
X179855522Y-104345342D01*
X179610967Y-104393987D01*
X179593762Y-104398694D01*
X179358503Y-104481310D01*
X179342133Y-104488394D01*
X179120855Y-104603339D01*
X179105651Y-104612656D01*
X179083186Y-104628709D01*
X179068679Y-104644158D01*
X163830500Y-104644158D01*
X163830500Y-104205814D01*
X182660745Y-104205814D01*
X182663817Y-104210412D01*
X182668104Y-104213764D01*
X182826972Y-104309410D01*
X182842870Y-104317510D01*
X183072473Y-104414734D01*
X183089347Y-104420512D01*
X183330357Y-104484415D01*
X183347900Y-104487761D01*
X183595496Y-104517066D01*
X183613326Y-104517907D01*
X183862600Y-104512033D01*
X183880352Y-104510355D01*
X184126320Y-104469414D01*
X184143661Y-104465251D01*
X184381399Y-104390064D01*
X184397986Y-104383497D01*
X184622751Y-104275566D01*
X184638257Y-104266722D01*
X184710307Y-104218580D01*
X184725290Y-104203597D01*
X184722041Y-104195754D01*
X183711119Y-103184832D01*
X183693500Y-103173059D01*
X183675881Y-103184832D01*
X182672518Y-104188195D01*
X182660745Y-104205814D01*
X163830500Y-104205814D01*
X163830500Y-102577912D01*
X181802964Y-102577912D01*
X181812754Y-102827053D01*
X181814713Y-102844803D01*
X181859507Y-103090068D01*
X181863947Y-103107363D01*
X181942856Y-103343883D01*
X181949683Y-103360365D01*
X182061137Y-103583420D01*
X182070212Y-103598765D01*
X182102678Y-103645739D01*
X182117895Y-103660486D01*
X182126183Y-103656900D01*
X183137066Y-102646017D01*
X183148839Y-102628398D01*
X184238161Y-102628398D01*
X184249934Y-102646017D01*
X185252598Y-103648681D01*
X185270217Y-103660454D01*
X185275659Y-103656818D01*
X185277851Y-103654060D01*
X185360691Y-103521228D01*
X185369044Y-103505450D01*
X185469859Y-103277412D01*
X185475905Y-103260619D01*
X185543585Y-103020645D01*
X185547204Y-103003169D01*
X185580727Y-102753589D01*
X185581790Y-102740729D01*
X185585117Y-102634853D01*
X185584864Y-102621955D01*
X185567079Y-102370769D01*
X185564563Y-102353089D01*
X185512085Y-102109338D01*
X185507107Y-102092204D01*
X185420808Y-101858281D01*
X185413463Y-101842015D01*
X185295064Y-101622584D01*
X185286223Y-101608652D01*
X185270908Y-101594717D01*
X185261630Y-101599083D01*
X184249934Y-102610779D01*
X184238161Y-102628398D01*
X183148839Y-102628398D01*
X183137066Y-102610779D01*
X182132657Y-101606370D01*
X182115038Y-101594597D01*
X182111291Y-101597101D01*
X182106790Y-101602951D01*
X181999090Y-101788371D01*
X181991234Y-101804405D01*
X181897629Y-102035504D01*
X181892115Y-102052475D01*
X181832007Y-102294455D01*
X181828938Y-102312042D01*
X181803525Y-102560072D01*
X181802964Y-102577912D01*
X163830500Y-102577912D01*
X163830500Y-101052056D01*
X182660781Y-101052056D01*
X182664738Y-101060821D01*
X183675881Y-102071964D01*
X183693500Y-102083737D01*
X183711119Y-102071964D01*
X184716649Y-101066434D01*
X184728422Y-101048815D01*
X184724481Y-101042916D01*
X184724360Y-101042837D01*
X184506799Y-100920997D01*
X184490662Y-100913403D01*
X184258109Y-100823436D01*
X184241063Y-100818192D01*
X183998157Y-100761888D01*
X183980531Y-100759097D01*
X183732135Y-100737584D01*
X183714280Y-100737303D01*
X183465319Y-100751005D01*
X183447624Y-100753240D01*
X183203069Y-100801885D01*
X183185864Y-100806592D01*
X182950605Y-100889208D01*
X182934235Y-100896292D01*
X182712957Y-101011237D01*
X182697753Y-101020554D01*
X182675288Y-101036607D01*
X182660781Y-101052056D01*
X163830500Y-101052056D01*
X163830500Y-89993979D01*
X236040224Y-89993979D01*
X236050422Y-90286026D01*
X236101167Y-90573810D01*
X236191469Y-90851732D01*
X236319571Y-91114381D01*
X236482981Y-91356646D01*
X236488886Y-91363204D01*
X236488889Y-91363208D01*
X236672602Y-91567242D01*
X236678517Y-91573811D01*
X236902374Y-91761649D01*
X237150194Y-91916504D01*
X237158266Y-91920098D01*
X237158270Y-91920100D01*
X237266305Y-91968200D01*
X237417154Y-92035362D01*
X237425650Y-92037798D01*
X237425655Y-92037800D01*
X237689558Y-92113473D01*
X237689563Y-92113474D01*
X237698058Y-92115910D01*
X237987438Y-92156580D01*
X238206510Y-92156580D01*
X238210893Y-92156273D01*
X238210907Y-92156273D01*
X238416253Y-92141913D01*
X238425062Y-92141297D01*
X238557992Y-92113042D01*
X238702270Y-92082376D01*
X238702276Y-92082374D01*
X238710901Y-92080541D01*
X238985501Y-91980594D01*
X239243520Y-91843403D01*
X239479934Y-91671638D01*
X239581237Y-91573811D01*
X239683781Y-91474786D01*
X239683783Y-91474784D01*
X239690143Y-91468642D01*
X239870054Y-91238367D01*
X239874463Y-91230731D01*
X239874468Y-91230723D01*
X240011753Y-90992937D01*
X240011754Y-90992934D01*
X240016166Y-90985293D01*
X240125635Y-90714348D01*
X240196330Y-90430804D01*
X240226876Y-90140181D01*
X240221771Y-89993979D01*
X309340224Y-89993979D01*
X309350422Y-90286026D01*
X309401167Y-90573810D01*
X309491469Y-90851732D01*
X309619571Y-91114381D01*
X309782981Y-91356646D01*
X309788886Y-91363204D01*
X309788889Y-91363208D01*
X309972602Y-91567242D01*
X309978517Y-91573811D01*
X310202374Y-91761649D01*
X310450194Y-91916504D01*
X310458266Y-91920098D01*
X310458270Y-91920100D01*
X310566305Y-91968200D01*
X310717154Y-92035362D01*
X310725650Y-92037798D01*
X310725655Y-92037800D01*
X310989558Y-92113473D01*
X310989563Y-92113474D01*
X310998058Y-92115910D01*
X311287438Y-92156580D01*
X311506510Y-92156580D01*
X311510893Y-92156273D01*
X311510907Y-92156273D01*
X311716253Y-92141913D01*
X311725062Y-92141297D01*
X311857992Y-92113042D01*
X312002270Y-92082376D01*
X312002276Y-92082374D01*
X312010901Y-92080541D01*
X312285501Y-91980594D01*
X312543520Y-91843403D01*
X312779934Y-91671638D01*
X312881237Y-91573811D01*
X312983781Y-91474786D01*
X312983783Y-91474784D01*
X312990143Y-91468642D01*
X313170054Y-91238367D01*
X313174463Y-91230731D01*
X313174468Y-91230723D01*
X313311753Y-90992937D01*
X313311754Y-90992934D01*
X313316166Y-90985293D01*
X313425635Y-90714348D01*
X313496330Y-90430804D01*
X313526876Y-90140181D01*
X313516678Y-89848134D01*
X313465933Y-89560350D01*
X313375631Y-89282428D01*
X313247529Y-89019779D01*
X313084119Y-88777514D01*
X312983278Y-88665518D01*
X312894498Y-88566918D01*
X312894496Y-88566916D01*
X312888583Y-88560349D01*
X312664726Y-88372511D01*
X312416906Y-88217656D01*
X312408834Y-88214062D01*
X312408830Y-88214060D01*
X312272957Y-88153566D01*
X312149946Y-88098798D01*
X312141450Y-88096362D01*
X312141445Y-88096360D01*
X311877542Y-88020687D01*
X311877537Y-88020686D01*
X311869042Y-88018250D01*
X311579662Y-87977580D01*
X311360590Y-87977580D01*
X311356207Y-87977887D01*
X311356193Y-87977887D01*
X311150847Y-87992247D01*
X311142038Y-87992863D01*
X311022600Y-88018250D01*
X310864830Y-88051784D01*
X310864824Y-88051786D01*
X310856199Y-88053619D01*
X310581599Y-88153566D01*
X310323580Y-88290757D01*
X310087166Y-88462522D01*
X310080806Y-88468664D01*
X309979061Y-88566918D01*
X309876957Y-88665518D01*
X309697046Y-88895793D01*
X309692637Y-88903429D01*
X309692632Y-88903437D01*
X309620876Y-89027723D01*
X309550934Y-89148867D01*
X309441465Y-89419812D01*
X309370770Y-89703356D01*
X309340224Y-89993979D01*
X240221771Y-89993979D01*
X240216678Y-89848134D01*
X240165933Y-89560350D01*
X240075631Y-89282428D01*
X239947529Y-89019779D01*
X239784119Y-88777514D01*
X239683278Y-88665518D01*
X239594498Y-88566918D01*
X239594496Y-88566916D01*
X239588583Y-88560349D01*
X239364726Y-88372511D01*
X239116906Y-88217656D01*
X239108834Y-88214062D01*
X239108830Y-88214060D01*
X238972957Y-88153566D01*
X238849946Y-88098798D01*
X238841450Y-88096362D01*
X238841445Y-88096360D01*
X238577542Y-88020687D01*
X238577537Y-88020686D01*
X238569042Y-88018250D01*
X238279662Y-87977580D01*
X238060590Y-87977580D01*
X238056207Y-87977887D01*
X238056193Y-87977887D01*
X237850847Y-87992247D01*
X237842038Y-87992863D01*
X237722600Y-88018250D01*
X237564830Y-88051784D01*
X237564824Y-88051786D01*
X237556199Y-88053619D01*
X237281599Y-88153566D01*
X237023580Y-88290757D01*
X236787166Y-88462522D01*
X236780806Y-88468664D01*
X236679061Y-88566918D01*
X236576957Y-88665518D01*
X236397046Y-88895793D01*
X236392637Y-88903429D01*
X236392632Y-88903437D01*
X236320876Y-89027723D01*
X236250934Y-89148867D01*
X236141465Y-89419812D01*
X236070770Y-89703356D01*
X236040224Y-89993979D01*
X163830500Y-89993979D01*
X163830500Y-73295500D01*
X163849758Y-73198681D01*
X163904602Y-73116602D01*
X163986681Y-73061758D01*
X164083500Y-73042500D01*
X385065500Y-73042500D01*
X385162319Y-73061758D01*
G37*
G04 #@! TD.AperFunction*
M02*
