G04 #@! TF.GenerationSoftware,KiCad,Pcbnew,(6.0.4-0)*
G04 #@! TF.CreationDate,2023-02-17T12:35:32-08:00*
G04 #@! TF.ProjectId,stripline_anode,73747269-706c-4696-9e65-5f616e6f6465,1a*
G04 #@! TF.SameCoordinates,Original*
G04 #@! TF.FileFunction,Copper,L5,Inr*
G04 #@! TF.FilePolarity,Positive*
%FSLAX46Y46*%
G04 Gerber Fmt 4.6, Leading zero omitted, Abs format (unit mm)*
G04 Created by KiCad (PCBNEW (6.0.4-0)) date 2023-02-17 12:35:32*
%MOMM*%
%LPD*%
G01*
G04 APERTURE LIST*
G04 #@! TA.AperFunction,ComponentPad*
%ADD10C,2.250000*%
G04 #@! TD*
G04 #@! TA.AperFunction,ComponentPad*
%ADD11C,5.000000*%
G04 #@! TD*
G04 #@! TA.AperFunction,ViaPad*
%ADD12C,1.110000*%
G04 #@! TD*
G04 APERTURE END LIST*
D10*
X180101398Y-106220500D03*
X183693500Y-102628398D03*
X183693500Y-109812602D03*
X187285602Y-106220500D03*
D11*
X295143500Y-370995500D03*
D10*
X340168500Y-360880500D03*
X345248500Y-365960500D03*
X340168500Y-365960500D03*
X345248500Y-360880500D03*
X329223500Y-360880500D03*
X329223500Y-365960500D03*
X334303500Y-365960500D03*
X334303500Y-360880500D03*
X171528500Y-116485500D03*
X171528500Y-111405500D03*
X176608500Y-116485500D03*
X176608500Y-111405500D03*
X318278500Y-365960500D03*
X318278500Y-360880500D03*
X323358500Y-360880500D03*
X323358500Y-365960500D03*
D11*
X330493500Y-374145500D03*
X212243500Y-370995500D03*
D10*
X377283500Y-116485500D03*
X372203500Y-111405500D03*
X372203500Y-116485500D03*
X377283500Y-111405500D03*
D11*
X253868500Y-370995500D03*
D12*
X260341500Y-128744250D03*
X249673500Y-361607100D03*
X253737500Y-361607100D03*
X263897500Y-361607100D03*
X267961500Y-361607100D03*
X231385500Y-361607100D03*
X239513500Y-361607100D03*
X255769500Y-361607100D03*
X265929500Y-361607100D03*
X245609500Y-361607100D03*
X259833500Y-361607100D03*
X241545500Y-361607100D03*
X251705500Y-361607100D03*
X233417500Y-361607100D03*
X227321500Y-361607100D03*
X269993500Y-361607100D03*
X223257500Y-361607100D03*
X229353500Y-361607100D03*
X261865500Y-361607100D03*
X257801500Y-361607100D03*
X237481500Y-361607100D03*
X243577500Y-361607100D03*
X247641500Y-361607100D03*
X235449500Y-361607100D03*
X225289500Y-361607100D03*
X221225500Y-361607100D03*
X198873500Y-76623450D03*
X330953500Y-76623450D03*
X349241500Y-76623450D03*
X337049500Y-76623450D03*
X326889500Y-76623450D03*
X373625500Y-76623450D03*
X202937500Y-76623450D03*
X213097500Y-76623450D03*
X371593500Y-76623450D03*
X345177500Y-76623450D03*
X322825500Y-76623450D03*
X217161500Y-76623450D03*
X324857500Y-76623450D03*
X363465500Y-76623450D03*
X375657500Y-76623450D03*
X359401500Y-76623450D03*
X180585500Y-76623450D03*
X339081500Y-76623450D03*
X188713500Y-76623450D03*
X204969500Y-76623450D03*
X215129500Y-76623450D03*
X194809500Y-76623450D03*
X209033500Y-76623450D03*
X190745500Y-76623450D03*
X200905500Y-76623450D03*
X182617500Y-76623450D03*
X176521500Y-76623450D03*
X219193500Y-76623450D03*
X377689500Y-76623450D03*
X253737500Y-76623450D03*
X267961500Y-76623450D03*
X263897500Y-76623450D03*
X231385500Y-76623450D03*
X239513500Y-76623450D03*
X265929500Y-76623450D03*
X245609500Y-76623450D03*
X255769500Y-76623450D03*
X249673500Y-76623450D03*
X172457500Y-76623450D03*
X178553500Y-76623450D03*
X211065500Y-76623450D03*
X207001500Y-76623450D03*
X259833500Y-76623450D03*
X186681500Y-76623450D03*
X192777500Y-76623450D03*
X241545500Y-76623450D03*
X196841500Y-76623450D03*
X251705500Y-76623450D03*
X184649500Y-76623450D03*
X233417500Y-76623450D03*
X227321500Y-76623450D03*
X269993500Y-76623450D03*
X314697500Y-76623450D03*
X257801500Y-76623450D03*
X290313500Y-76623450D03*
X296409500Y-76623450D03*
X300473500Y-76623450D03*
X280153500Y-76623450D03*
X229353500Y-76623450D03*
X316729500Y-76623450D03*
X288281500Y-76623450D03*
X235449500Y-76623450D03*
X318761500Y-76623450D03*
X310633500Y-76623450D03*
X320793500Y-76623450D03*
X223257500Y-76623450D03*
X312665500Y-76623450D03*
X306569500Y-76623450D03*
X237481500Y-76623450D03*
X284217500Y-76623450D03*
X298441500Y-76623450D03*
X286249500Y-76623450D03*
X261865500Y-76623450D03*
X247641500Y-76623450D03*
X304537500Y-76623450D03*
X282185500Y-76623450D03*
X292345500Y-76623450D03*
X302505500Y-76623450D03*
X308601500Y-76623450D03*
X225289500Y-76623450D03*
X243577500Y-76623450D03*
X278121500Y-76623450D03*
X274057500Y-76623450D03*
X294377500Y-76623450D03*
X276089500Y-76623450D03*
X221225500Y-76623450D03*
X361433500Y-76623450D03*
X351273500Y-76623450D03*
X272025500Y-76623450D03*
X174489500Y-76623450D03*
X369561500Y-76623450D03*
X332985500Y-76623450D03*
X341113500Y-76623450D03*
X367529500Y-76623450D03*
X365497500Y-76623450D03*
X357369500Y-76623450D03*
X355337500Y-76623450D03*
X347209500Y-76623450D03*
X353305500Y-76623450D03*
X343145500Y-76623450D03*
X335017500Y-76623450D03*
X328921500Y-76623450D03*
X170425500Y-76623450D03*
X384893500Y-363120500D03*
X196841500Y-361607100D03*
X371593500Y-361607100D03*
X300473500Y-361607100D03*
X188713500Y-361607100D03*
X343543500Y-128744250D03*
X274057500Y-128744250D03*
X174489500Y-361607100D03*
X176521500Y-361607100D03*
X202937500Y-361607100D03*
X329429500Y-128744250D03*
X364481500Y-128744250D03*
X169917500Y-128744250D03*
X371085500Y-128744250D03*
X184649500Y-361607100D03*
X164143500Y-363095500D03*
X184649500Y-128744250D03*
X298441500Y-361607100D03*
X301997500Y-128744250D03*
X282185500Y-361607100D03*
X281169500Y-128744250D03*
X309109500Y-128744250D03*
X292345500Y-361607100D03*
X375657500Y-361607100D03*
X253737500Y-128744250D03*
X218685500Y-128744250D03*
X378705500Y-128744250D03*
X172457500Y-361607100D03*
X382468500Y-363120500D03*
X246625500Y-128744250D03*
X276089500Y-361607100D03*
X377689500Y-361607100D03*
X357369500Y-128744250D03*
X363465500Y-361607100D03*
X310633500Y-361607100D03*
X314697500Y-361607100D03*
X180585500Y-361607100D03*
X367529500Y-361607100D03*
X284217500Y-361607100D03*
X288168500Y-128720500D03*
X355337500Y-361607100D03*
X198873500Y-361607100D03*
X226305500Y-128744250D03*
X286249500Y-361607100D03*
X353305500Y-361607100D03*
X359401500Y-361607100D03*
X296409500Y-361607100D03*
X295393500Y-128744250D03*
X322825500Y-128744250D03*
X186681500Y-361607100D03*
X232909500Y-128744250D03*
X304537500Y-361607100D03*
X306569500Y-361607100D03*
X315713500Y-128744250D03*
X350765500Y-128744250D03*
X369561500Y-361607100D03*
X204969500Y-361607100D03*
X373625500Y-361607100D03*
X280153500Y-361607100D03*
X365497500Y-361607100D03*
X349241500Y-361607100D03*
X212081500Y-128744250D03*
X357369500Y-361607100D03*
X213097500Y-361607100D03*
X294377500Y-361607100D03*
X209033500Y-361607100D03*
X219193500Y-361607100D03*
X302505500Y-361607100D03*
X207001500Y-361607100D03*
X200905500Y-361607100D03*
X198365500Y-128744250D03*
X336541500Y-128744250D03*
X190745500Y-361607100D03*
X267453500Y-128744250D03*
X166518500Y-363070500D03*
X308601500Y-361607100D03*
X361433500Y-361607100D03*
X191253500Y-128744250D03*
X182617500Y-361607100D03*
X170425500Y-361607100D03*
X351273500Y-361607100D03*
X215129500Y-361607100D03*
X177537500Y-128744250D03*
X211065500Y-361607100D03*
X288281500Y-361607100D03*
X217161500Y-361607100D03*
X274057500Y-361607100D03*
X192777500Y-361607100D03*
X178553500Y-361607100D03*
X290313500Y-361607100D03*
X272025500Y-361607100D03*
X240021500Y-128744250D03*
X312665500Y-361607100D03*
X194809500Y-361607100D03*
X204969500Y-128744250D03*
X278121500Y-361607100D03*
X175323500Y-356146100D03*
X172758100Y-356120700D03*
X179666900Y-356120700D03*
X182257700Y-356120700D03*
X186575700Y-356120700D03*
X189166500Y-356120700D03*
X196100700Y-356146100D03*
X193509900Y-356146100D03*
X200418700Y-356146100D03*
X203034900Y-356120700D03*
X207352900Y-356120700D03*
X209943700Y-356120700D03*
X214261700Y-356120700D03*
X216852500Y-356120700D03*
X221195900Y-356095300D03*
X223761300Y-356120700D03*
X228130100Y-356120700D03*
X230695500Y-356095300D03*
X235038900Y-356120700D03*
X237604300Y-356146100D03*
X244538500Y-356120700D03*
X241947700Y-356120700D03*
X251447300Y-356120700D03*
X248856500Y-356120700D03*
X258330700Y-356095300D03*
X255816100Y-356120700D03*
X265290300Y-356146100D03*
X262724900Y-356120700D03*
X269633700Y-356120700D03*
X272199100Y-356095300D03*
X276542500Y-356120700D03*
X279133300Y-356120700D03*
X283451300Y-356120700D03*
X286042100Y-356120700D03*
X292976300Y-356095300D03*
X290410900Y-356120700D03*
X299910500Y-356120700D03*
X297319700Y-356120700D03*
X306819300Y-356120700D03*
X304228500Y-356120700D03*
X311137300Y-356120700D03*
X313728100Y-356120700D03*
X318046100Y-356120700D03*
X320662300Y-356095300D03*
X327596500Y-356120700D03*
X325005700Y-356120700D03*
X331914500Y-356120700D03*
X334505300Y-356120700D03*
X341414100Y-356120700D03*
X338823300Y-356120700D03*
X345732100Y-356120700D03*
X348322900Y-356120700D03*
X355257100Y-356095300D03*
X352666300Y-356095300D03*
X362191300Y-356120700D03*
X359600500Y-356120700D03*
X369100100Y-356120700D03*
X366509300Y-356120700D03*
X373418100Y-356120700D03*
X376008900Y-356120700D03*
X352118500Y-379645500D03*
X378468500Y-388345500D03*
X305818500Y-379695500D03*
X228443500Y-382120500D03*
X186493500Y-379145500D03*
X359443500Y-380370500D03*
X311043500Y-380395500D03*
X263018500Y-379720500D03*
X266268500Y-380370500D03*
X226118500Y-382120500D03*
X222885168Y-381395500D03*
X307960168Y-379670500D03*
X354243500Y-379670500D03*
X184168500Y-379145500D03*
X258618500Y-379720500D03*
X260768500Y-379720500D03*
X349843500Y-379670500D03*
X220743500Y-381395500D03*
X177293500Y-369420500D03*
X378468500Y-393720500D03*
X345943500Y-380945500D03*
X378468500Y-396045500D03*
X178793500Y-379195500D03*
X357118500Y-380370500D03*
X268593500Y-380370500D03*
X378468500Y-390670500D03*
X372393500Y-370070500D03*
X177293500Y-367095500D03*
X372393500Y-367745500D03*
X313368500Y-380395500D03*
X303560168Y-379670500D03*
X218485168Y-381395500D03*
X176468500Y-379195500D03*
M02*
